<svg width="20" height="14" viewBox="0 0 20 14" fill="none" xmlns="http://www.w3.org/2000/svg">
<path fill-rule="evenodd" clip-rule="evenodd" d="M1.18107 2.34959H11.5154C12.1673 2.34959 12.6965 1.82328 12.6965 1.17479C12.6965 0.526307 12.1673 0 11.5154 0H1.18107C0.529118 0 0 0.526307 0 1.17479C0 1.82328 0.529118 2.34959 1.18107 2.34959ZM1.18106 8.34959H18.6018C19.2537 8.34959 19.7829 7.82328 19.7829 7.17479C19.7829 6.52631 19.2537 6 18.6018 6H1.18107C0.529118 6 0 6.52631 0 7.17479C0 7.82328 0.529115 8.34959 1.18106 8.34959ZM1.18107 11.6504H18.6018C19.2543 11.6504 19.7829 12.1767 19.7829 12.8252C19.7829 13.4737 19.2537 14 18.6018 14H1.18107C0.529118 14 0 13.4737 0 12.8252C0 12.1767 0.529118 11.6504 1.18107 11.6504Z" fill="#AAACB0"/>
</svg>
