<svg width="12" height="12" viewBox="0 0 12 12" fill="none" xmlns="http://www.w3.org/2000/svg">
<path d="M6 12C2.70686 12 0 9.31809 0 6C0 2.68191 2.69439 0 6 0C6.51143 0 7.02287 0.0748441 7.54678 0.212058C7.82121 0.286902 8.02079 0.511435 8.05821 0.798337C8.09563 1.07277 7.95842 1.34719 7.70894 1.49688C6.5738 2.13306 5.86279 3.36798 5.86279 4.66528C5.86279 6.68607 7.50936 8.35759 9.53015 8.35759C9.77963 8.35759 10.0291 8.33264 10.2661 8.28275C10.5405 8.23285 10.815 8.33264 10.9771 8.56965C11.1268 8.80665 11.1268 9.10603 10.9771 9.34304C9.86694 11.0021 8.00832 12 6 12ZM5.68815 1.39709C3.28067 1.55925 1.38462 3.55509 1.38462 6C1.38462 8.5447 3.4553 10.6154 6 10.6154C7.02287 10.6154 7.99584 10.2786 8.7817 9.66736C6.34927 9.31809 4.4657 7.20998 4.4657 4.66528C4.47817 3.4553 4.92724 2.29522 5.68815 1.39709Z" fill="#6B6E74"/>
</svg>
