<svg width="16" height="18" viewBox="0 0 16 18" fill="none" xmlns="http://www.w3.org/2000/svg">
<path fill-rule="evenodd" clip-rule="evenodd" d="M7.49 17.8311L7.875 18L8.26 17.8311C8.27065 17.8254 8.28914 17.816 8.31492 17.8029C9.05192 17.4277 15.75 14.0174 15.75 7.32833C15.75 3.2758 12.215 0 7.875 0C3.535 0 0 3.2758 0 7.32833C0 14.0174 6.69809 17.4277 7.43508 17.8029C7.46086 17.816 7.47935 17.8254 7.49 17.8311ZM1.75 7.32833C1.75 4.22139 4.515 1.68856 7.875 1.68856C11.235 1.68856 14 4.22139 14 7.32833C14 9.75985 12.95 11.9887 10.815 13.9812C9.625 15.0619 8.47 15.8049 7.875 16.1088C6.475 15.3321 1.75 12.3602 1.75 7.32833ZM4.58496 7.22676C4.58496 8.98286 6.05496 10.4012 7.87496 10.4012C9.69496 10.4012 11.165 8.98286 11.165 7.22676C11.165 5.47066 9.69496 4.05228 7.87496 4.05228C6.05496 4.05228 4.58496 5.47066 4.58496 7.22676ZM6.33496 7.22676C6.33496 6.41625 7.03496 5.74083 7.87496 5.74083C8.71496 5.74083 9.41496 6.41625 9.41496 7.22676C9.41496 8.03727 8.71496 8.71269 7.87496 8.71269C7.03496 8.71269 6.33496 8.03727 6.33496 7.22676Z" fill="#AAACB0"/>
</svg>
