<svg width="15" height="16" viewBox="0 0 15 16" fill="none" xmlns="http://www.w3.org/2000/svg">
<path fill-rule="evenodd" clip-rule="evenodd" d="M11.1874 4.05351C11.1874 6.29223 9.36286 8.10709 7.11215 8.10711C4.85827 8.09639 3.03684 6.27596 3.03687 4.03407C3.04765 1.803 4.869 2.58423e-05 7.11205 2.75954e-10C9.36277 -2.58406e-05 11.1874 1.81479 11.1874 4.05351ZM9.62001 4.03407C9.62001 2.6564 8.4972 1.53957 7.11215 1.53957C5.72709 1.53957 4.60428 2.6564 4.60428 4.03407C4.60428 5.41174 5.72709 6.52856 7.11215 6.52856C8.4972 6.52856 9.62001 5.41174 9.62001 4.03407ZM9.67869 8.08778L10.2273 8.30215C12.6292 9.21962 14.2171 11.5114 14.2241 14.0707V16H4.00361e-05V14.0707C-0.00919956 11.4971 1.58156 9.18574 3.99689 8.26317L4.52588 8.06829L4.87855 8.51652C4.94308 8.59653 5.01192 8.67302 5.08476 8.74564C6.20053 9.8581 8.01169 9.86022 9.1301 8.75037L9.32602 8.53601L9.67869 8.08778ZM1.56743 14.4409H12.6567V14.0707C12.6491 12.3493 11.6836 10.7737 10.1489 9.97813C8.44337 11.5769 5.78079 11.5769 4.07526 9.97813C2.54059 10.7737 1.57511 12.3493 1.56743 14.0707V14.4409Z" fill="#AAACB0"/>
</svg>
