<svg width="18" height="16" viewBox="0 0 18 16" fill="none" xmlns="http://www.w3.org/2000/svg">
<path d="M2.29131 15.1452C2.46014 15.6438 2.89428 15.9763 3.4249 16H14.2785C14.8091 15.9763 15.2673 15.6438 15.412 15.1452L17.6551 7.07176C17.7757 6.73933 17.6069 6.35941 17.2692 6.24068C17.1727 6.21693 17.1004 6.19319 17.0039 6.19319H14.8332L11.4565 0.446823C11.2153 0.0194079 10.6606 -0.123064 10.2265 0.114389C9.79232 0.351842 9.6476 0.897984 9.88879 1.3254L12.7107 6.21693H4.99264L7.83868 1.3254C8.07987 0.897984 7.91104 0.351842 7.47689 0.114389C7.04275 -0.123064 6.51213 0.0194079 6.27094 0.446823L2.89428 6.21693H0.699451C0.337666 6.19319 0.024119 6.45439 0 6.81057C0 6.90555 -4.67222e-08 7.00053 0.048238 7.07176L2.29131 15.1452ZM13.7961 14.2428H3.90728L3.3043 12.0108H14.4232L13.7961 14.2428ZM3.40078 7.99783H15.5085L14.8814 10.2299H2.79781L2.19483 7.99783H3.40078Z" fill="#AAACB0"/>
</svg>
