<svg width="18" height="17" viewBox="0 0 18 17" fill="none" xmlns="http://www.w3.org/2000/svg">
<path d="M12.5023 0C11.0004 0 9.66089 0.716733 8.72727 1.96047C7.79366 0.716733 6.43383 0 4.95222 0C2.49641 0 0 2.06588 0 6.02899C0 10.1607 4.26216 13.2806 8.26047 15.8735C8.40254 15.9578 8.56491 16.0211 8.72727 16.0211C8.88964 16.0211 9.05201 15.9789 9.19408 15.8735C13.1924 13.2806 17.4545 10.1607 17.4545 6.02899C17.4545 2.06588 14.9581 0 12.5023 0ZM8.72727 14.0395C6.0482 12.2899 1.74545 9.29644 1.74545 6.02899C1.74545 3.11989 3.40973 1.81291 4.95222 1.81291C6.25116 1.81291 7.36744 2.67721 7.91543 4.11067C8.05751 4.44796 8.36195 4.67984 8.72727 4.67984C9.0926 4.67984 9.39704 4.44796 9.53911 4.11067C10.0871 2.67721 11.2034 1.81291 12.5023 1.81291C14.0448 1.81291 15.7091 3.14097 15.7091 6.02899C15.7091 9.29644 11.4063 12.2899 8.72727 14.0395Z" fill="#AAACB0"/>
</svg>
