<svg width="17" height="16" viewBox="0 0 17 16" fill="none" xmlns="http://www.w3.org/2000/svg">
<path d="M16.4401 8.65665L16.4162 8.59552L16.4456 8.53685C16.6189 8.18913 16.7187 7.77885 16.7189 7.41152C16.7201 6.30422 16.1518 5.62291 15.0755 5.44141C14.684 5.37538 14.2342 5.33141 13.7388 5.3108C13.0359 5.28182 12.2569 5.29783 11.4219 5.35837L11.2327 5.37221L11.2659 5.18552C11.3169 4.89662 11.3953 4.54818 11.4989 4.14972C11.9648 2.35808 10.789 0.750249 9.446 0.146933C8.88492 -0.10535 8.32759 -0.0309628 7.87752 0.356255C7.71606 0.495083 7.62149 0.626126 7.57045 0.711758C7.50875 0.814256 7.48021 0.931316 7.48742 1.05054C7.49059 1.10013 7.4952 1.19297 7.5001 1.31551C7.51019 1.57183 7.51481 1.83204 7.51192 2.07149C7.50962 2.26553 7.50183 2.43305 7.48915 2.56957C7.40438 3.47173 7.24955 3.95035 6.70058 5.00777C6.54345 5.30979 6.2828 5.65102 5.92586 6.02224C5.80332 6.14968 5.67531 6.27466 5.54498 6.39533L5.48703 6.4491L5.41005 6.43065C5.34402 6.41464 5.2754 6.41061 5.20678 6.41825C3.38717 6.62008 2.52999 6.57812 1.2161 6.22349C1.16449 6.20936 1.11202 6.20244 1.06012 6.20244C0.948825 6.20244 0.840127 6.2343 0.742962 6.29658C0.601107 6.38769 0.507402 6.52969 0.479723 6.69619C-0.17477 10.6159 -0.160642 13.1362 0.528738 15.3955C0.596783 15.6181 0.790247 15.7807 1.02119 15.8092C3.58064 16.1255 4.15757 16.08 5.77362 15.4335C5.84859 15.4033 5.91548 15.3594 5.97199 15.3029L6.02101 15.2539L6.0902 15.2603C8.06839 15.4456 12.3137 15.4704 13.4165 15.3032C13.4298 15.3012 13.4511 15.2986 13.4883 15.2949C13.644 15.279 13.6532 15.2781 13.7296 15.2663C13.8545 15.247 13.9614 15.2208 14.0661 15.1844C14.7725 14.9391 15.1464 14.2895 15.1773 13.2538L15.1793 13.1907L15.2263 13.1483C15.8156 12.6181 16.0287 11.9755 15.8969 11.1266L15.8854 11.0512L15.9399 10.9981C16.5065 10.4473 16.7308 9.39692 16.4401 8.65665ZM4.70568 14.5746C4.19996 14.7482 3.79284 14.8226 3.25916 14.8226C2.83936 14.8226 2.34085 14.7764 1.65464 14.6963L1.55373 14.6842L1.52893 14.5856C1.07453 12.7841 1.07194 10.6521 1.52028 7.67318L1.54335 7.51993L1.69501 7.55035C2.5496 7.72104 3.33037 7.75895 4.3914 7.6811L4.56959 7.66799L4.54883 7.84545C4.30202 9.95049 4.40841 12.7077 4.80169 14.4016L4.83167 14.5314L4.70568 14.5746ZM15.3142 9.03622C15.4293 9.13469 15.3875 9.51455 15.3509 9.67255C15.3134 9.83257 15.2497 9.98308 15.1761 10.0857C15.1571 10.1121 15.1404 10.1317 15.1274 10.1448L15.0989 10.1739L15.0594 10.1842C14.904 10.2245 14.7745 10.3239 14.6949 10.464C14.6153 10.604 14.5963 10.7663 14.6416 10.921C14.8339 11.5808 14.8281 12.015 14.2469 12.4191C14.0799 12.5353 13.9856 12.7262 13.9946 12.9297C14.0136 13.3735 13.9709 13.699 13.8677 13.8974C13.8196 13.9908 13.7685 14.0372 13.6794 14.0686C13.6077 14.0931 13.5488 14.1018 13.3683 14.1199C13.3153 14.1251 13.2793 14.1294 13.24 14.1355C12.8029 14.2018 11.7436 14.2327 10.5413 14.2327C8.90135 14.2327 6.99525 14.175 6.0383 14.0709L5.93163 14.0594L5.90971 13.9544C5.56747 12.328 5.49568 9.75631 5.73903 7.83939L5.74652 7.78072L5.79237 7.74338C5.84916 7.69739 5.91346 7.64405 5.98439 7.58394C6.27041 7.34059 6.5371 7.09033 6.77757 6.8405C7.21812 6.38206 7.53499 5.96241 7.74604 5.55746C8.36767 4.35962 8.56517 3.74117 8.66464 2.68014C8.6805 2.51262 8.69001 2.31296 8.6929 2.08677C8.69578 1.84516 8.69174 1.59028 8.68252 1.33756L8.67589 1.14813L8.86099 1.18792C8.8927 1.1947 8.92298 1.20666 8.96161 1.22382C9.87646 1.63497 10.6477 2.73045 10.3557 3.85246C10.0659 4.96784 9.96238 5.70032 10.0394 6.09187C10.0564 6.17779 10.0817 6.2503 10.1178 6.31359C10.2354 6.52248 10.4678 6.63939 10.7031 6.60984C10.7339 6.60609 10.7968 6.59903 10.8876 6.5898C11.0396 6.57438 11.2117 6.55881 11.4003 6.54425C12.2309 6.48009 13.0019 6.46236 13.6895 6.49076C14.1356 6.50921 14.5358 6.54799 14.8792 6.60595C15.3846 6.69129 15.5386 6.87928 15.538 7.41051C15.538 7.66626 15.414 8.04526 15.2923 8.16131C15.1701 8.27793 15.1052 8.43493 15.1092 8.60374C15.1136 8.77255 15.1862 8.92608 15.3142 9.03622Z" fill="#6B6E74"/>
</svg>
