<svg width="16" height="11" viewBox="0 0 16 11" fill="none" xmlns="http://www.w3.org/2000/svg">
<path d="M16 3.42084C16 2.97161 15.9099 2.52677 15.7349 2.11173C15.5598 1.69669 15.3033 1.31958 14.9798 1.00193C14.6564 0.684273 14.2724 0.432297 13.8498 0.260386C13.4272 0.0884751 12.9743 -4.48646e-06 12.5169 1.70623e-10H3.48308C2.55932 0 1.67339 0.360407 1.02019 1.00194C0.366985 1.64347 1.31796e-05 2.51357 0 3.42084V7.57911C0 8.48639 0.366966 9.3565 1.02017 9.99804C1.67337 10.6396 2.55931 11 3.48308 11H12.5169C13.4407 11 14.3266 10.6396 14.9798 9.99804C15.633 9.3565 16 8.48639 16 7.57911V3.42084ZM10.3003 5.7095L6.69746 7.65022C6.54087 7.73344 6.39999 7.62206 6.39999 7.44718V3.46355C6.39999 3.28643 6.54525 3.17529 6.70193 3.26295L10.3295 5.30582C10.3646 5.32845 10.3929 5.35986 10.4116 5.39682C10.4302 5.43378 10.4384 5.47495 10.4355 5.51608C10.4325 5.55721 10.4184 5.59682 10.3946 5.63082C10.3709 5.66482 10.3383 5.69198 10.3003 5.7095Z" fill="#DB5360"/>
</svg>
