<svg width="29" height="28" viewBox="0 0 29 28" fill="none" xmlns="http://www.w3.org/2000/svg">
<path d="M14.0373 0C6.29581 0 0 6.27907 0 14C0 21.7209 6.29581 28 14.0373 28C21.7789 28 28.0747 21.7209 28.0747 14C28.0747 6.27907 21.7789 0 14.0373 0ZM14.0373 1.86667C20.7673 1.86667 26.203 7.28789 26.203 14C26.203 20.7121 20.7673 26.1333 14.0373 26.1333C7.30732 26.1333 1.87164 20.7121 1.87164 14C1.87164 7.28789 7.30732 1.86667 14.0373 1.86667ZM14.0373 6.22222C11.4642 6.22222 9.35822 8.32262 9.35822 10.8889C9.35091 11.4044 9.76397 11.8281 10.2808 11.8354C10.7977 11.8427 11.2226 11.4308 11.2299 10.9153C11.23 10.9065 11.23 10.8977 11.2299 10.8889C11.2299 9.33144 12.4757 8.08889 14.0373 8.08889C15.5989 8.08889 16.8448 9.33144 16.8448 10.8889C16.8448 11.8574 16.4533 12.5186 15.8115 13.1931C15.1697 13.8675 14.2793 14.4778 13.4524 15.1375C13.2305 15.3148 13.1013 15.5831 13.1015 15.8667V17.1111C13.0942 17.6266 13.5073 18.0504 14.0241 18.0576C14.5409 18.0649 14.9658 17.653 14.9732 17.1375C14.9733 17.1287 14.9733 17.1199 14.9732 17.1111V16.3236C15.655 15.8045 16.4557 15.2336 17.1762 14.4764C18.0162 13.5938 18.7164 12.4032 18.7164 10.8889C18.7164 8.32262 16.6105 6.22222 14.0373 6.22222ZM14.0373 19.2889C13.3482 19.2889 12.7896 19.846 12.7896 20.5333C12.7896 21.2206 13.3482 21.7778 14.0373 21.7778C14.7265 21.7778 15.2851 21.2206 15.2851 20.5333C15.2851 19.846 14.7265 19.2889 14.0373 19.2889Z" fill="white"/>
</svg>
