<svg width="26" height="22" viewBox="0 0 26 22" fill="none" xmlns="http://www.w3.org/2000/svg">
<path d="M12.7368 22C12.5246 22 12.3123 21.8952 12.2061 21.7905C7.42982 18.8571 3.82105 15.4 1.27368 11.3143C0.424561 10.0571 0 8.69524 0 7.22857V6.6C0 4.92381 0.636842 3.24762 1.91053 2.09524C2.12281 1.88571 2.22895 1.67619 2.44123 1.57143C3.71491 0.52381 5.20088 0 6.89912 0C9.23421 0 11.4632 1.15238 12.7368 2.93333C14.1167 1.15238 16.2395 0 18.5746 0C20.2728 0 21.8649 0.52381 23.1386 1.57143C23.3509 1.67619 23.457 1.88571 23.6693 1.99048C24.8368 3.24762 25.4737 4.81905 25.4737 6.6V7.22857C25.4737 8.69524 25.0491 10.0571 24.2 11.3143C21.6526 15.4 17.9377 18.8571 13.2675 21.7905C13.1614 21.8952 12.9491 22 12.7368 22ZM6.89912 2.09524C5.73158 2.09524 4.67018 2.40952 3.82105 3.14286L3.39649 3.45714C2.54737 4.29524 2.12281 5.44762 2.12281 6.6V7.22857C2.12281 8.38095 2.44123 9.21905 2.97193 10.2667C5.30702 13.8286 8.49123 17.0762 12.7368 19.8C16.8763 17.0762 20.1667 13.9333 22.5018 10.2667C23.1386 9.32381 23.3509 8.38095 23.3509 7.22857V6.6C23.3509 5.44762 22.9263 4.4 22.0772 3.56191L21.6526 3.14286C20.5912 2.2 19.3175 2.09524 18.4684 2.09524C16.5579 2.09524 14.7535 3.24762 13.9044 4.92381L13.6921 5.55238C13.586 5.97143 13.1614 6.28571 12.7368 6.28571C12.3123 6.28571 11.8877 5.97143 11.7816 5.55238L11.5693 4.92381C10.614 3.24762 8.80965 2.09524 6.89912 2.09524Z" fill="#6B6E74"/>
</svg>
