<svg width="20" height="14" viewBox="0 0 20 14" fill="none" xmlns="http://www.w3.org/2000/svg">
<path fill-rule="evenodd" clip-rule="evenodd" d="M18.6018 2.34959H8.26744C7.61549 2.34959 7.08637 1.82328 7.08637 1.17479C7.08637 0.526307 7.61549 0 8.26744 0H18.6018C19.2537 0 19.7828 0.526307 19.7828 1.17479C19.7828 1.82328 19.2537 2.34959 18.6018 2.34959ZM18.6018 8.34959H1.18104C0.529097 8.34959 -2.28882e-05 7.82328 -2.28882e-05 7.17479C-2.28882e-05 6.52631 0.529097 6 1.18104 6H18.6018C19.2537 6 19.7828 6.52631 19.7828 7.17479C19.7828 7.82328 19.2537 8.34959 18.6018 8.34959ZM18.6018 11.6504H1.18104C0.528502 11.6504 -2.28882e-05 12.1767 -2.28882e-05 12.8252C-2.28882e-05 13.4737 0.529097 14 1.18104 14H18.6018C19.2537 14 19.7828 13.4737 19.7828 12.8252C19.7828 12.1767 19.2537 11.6504 18.6018 11.6504Z" fill="#DB5360"/>
</svg>
