<svg width="22" height="22" viewBox="0 0 22 22" fill="none" xmlns="http://www.w3.org/2000/svg">
<path d="M1.35355 0.646447C1.15829 0.451184 0.841709 0.451184 0.646447 0.646447C0.451184 0.841709 0.451184 1.15829 0.646447 1.35355L1.35355 0.646447ZM20.6464 21.3536C20.8417 21.5488 21.1583 21.5488 21.3536 21.3536C21.5488 21.1583 21.5488 20.8417 21.3536 20.6464L20.6464 21.3536ZM21.3536 1.35355C21.5488 1.15829 21.5488 0.841709 21.3536 0.646447C21.1583 0.451184 20.8417 0.451184 20.6464 0.646447L21.3536 1.35355ZM0.646447 20.6464C0.451184 20.8417 0.451184 21.1583 0.646447 21.3536C0.841709 21.5488 1.15829 21.5488 1.35355 21.3536L0.646447 20.6464ZM0.646447 1.35355L20.6464 21.3536L21.3536 20.6464L1.35355 0.646447L0.646447 1.35355ZM20.6464 0.646447L0.646447 20.6464L1.35355 21.3536L21.3536 1.35355L20.6464 0.646447Z" fill="#AAACB0"/>
</svg>
