<svg width="18" height="16" viewBox="0 0 18 16" fill="none" xmlns="http://www.w3.org/2000/svg">
<path d="M17.6909 15.108C17.6802 14.8779 17.6053 14.6388 17.4305 14.4765C17.2556 14.3159 17.0416 14.216 16.7989 14.216H16.6509V1.80106C16.6509 1.6374 16.6522 1.47234 16.6511 1.30841C16.653 1.28297 16.6535 1.25745 16.6526 1.23196C16.6366 0.803795 16.4314 0.405959 16.0586 0.181175C15.8641 0.0634301 15.6465 0.0116938 15.4199 0.00634315C15.3682 0.00455736 15.3164 0.00634315 15.2647 0.00634315H12.0106C11.5165 0.00634315 11.0205 -0.00792894 10.5263 0.00634315C10.2034 0.0152632 9.93584 0.129438 9.69143 0.334599C9.5857 0.425364 9.50003 0.537158 9.43989 0.662857C9.34533 0.864451 9.3043 1.0036 9.29538 1.23374C9.2936 1.29261 9.29538 1.35327 9.29538 1.41214V3.5922H7.87174C7.37757 3.5922 6.88161 3.57793 6.38744 3.5922C6.06454 3.60112 5.79694 3.7153 5.55253 3.92046C5.44679 4.01123 5.36113 4.12302 5.30098 4.24872C5.20643 4.45031 5.1654 4.58947 5.15648 4.8196C5.15469 4.87848 5.15648 4.93913 5.15648 4.998V7.17807H2.26281C1.94617 7.17974 1.64151 7.29931 1.40827 7.51346C1.13531 7.75965 1.02292 8.12002 1.02292 8.47861V14.216H0.892691C0.656729 14.2194 0.430921 14.3125 0.261148 14.4765C0.105939 14.6317 -0.0100205 14.885 0.000685394 15.108C0.0113868 15.3381 0.0863165 15.5772 0.261148 15.7395C0.439549 15.8983 0.653631 16 0.894472 16H16.7989C17.0349 15.9966 17.2607 15.9034 17.4305 15.7395C17.5857 15.5843 17.7016 15.331 17.6909 15.108ZM12.1766 1.785H14.8347C14.846 1.785 14.8573 1.78476 14.8686 1.78466V14.2089H12.5155V5.5167C12.516 5.38241 12.5161 5.24812 12.5157 5.11383C12.5166 5.01974 12.5191 4.92566 12.5156 4.83158C12.5155 4.82698 12.5157 4.82243 12.5155 4.81782C12.514 4.77696 12.5107 4.73641 12.5057 4.69619C12.5046 4.68666 12.5032 4.67716 12.5019 4.66767C12.5013 4.6635 12.5007 4.65933 12.5001 4.65518C12.4985 4.64471 12.4967 4.63428 12.4949 4.62387C12.4942 4.61988 12.4934 4.61592 12.4927 4.61194C12.4909 4.60225 12.4891 4.59256 12.487 4.58293C12.4416 4.35631 12.335 4.14646 12.1788 3.97614C12.1765 3.97365 12.1742 3.97117 12.1719 3.96871C12.1699 3.96649 12.1677 3.9643 12.1656 3.96211C12.0079 3.79194 11.802 3.67407 11.5753 3.62432C11.4237 3.5922 11.2935 3.58864 11.1454 3.58864H11.0794V1.785L12.1766 1.785ZM8.04122 5.37621H10.1348C10.1522 5.37729 10.1697 5.378 10.1874 5.378H10.7297V13.8342C10.7297 13.9597 10.7294 14.0852 10.7287 14.2106H8.37662V9.23325C8.37662 8.96029 8.38018 8.68734 8.37662 8.41617V8.40546C8.37656 8.3782 8.37514 8.35096 8.37236 8.32383C8.36763 8.24667 8.35592 8.17009 8.33737 8.09505C8.28741 7.89625 8.18579 7.7142 8.04281 7.56733C8.04165 7.56604 8.0406 7.5647 8.03944 7.56341C7.96197 7.47801 7.87169 7.40519 7.77184 7.34755C7.66772 7.28568 7.55455 7.24053 7.43644 7.21374C7.32844 7.1912 7.2185 7.17925 7.10818 7.17806H6.94405V5.37621H8.04122ZM3.90232 8.95851H5.95404C5.9854 8.96204 6.01693 8.96382 6.04848 8.96386H6.59082V14.2089H2.80515V9.20649C2.80515 9.12381 2.80445 9.04113 2.80372 8.95851H3.90232Z" fill="#AAACB0"/>
</svg>
