<svg width="25" height="22" viewBox="0 0 25 22" fill="none" xmlns="http://www.w3.org/2000/svg">
<path d="M24.325 20.7735C24.3103 20.4571 24.2073 20.1283 23.9669 19.9051C23.7265 19.6844 23.4321 19.547 23.0985 19.547H22.8949V2.47646C22.8949 2.25143 22.8968 2.02446 22.8953 1.79907C22.8979 1.76409 22.8986 1.729 22.8974 1.69394C22.8753 1.10522 22.5932 0.558194 22.0805 0.249115C21.8132 0.0872164 21.5139 0.0160789 21.2024 0.00872183C21.1312 0.00626636 21.0601 0.00872183 20.9889 0.00872183H16.5146C15.8352 0.00872183 15.1532 -0.0109023 14.4737 0.00872183C14.0297 0.0209869 13.6618 0.177977 13.3257 0.460074C13.1803 0.584876 13.0625 0.738592 12.9798 0.911429C12.8498 1.18862 12.7934 1.37995 12.7811 1.69639C12.7787 1.77734 12.7811 1.86075 12.7811 1.9417V4.93928H10.8236C10.1442 4.93928 9.46222 4.91966 8.78274 4.93928C8.33874 4.95154 7.97079 5.10854 7.63473 5.39063C7.48934 5.51544 7.37155 5.66915 7.28885 5.84199C7.15884 6.11918 7.10242 6.31051 7.09016 6.62695C7.0877 6.7079 7.09016 6.79131 7.09016 6.87226V9.86984H3.11136C2.67599 9.87214 2.25708 10.0366 1.93637 10.331C1.56106 10.6695 1.40652 11.165 1.40652 11.6581V19.547H1.22745C0.903002 19.5517 0.592517 19.6797 0.359079 19.9051C0.145667 20.1185 -0.0137781 20.4669 0.000942417 20.7735C0.0156568 21.0899 0.118685 21.4186 0.359079 21.6419C0.604381 21.8602 0.898742 22 1.2299 22H23.0985C23.423 21.9953 23.7335 21.8672 23.9669 21.6419C24.1803 21.4284 24.3398 21.0801 24.325 20.7735ZM16.7428 2.45438H20.3978C20.4132 2.45438 20.4288 2.45405 20.4444 2.45391V19.5372H17.2088V7.58546C17.2095 7.40081 17.2096 7.21616 17.2091 7.03151C17.2103 6.90215 17.2138 6.77278 17.209 6.64342C17.2088 6.6371 17.2091 6.63084 17.2088 6.6245C17.2067 6.56832 17.2023 6.51257 17.1954 6.45726C17.1938 6.44415 17.1919 6.4311 17.1901 6.41804C17.1892 6.41231 17.1885 6.40658 17.1876 6.40087C17.1854 6.38648 17.183 6.37213 17.1805 6.35782C17.1795 6.35234 17.1785 6.34688 17.1774 6.34142C17.1749 6.32809 17.1725 6.31477 17.1697 6.30152C17.1072 5.98993 16.9607 5.70138 16.7458 5.46719C16.7427 5.46377 16.7396 5.46036 16.7364 5.45697C16.7336 5.45393 16.7307 5.45092 16.7278 5.4479C16.5109 5.21392 16.2277 5.05185 15.9161 4.98343C15.7076 4.93928 15.5285 4.93437 15.3249 4.93437H15.2342V2.45438H16.7428ZM11.0567 7.39229H13.9354C13.9593 7.39377 13.9834 7.39475 14.0077 7.39475H14.7534V19.022C14.7534 19.1946 14.7529 19.3671 14.752 19.5396H11.5178V12.6957C11.5178 12.3204 11.5228 11.9451 11.5178 11.5722V11.5575C11.5178 11.52 11.5158 11.4826 11.512 11.4453C11.5055 11.3392 11.4894 11.2339 11.4639 11.1307C11.3952 10.8573 11.2555 10.607 11.0589 10.4051C11.0573 10.4033 11.0558 10.4015 11.0542 10.3997C10.9477 10.2823 10.8236 10.1821 10.6863 10.1029C10.5431 10.0178 10.3875 9.95573 10.2251 9.9189C10.0766 9.88791 9.92544 9.87148 9.77375 9.86984H9.54807V7.39229H11.0567ZM5.36568 12.3179H8.18681C8.22992 12.3228 8.27328 12.3253 8.31666 12.3253H9.06238V19.5372H3.85708V12.6589C3.85708 12.5452 3.85612 12.4316 3.85511 12.3179H5.36568Z" fill="#6B6E74"/>
</svg>
