<svg width="18" height="11" viewBox="0 0 18 11" fill="none" xmlns="http://www.w3.org/2000/svg">
<path fill-rule="evenodd" clip-rule="evenodd" d="M17.98 5.09372C18.0257 5.32255 17.994 5.60939 17.8737 5.80629C17.8511 5.8457 17.8257 5.88346 17.7977 5.91929C17.7333 6.01395 17.6675 6.10731 17.6004 6.19937C17.1944 6.75238 16.7533 7.27639 16.252 7.74447C15.7469 8.21618 15.1983 8.63919 14.6137 9.0079C13.5015 9.70796 12.236 10.205 10.9415 10.4329C9.49792 10.6856 8.03567 10.6649 6.60448 10.3397C5.91892 10.1843 5.26443 9.94408 4.62236 9.66033C4.05874 9.41103 3.5205 9.10793 3.01512 8.75522C1.88306 7.96679 0.909275 6.97263 0.144465 5.82448C-0.048155 5.53451 -0.048155 5.0685 0.144465 4.77853C0.229382 4.65219 0.316372 4.52792 0.405434 4.40572C0.811386 3.85271 1.25255 3.3287 1.75377 2.86061C2.25895 2.3889 2.80748 1.96589 3.39208 1.59718C4.5043 0.897122 5.7698 0.400036 7.06429 0.172205C8.5079 -0.0804796 9.97015 -0.0597678 11.4013 0.265409C12.0869 0.420748 12.7414 0.661006 13.3835 0.944759C13.9471 1.19405 14.4853 1.49716 14.9907 1.84987C16.0845 2.61146 17.0301 3.56635 17.7809 4.66756C17.8061 4.70056 17.8295 4.73489 17.8509 4.7704L17.8593 4.78267C17.9203 4.87706 17.9613 4.9829 17.98 5.09372ZM12.2953 7.89214C12.9714 7.59577 13.6112 7.22264 14.2021 6.78009C14.7505 6.34319 15.2501 5.84821 15.6921 5.30379C15.2496 4.75934 14.7498 4.26407 14.2014 3.82652C13.6097 3.38346 12.969 3.01 12.2919 2.71352C11.6045 2.43777 10.8875 2.24249 10.1552 2.13159C9.38922 2.03998 8.61508 2.03997 7.84913 2.13156C7.1155 2.24307 6.39718 2.43885 5.70843 2.71502C5.03232 3.01138 4.39253 3.38451 3.80168 3.82707C3.2532 4.26396 2.75363 4.75894 2.3117 5.30336C2.75419 5.84781 3.25396 6.34308 3.8024 6.78063C4.39405 7.22369 5.03475 7.59714 5.71184 7.89362C6.39925 8.16938 7.11627 8.36466 7.84859 8.47556C8.61454 8.56717 9.38867 8.56718 10.1546 8.47559C10.8883 8.36409 11.6066 8.16831 12.2953 7.89214ZM11.4987 3.63533C11.8272 4.09406 11.9906 4.68444 12.0047 5.24552C12.0057 5.26392 12.0062 5.28228 12.0061 5.30056L12.0061 5.30188L12.0061 5.30263L12.006 5.30886C12.0032 5.62948 11.9575 5.96592 11.8445 6.26574C11.7785 6.45316 11.6967 6.63469 11.6001 6.80839C11.5007 6.97823 11.3765 7.13564 11.2522 7.28476C11.0554 7.52502 10.7986 7.728 10.5335 7.88541C10.2642 8.04696 9.95563 8.17537 9.64702 8.23337C9.34877 8.28929 9.04845 8.3245 8.74606 8.28722L8.73688 8.28611C8.55134 8.26369 8.36201 8.24081 8.1827 8.18987C8.00458 8.13809 7.83267 8.06146 7.6649 7.98482C7.15125 7.75078 6.70802 7.31169 6.42013 6.83117C6.12188 6.33616 5.95825 5.70859 6.00796 5.12865C6.03489 4.8304 6.07838 4.53837 6.1923 4.26083C6.19939 4.24373 6.20645 4.22659 6.21353 4.20942C6.27675 4.05612 6.34066 3.90116 6.42634 3.7596C6.52463 3.60484 6.634 3.4574 6.75359 3.31844C7.11604 2.88141 7.65455 2.56038 8.1972 2.40918C8.75849 2.25177 9.41712 2.25591 9.96805 2.46096C10.2415 2.56245 10.5024 2.67844 10.7344 2.85656C10.748 2.86693 10.7616 2.87725 10.7753 2.88757C10.9085 2.98858 11.0402 3.08839 11.1548 3.20866C11.2796 3.34238 11.3945 3.48497 11.4987 3.63533ZM9.57362 6.0417C9.63304 5.98879 9.68933 5.93246 9.74219 5.87299C9.78762 5.80523 9.8289 5.73476 9.8658 5.662C9.89228 5.58417 9.91402 5.50481 9.93089 5.42435C9.93343 5.38409 9.93492 5.3436 9.93492 5.30263C9.93389 5.25971 9.93235 5.21729 9.92982 5.17488C9.913 5.09561 9.89152 5.01739 9.86551 4.94064C9.82862 4.86793 9.78736 4.79753 9.74195 4.72982C9.68903 4.6704 9.6327 4.61412 9.57324 4.56125C9.50547 4.51582 9.43501 4.47454 9.36224 4.43765C9.28555 4.41156 9.20736 4.39008 9.12811 4.37332C9.04438 4.36839 8.96043 4.36837 8.8767 4.37328C8.79689 4.39015 8.71815 4.41174 8.64089 4.43793C8.56819 4.47482 8.49778 4.51609 8.43007 4.5615C8.37065 4.61441 8.31437 4.67074 8.26151 4.7302C8.21607 4.79797 8.1748 4.86843 8.1379 4.9412C8.11182 5.0179 8.09034 5.09609 8.07358 5.17534C8.06864 5.25907 8.06862 5.34302 8.07353 5.42675C8.09041 5.50656 8.112 5.58529 8.13818 5.66255C8.17507 5.73526 8.21634 5.80566 8.26175 5.87337C8.31466 5.9328 8.371 5.98909 8.43046 6.04195C8.49823 6.08738 8.56869 6.12866 8.64145 6.16555C8.71815 6.19164 8.79634 6.21312 8.8756 6.22987C8.95932 6.23481 9.04327 6.23483 9.127 6.22992C9.20681 6.21304 9.28555 6.19145 9.36281 6.16527C9.43551 6.12838 9.50591 6.08711 9.57362 6.0417Z" fill="#6B6E74"/>
</svg>
