<svg width="29" height="28" viewBox="0 0 29 28" fill="none" xmlns="http://www.w3.org/2000/svg">
<path fill-rule="evenodd" clip-rule="evenodd" d="M28.936 14C28.936 6.27941 22.6398 0 14.8987 0C7.15749 0 0.861328 6.27941 0.861328 14C0.861328 21.7206 7.15749 28 14.8987 28C22.6398 28 28.936 21.7206 28.936 14ZM2.616 14C2.616 7.20588 8.08643 1.75 14.8987 1.75C21.6077 1.75 27.0781 7.20588 27.0781 14C27.0781 20.6912 21.6077 26.1471 14.8987 26.1471C8.08643 26.1471 2.616 20.6912 2.616 14ZM18.9239 12.3529H15.5178C15.7036 10.9941 16.0009 9.63529 16.2981 8.27646C16.4963 7.37058 16.6945 6.46469 16.8596 5.55881C16.9628 4.52939 16.1371 4.32351 15.7242 5.24998L10.2538 14.6176C9.84093 15.2353 10.0474 15.6471 10.8731 15.6471H14.176L12.9374 22.4412C12.731 23.3676 13.5567 23.5735 14.0728 22.8529L19.5432 13.3823C19.8529 12.6618 19.6465 12.3529 18.9239 12.3529Z" fill="white"/>
</svg>
