<svg width="32" height="32" viewBox="0 0 32 32" fill="none" xmlns="http://www.w3.org/2000/svg">
<path d="M16 32C24.8366 32 32 24.8366 32 16C32 7.16344 24.8366 0 16 0C7.16344 0 0 7.16344 0 16C0 24.8366 7.16344 32 16 32Z" fill="#1D222B"/>
<path d="M20.0463 11.1313C19.5559 11.1313 19.1583 11.5289 19.1583 12.0193C19.1583 12.5097 19.5559 12.9072 20.0463 12.9072C20.5367 12.9072 20.9343 12.5097 20.9343 12.0193C20.9343 11.5289 20.5367 11.1313 20.0463 11.1313Z" fill="#DB5360"/>
<path d="M16.0986 12.27C14.0419 12.27 12.3685 13.9433 12.3685 16.0001C12.3685 18.0568 14.0419 19.7302 16.0986 19.7302C18.1553 19.7302 19.8286 18.0568 19.8286 16.0001C19.8286 13.9433 18.1553 12.27 16.0986 12.27ZM16.0986 18.3895C14.7811 18.3895 13.7092 17.3176 13.7092 16.0001C13.7092 14.6826 14.7811 13.6107 16.0986 13.6107C17.4161 13.6107 18.4879 14.6826 18.4879 16.0001C18.4879 17.3176 17.4161 18.3895 16.0986 18.3895Z" fill="#DB5360"/>
<path d="M19.0752 8.35059H13.0705C10.5577 8.35059 8.52075 10.3875 8.52075 12.9V18.9053C8.52075 21.4179 10.5577 23.4548 13.0705 23.4548H19.0752C21.588 23.4548 23.625 21.4179 23.625 18.9053V12.9C23.625 10.3875 21.588 8.35059 19.0752 8.35059ZM22.2001 18.9053C22.2001 20.631 20.801 22.0299 19.0752 22.0299H13.0705C11.3447 22.0299 9.9457 20.631 9.9457 18.9053V12.9C9.9457 11.1744 11.3447 9.77548 13.0705 9.77548H19.0752C20.801 9.77548 22.2001 11.1744 22.2001 12.9V18.9053Z" fill="#DB5360"/>
</svg>
