<svg width="17" height="11" viewBox="0 0 17 11" fill="none" xmlns="http://www.w3.org/2000/svg">
<path fill-rule="evenodd" clip-rule="evenodd" d="M15.65 1.26348C15.7625 0.888477 15.65 0.625978 15.125 0.625978H13.375C12.925 0.625978 12.725 0.863478 12.6125 1.12598C12.6125 1.12598 11.725 3.30098 10.4625 4.70098C10.05 5.11348 9.87502 5.23848 9.65002 5.23848C9.53752 5.23848 9.37502 5.11348 9.37502 4.73848V1.26348C9.37502 0.813478 9.25002 0.625978 8.87502 0.625978H6.12502C5.85002 0.625978 5.67502 0.838478 5.67502 1.02598C5.67502 1.45098 6.30002 1.55098 6.37502 2.72598V5.30097C6.37502 5.86347 6.27502 5.96348 6.05002 5.96348C5.46252 5.96348 4.01252 3.78848 3.16252 1.28848C2.98752 0.825978 2.82502 0.625977 2.37502 0.625977H0.625024C0.125025 0.625977 0.0250244 0.863477 0.0250244 1.12598C0.0250244 1.58848 0.612524 3.88848 2.78752 6.92597C4.23752 9.00097 6.27502 10.126 8.12502 10.126C9.23752 10.126 9.37502 9.87597 9.37502 9.45097V7.87597C9.37502 7.37597 9.47502 7.27597 9.83752 7.27597C10.1 7.27597 10.5375 7.40097 11.575 8.40097C12.7625 9.58847 12.9625 10.126 13.625 10.126H15.375C15.875 10.126 16.125 9.87597 15.975 9.38847C15.8125 8.90098 15.25 8.18847 14.5 7.33847C14.0875 6.85097 13.475 6.33848 13.3 6.07598C13.0375 5.73848 13.1125 5.58848 13.3 5.30098C13.3 5.28848 15.4375 2.28848 15.65 1.26348L15.65 1.26348Z" fill="#DB5360"/>
</svg>
