<svg width="34" height="28" viewBox="0 0 34 28" fill="none" xmlns="http://www.w3.org/2000/svg">
<path d="M12.1306 17.9515C13.9447 17.9515 15.439 16.4926 15.439 14.7216C15.439 12.9505 13.9447 11.4917 12.1306 11.4917C10.3165 11.4917 8.82227 12.9505 8.82227 14.7216C8.82227 16.4926 10.3165 17.9515 12.1306 17.9515ZM12.1306 13.6449C12.7527 13.6449 13.2334 14.1142 13.2334 14.7216C13.2334 15.3289 12.7527 15.7982 12.1306 15.7982C11.5085 15.7982 11.0278 15.3289 11.0278 14.7216C11.0278 14.1142 11.5085 13.6449 12.1306 13.6449Z" fill="white"/>
<path d="M32.2744 6.14406C32.2722 6.14349 32.2701 6.14292 32.2679 6.14235L9.47704 0.0415131C9.33532 0.00192163 9.18688 -0.00949351 9.04053 0.00788114C8.60768 0.0674546 8.25173 0.370975 8.13303 0.781701L6.24911 7.18535H1.10279C1.06453 7.1834 1.02618 7.1834 0.987921 7.18535C0.42416 7.24304 -0.00301325 7.70857 1.60107e-05 8.26197V16.1268V16.1572V17.0416V26.9234C8.33261e-05 27.518 0.493766 28 1.10279 28H24.6288C25.2379 28 25.7316 27.518 25.7316 26.9234V26.2954L26.5357 26.5196C27.1214 26.6831 27.7318 26.3521 27.8993 25.7803C27.9004 25.7763 27.9016 25.7723 27.9027 25.7682L33.049 7.46569C33.2089 6.89189 32.8621 6.30017 32.2744 6.14406ZM2.20558 25.8468V22.9197L7.46677 20.3515V20.3515L12.5786 25.8468H2.20558ZM23.526 25.8468H15.5653L12.728 22.7964L18.4831 19.9927L23.526 25.5328V25.8468ZM23.526 22.2917L19.5744 17.9516C19.3509 17.7067 19.0253 17.5745 18.6899 17.5927C18.538 17.6003 18.3894 17.6385 18.2534 17.7049L11.1887 21.1478L8.53509 18.2992C8.30945 18.0585 7.98412 17.9306 7.65057 17.9516C7.5026 17.9607 7.35805 17.9988 7.22555 18.0637L2.20558 20.5086V17.0721C2.20571 17.0619 2.20571 17.0518 2.20558 17.0416V16.1572V9.33859H23.526V22.2917ZM26.0647 24.1421L25.7316 24.0524V8.26197C25.7316 7.6674 25.2379 7.18542 24.6288 7.18535H8.54658L9.94802 2.39665L9.94804 2.39663L30.6252 7.92552L26.0647 24.1421Z" fill="white"/>
</svg>
