<svg width="20" height="20" viewBox="0 0 20 20" fill="none" xmlns="http://www.w3.org/2000/svg">
<path d="M8 0.952978C8 1.47929 7.55229 1.90596 7 1.90596H2V6.67085C2 7.19716 1.55228 7.62383 1 7.62383C0.447715 7.62383 0 7.19716 0 6.67085V0.952978C0 0.426663 0.447715 0 1 0H7C7.55229 0 8 0.426663 8 0.952978ZM19 11.4357C18.4477 11.4357 18 11.8624 18 12.3887V17.1536H13C12.4477 17.1536 12 17.5803 12 18.1066C12 18.6329 12.4477 19.0596 13 19.0596H19C19.5523 19.0596 20 18.6329 20 18.1066V12.3887C20 11.8624 19.5523 11.4357 19 11.4357ZM19 0H13C12.4477 0 12 0.426663 12 0.952978C12 1.47929 12.4477 1.90596 13 1.90596H18V6.67085C18 7.19716 18.4477 7.62383 19 7.62383C19.5523 7.62383 20 7.19716 20 6.67085V0.952978C20 0.426663 19.5523 0 19 0ZM7 17.1536H2V12.3887C2 11.8624 1.55228 11.4357 1 11.4357C0.447715 11.4357 0 11.8624 0 12.3887V18.1066C0 18.6329 0.447715 19.0596 1 19.0596H7C7.55229 19.0596 8 18.6329 8 18.1066C8 17.5803 7.55229 17.1536 7 17.1536Z" fill="#DB5360"/>
</svg>
