<svg width="16" height="16" viewBox="0 0 16 16" fill="none" xmlns="http://www.w3.org/2000/svg">
<path fill-rule="evenodd" clip-rule="evenodd" d="M15.1957 14.5832L11.4153 10.8229C12.4121 9.67522 13.0159 8.17455 13.0159 6.53235C13.0159 2.92463 10.1022 0 6.50793 0C2.9137 0 0 2.92463 0 6.53235C0 10.1401 2.9137 13.0647 6.50793 13.0647C7.86631 13.0647 9.12748 12.647 10.1709 11.9325L14.0157 15.7569C14.3416 16.081 14.8699 16.081 15.1957 15.7569C15.5215 15.4328 15.5215 14.9073 15.1957 14.5832ZM11.3472 6.53228C11.3472 9.21494 9.18057 11.3897 6.50793 11.3897C3.8353 11.3897 1.6687 9.21494 1.6687 6.53228C1.6687 3.84962 3.8353 1.67489 6.50793 1.67489C9.18057 1.67489 11.3472 3.84962 11.3472 6.53228Z" fill="#AAACB0"/>
</svg>
