<!-- Generated by IcoMoon.io -->
<svg version="1.1" xmlns="http://www.w3.org/2000/svg" width="1024" height="1024" viewBox="0 0 1024 1024">
<title></title>
<g id="icomoon-ignore">
</g>
<path d="M511.999 174.544c-25.6 0-46.545-20.945-46.545-46.545v-81.454c0-25.6 20.945-46.545 46.545-46.545s46.545 20.945 46.545 46.545v81.454c0 25.6-20.945 46.545-46.545 46.545zM977.448 558.551h-81.451c-25.6 0-46.548-20.946-46.548-46.546s20.948-46.545 46.548-46.545h81.451c25.6 0 46.548 20.945 46.548 46.545s-20.948 46.546-46.548 46.546zM150.108 873.875c9.309 9.311 20.945 13.963 32.581 13.963s24.436-4.652 33.745-13.963l57.019-57.022c18.619-18.615 18.619-47.704 0-66.325-18.618-18.615-47.709-18.615-66.326 0l-57.018 57.022c-18.619 18.615-18.619 47.704 0 66.325zM841.308 887.838c-11.637 0-23.267-4.652-32.578-13.963l-57.022-57.022c-18.615-18.615-18.615-47.704 0-66.325 18.622-18.615 47.711-18.615 66.332 0l57.015 57.022c18.615 18.615 18.615 47.704 0 66.325-10.474 9.311-22.111 13.963-33.748 13.963zM465.453 977.459c0 25.6 20.945 46.541 46.545 46.541s46.545-20.941 46.545-46.541v-81.458c0-25.6-20.945-46.541-46.545-46.541s-46.545 20.941-46.545 46.541v81.458zM783.124 287.414c-11.637 0-23.274-4.655-32.585-13.964-18.615-18.618-18.615-47.709 0-66.326l57.022-57.018c18.615-18.619 47.704-18.619 66.325 0 18.615 18.618 18.615 47.709 0 66.326l-57.022 57.018c-9.304 9.309-20.941 13.964-33.741 13.964zM208.296 273.45c9.31 9.309 20.946 13.964 32.582 13.964s23.273-4.655 33.745-13.964c18.619-18.618 18.619-47.709 0-66.326l-57.018-57.018c-18.619-18.619-47.71-18.619-66.326 0s-18.619 47.709 0 66.326l57.018 57.018zM128.003 558.551h-81.454c-25.6 0-46.545-20.946-46.545-46.546s20.945-46.545 46.545-46.545h81.454c25.6 0 46.545 20.945 46.545 46.545s-20.945 46.546-46.545 46.546zM635.341 388.645c-32.582-32.582-76.799-51.2-123.345-51.2s-90.763 18.618-123.344 51.2c-32.582 32.581-51.2 76.799-51.2 123.344s18.618 90.763 51.2 123.345c32.581 32.581 76.799 51.2 123.344 51.2s90.763-18.619 123.345-51.2c32.581-32.582 51.2-76.799 51.2-123.345s-18.619-90.763-51.2-123.344zM322.324 322.318c48.873-47.709 115.199-77.963 189.672-77.963 73.308 0 140.799 30.255 189.672 77.963 47.71 48.873 77.961 115.199 77.961 189.672 0 73.308-30.252 140.799-77.961 189.672-48.873 47.712-116.363 77.963-189.672 77.963-74.472 0-140.799-30.252-189.672-77.963-47.709-48.873-77.963-116.363-77.963-189.672 0-74.472 30.255-140.799 77.963-189.672z"></path>
</svg>
