<svg width="20" height="18" viewBox="0 0 20 18" fill="none" xmlns="http://www.w3.org/2000/svg">
<path fill-rule="evenodd" clip-rule="evenodd" d="M1.19802 1.19802C2.85455 -0.399341 5.51683 -0.399341 7.11419 1.19802C8.71156 2.85455 8.71156 5.51683 7.11419 7.11419C6.28593 7.94246 5.28018 8.35659 4.15611 8.35659C3.03204 8.35659 1.96713 7.88329 1.19802 7.11419C-0.399341 5.45767 -0.399341 2.79539 1.19802 1.19802ZM4.09695 6.16761C4.6294 6.16761 5.1027 5.93096 5.45767 5.57599C6.22677 4.80689 6.22677 3.56449 5.45767 2.79539C5.1027 2.38126 4.57024 2.20377 4.09695 2.20377C3.62365 2.20377 3.0912 2.44042 2.73623 2.79539C1.96713 3.56449 1.96713 4.80689 2.73623 5.57599C3.0912 5.99012 3.56449 6.16761 4.09695 6.16761ZM1.553 15.456L16.1068 0.902216C16.5209 0.488084 17.2308 0.488084 17.645 0.902216C18.0591 1.31635 18.0591 2.02629 17.645 2.44042L3.0912 16.9942C2.85455 17.2308 2.61791 17.29 2.3221 17.29C2.02629 17.29 1.73048 17.1717 1.553 16.9942C1.13887 16.5801 1.13887 15.8701 1.553 15.456ZM18.0591 10.8414C16.4026 9.18491 13.7403 9.18491 12.1429 10.8414C10.5456 12.4388 10.5456 15.1011 12.1429 16.7576C12.9712 17.5859 14.0361 18 15.101 18C16.1659 18 17.2308 17.5859 18.0591 16.7576C19.6565 15.1602 19.6565 12.498 18.0591 10.8414ZM16.4617 15.1602C15.6926 15.9293 14.4502 15.9293 13.6811 15.1602C12.912 14.3911 12.912 13.1487 13.6811 12.3796C14.4502 11.6105 15.6926 11.6105 16.4617 12.3796C17.2308 13.1487 17.2308 14.3911 16.4617 15.1602Z" fill="#DB5360"/>
</svg>
