<svg width="16" height="16" viewBox="0 0 16 16" fill="none" xmlns="http://www.w3.org/2000/svg">
<path fill-rule="evenodd" clip-rule="evenodd" d="M15.2377 16C15.1217 16 15.0049 15.974 14.897 15.9196L11.8078 14.375C11.7944 14.3825 11.781 14.3899 11.7676 14.3966C10.7207 14.9167 8.79965 15.2381 7.61887 15.2381C3.4177 15.2381 0 11.82 0 7.61887C0 3.4177 3.4177 0 7.61887 0C11.8197 0 15.2377 3.4177 15.2377 7.61887C15.2377 8.70069 15.0168 9.74159 14.5815 10.7185L15.9632 15.0045C16.0569 15.2961 15.9669 15.6161 15.734 15.8162C15.5926 15.9375 15.4163 16 15.2377 16ZM9.14339 11.4287C9.25797 11.4287 9.37404 11.4547 9.48341 11.509L13.9558 13.7456L13.0384 10.9C12.9774 10.7111 12.993 10.5057 13.0815 10.3279C13.5012 9.48155 13.714 8.57011 13.714 7.61887C13.714 4.25809 10.9797 1.52377 7.61887 1.52377C4.25809 1.52377 1.52377 4.25809 1.52377 7.61887C1.52377 10.98 4.25809 13.7143 7.61887 13.7143C8.23567 13.7143 9.12628 13.6012 9.90007 13.4212L8.80188 12.8721C8.4254 12.6839 8.27287 12.2263 8.46111 11.8498C8.59504 11.5827 8.86363 11.4287 9.14339 11.4287ZM10.6664 6.09506H6.85698C6.43623 6.09506 6.09509 5.75393 6.09509 5.33318C6.09509 4.91243 6.43623 4.57129 6.85698 4.57129H10.6664C11.0875 4.57129 11.4283 4.91243 11.4283 5.33318C11.4283 5.75393 11.0875 6.09506 10.6664 6.09506ZM4.57121 9.14243H10.6663C11.0874 9.14243 11.4282 8.80129 11.4282 8.38054C11.4282 7.95979 11.0874 7.61865 10.6663 7.61865H4.57121C4.15046 7.61865 3.80933 7.95979 3.80933 8.38054C3.80933 8.80129 4.15046 9.14243 4.57121 9.14243Z" fill="#6B6E74"/>
</svg>
