<svg width="24" height="24" viewBox="0 0 24 24" fill="none" xmlns="http://www.w3.org/2000/svg">
<path fill-rule="evenodd" clip-rule="evenodd" d="M0.705879 0H10.5882C10.9835 0 11.2941 0.307492 11.2941 0.698845V10.4827C11.2941 10.874 10.9835 11.1815 10.5882 11.1815H0.705879C0.310587 11.1815 0 10.874 0 10.4827V0.698845C0 0.307492 0.310587 0 0.705879 0ZM1.41176 9.78383H9.88231V1.39769H1.41176V9.78383ZM0.705879 12.579H10.5882C10.9835 12.579 11.2941 12.8865 11.2941 13.2779V23.0617C11.2941 23.453 10.9835 23.7605 10.5882 23.7605H0.705879C0.310587 23.7605 0 23.453 0 23.0617V13.2779C0 12.8865 0.310587 12.579 0.705879 12.579ZM1.41176 22.3628H9.88231V13.9767H1.41176V22.3628ZM23.2942 0H13.4119C13.0166 0 12.7061 0.307492 12.7061 0.698845V10.4827C12.7061 10.874 13.0166 11.1815 13.4119 11.1815H23.2942C23.6895 11.1815 24.0001 10.874 24.0001 10.4827V0.698845C24.0001 0.307492 23.6895 0 23.2942 0ZM22.5884 9.78383H14.1178V1.39769H22.5884V9.78383ZM13.4119 12.579H23.2942C23.6895 12.579 24.0001 12.8865 24.0001 13.2779V23.0617C24.0001 23.453 23.6895 23.7605 23.2942 23.7605H13.4119C13.0166 23.7605 12.7061 23.453 12.7061 23.0617V13.2779C12.7061 12.8865 13.0166 12.579 13.4119 12.579ZM14.1178 22.3628H22.5884V13.9767H14.1178V22.3628Z" fill="#AAACB0"/>
</svg>
