<svg width="24" height="24" viewBox="0 0 24 24" fill="none" xmlns="http://www.w3.org/2000/svg">
<path fill-rule="evenodd" clip-rule="evenodd" d="M0.705882 0H23.2941C23.6894 0 24 0.307492 24 0.698845V10.4827C24 10.874 23.6894 11.1815 23.2941 11.1815H0.705882C0.310588 11.1815 0 10.874 0 10.4827V0.698845C0 0.307492 0.310588 0 0.705882 0ZM1.41176 9.78383H22.5882V1.39769H1.41176V9.78383ZM0.705882 12.579H23.2941C23.6894 12.579 24 12.8865 24 13.2779V23.0617C24 23.453 23.6894 23.7605 23.2941 23.7605H0.705882C0.310588 23.7605 0 23.453 0 23.0617V13.2779C0 12.8865 0.310588 12.579 0.705882 12.579ZM1.41176 22.3628H22.5882V13.9767H1.41176V22.3628Z" fill="#AAACB0"/>
</svg>
