<svg width="8" height="8" viewBox="0 0 8 8" fill="none" xmlns="http://www.w3.org/2000/svg">
<path d="M7.79828 0.201708C7.52934 -0.0672429 7.0933 -0.0672292 6.82437 0.201708L3.99999 3.02608L1.17563 0.201717C0.906688 -0.0672208 0.470656 -0.0672345 0.201707 0.201717C-0.0672398 0.470668 -0.0672316 0.906703 0.201707 1.17564L3.02607 4L0.201717 6.82436C-0.0672205 7.09329 -0.0672301 7.52933 0.201717 7.79828C0.470665 8.06723 0.906699 8.06722 1.17564 7.79828L3.99999 4.97391L6.82436 7.7983C7.09329 8.06723 7.52933 8.06723 7.79827 7.7983C8.06722 7.52935 8.06721 7.0933 7.79828 6.82437L4.97391 4L7.79828 1.17563C8.06722 0.906695 8.06723 0.470659 7.79828 0.201708Z" fill="#DB5360"/>
</svg>
