<svg width="22" height="16" viewBox="0 0 22 16" fill="none" xmlns="http://www.w3.org/2000/svg">
<path d="M7.19535 15.7097C7.48173 16.05 7.96638 16.0954 8.29681 15.8232C8.62725 15.5509 8.67131 15.0292 8.40696 14.6889C8.38493 14.6435 8.34087 14.6208 8.29682 14.5755L2.67937 8.79065L21.25 8.79065C21.6906 8.76796 22.021 8.38231 21.999 7.95128C21.9769 7.54294 21.6685 7.20266 21.25 7.17998L2.67937 7.17997L8.29682 1.37248C8.5832 1.05488 8.5832 0.555795 8.29682 0.238197C7.98841 -0.0794003 7.50376 -0.0794004 7.19536 0.238197L0.234137 7.40683C-0.0742714 7.70174 -0.0742715 8.20082 0.212107 8.51842L0.234137 8.54111L7.19535 15.7097Z" fill="#6B6E74"/>
</svg>
