<svg width="22" height="22" viewBox="0 0 22 22" fill="none" xmlns="http://www.w3.org/2000/svg">
<path fill-rule="evenodd" clip-rule="evenodd" d="M11.8049 3.66892V13.9528C11.8049 14.5446 11.3285 15.0244 10.7317 15.0244C10.139 15.0244 9.65854 14.5442 9.65854 13.9528V3.66545L8.44643 4.87755C8.0312 5.29279 7.35776 5.29257 6.93574 4.87055C6.51664 4.45145 6.51911 3.76949 6.92874 3.35986L9.97812 0.310477C10.1846 0.104008 10.4549 0.000254363 10.7264 0L10.7346 0.0032038C11.0071 0.00378522 11.2781 0.106801 11.4818 0.310477L14.5312 3.35986C14.9464 3.77509 14.9462 4.44853 14.5242 4.87055C14.1051 5.28965 13.4231 5.28718 13.0135 4.87755L11.8049 3.66892ZM2.14634 19.8537H19.3171V12.3365C19.3171 11.7466 19.7934 11.2683 20.3902 11.2683C20.9829 11.2683 21.4634 11.7503 21.4634 12.3365V20.9318C21.4634 21.2265 21.3445 21.4934 21.1511 21.6867C20.9548 21.8805 20.6875 22 20.3917 22H1.07172C0.776587 22 0.50932 21.8816 0.315505 21.6888C0.119922 21.4915 0 21.2247 0 20.9318V12.3365C0 11.7466 0.476343 11.2683 1.07317 11.2683C1.66587 11.2683 2.14634 11.7503 2.14634 12.3365V19.8537Z" fill="#6B6E74"/>
</svg>
