<svg width="6" height="12" viewBox="0 0 6 12" fill="none" xmlns="http://www.w3.org/2000/svg">
<path d="M5.99531 5.9333C5.97059 5.78504 5.92115 5.63678 5.82227 5.51323L1.37242 0.324097C1.14993 -0.0218444 0.680223 -0.0959563 0.334124 0.126435C-0.0119744 0.348825 -0.0861383 0.818305 0.136354 1.16425C0.161075 1.21367 0.210517 1.26309 0.235239 1.2878L4.26482 6.00743L0.235239 10.727C-0.0614167 10.9989 -0.0861373 11.4684 0.210519 11.7649C0.507175 12.0614 0.952159 12.0861 1.24882 11.7896C1.29826 11.7402 1.32298 11.7154 1.3477 11.666L5.79754 6.47691C5.94587 6.32865 6.02004 6.13098 5.99531 5.9333Z" fill="#6B6E74"/>
</svg>
