<svg width="22" height="16" viewBox="0 0 22 16" fill="none" xmlns="http://www.w3.org/2000/svg">
<path d="M14.8046 0.290259C14.5183 -0.0500246 14.0336 -0.0953957 13.7032 0.176831C13.3727 0.449057 13.3287 0.970825 13.593 1.31111C13.6151 1.35648 13.6591 1.37916 13.7032 1.42454L19.3206 7.20935H0.750032C0.309449 7.23204 -0.020989 7.61769 0.00104013 8.04872C0.0230693 8.45706 0.331478 8.79734 0.750032 8.82002H19.3206L13.7032 14.6275C13.4168 14.9451 13.4168 15.4442 13.7032 15.7618C14.0116 16.0794 14.4962 16.0794 14.8046 15.7618L21.7659 8.59317C22.0743 8.29826 22.0743 7.79917 21.7879 7.48158L21.7659 7.45889L14.8046 0.290259Z" fill="white"/>
</svg>
