<svg width="8" height="16" viewBox="0 0 8 16" fill="none" xmlns="http://www.w3.org/2000/svg">
<path fill-rule="evenodd" clip-rule="evenodd" d="M2.11816 8.05655V15.0116C2.11816 15.1116 2.19923 15.1927 2.29931 15.1927H4.88207C4.98209 15.1927 5.06322 15.1116 5.06322 15.0116V7.94324H6.93563C7.02977 7.94324 7.10816 7.87118 7.11612 7.7774L7.29621 5.64771C7.30514 5.54201 7.22178 5.45126 7.11568 5.45126H5.06322V3.9403C5.06322 3.58618 5.35028 3.29911 5.7044 3.29911H7.14747C7.24754 3.29911 7.32866 3.21799 7.32866 3.11796V0.988277C7.32866 0.88825 7.24754 0.807129 7.14747 0.807129H4.70905C3.27816 0.807129 2.11816 1.96714 2.11816 3.39808V5.45126H0.826777C0.726706 5.45126 0.64563 5.53238 0.64563 5.63245V7.76214C0.64563 7.86217 0.726706 7.94324 0.826777 7.94324H2.11816V8.05655Z" fill="#DB5360"/>
</svg>
