<svg aria-hidden="true" style="position: absolute; width: 0; height: 0; overflow: hidden;" version="1.1" xmlns="http://www.w3.org/2000/svg"
     xmlns:xlink="http://www.w3.org/1999/xlink">
  <defs>
    <symbol id="icon-white-meat" viewBox="0 0 32 32">
      <path
        d="M25.477 4.716c-2.573-1.656-5.965-2.534-9.43-2.534v0c-3.75 0-7.141 0.709-9.663 2.386-2.519 1.676-4.101 4.369-4.105 7.989-0.046 4.166 0.811 7.616 2.372 10.58 1.46 2.695 3.485 4.5 5.767 4.5 3.728 0 6.582-2.775 8.767-5.466 1.661-1.8 2.553-3.99 4.488-5.489 1.010-0.329 2.435-0.505 3.709-1.079s2.401-1.747 2.43-3.648c-0.047-3.232-2.117-5.764-4.337-7.239zM16.047 3.636c3.205 0 6.334 0.834 8.605 2.295 1.659 1.067 2.86 2.434 3.384 4.080l-13.802-6.307c0.591-0.042 1.193-0.068 1.814-0.068zM12.582 25.761l-5.57-1.693c-0.392-0.549-0.776-1.117-1.046-1.614-0.38-0.701-0.725-1.49-1.023-2.352v-0l10.907 3.523c-1.011 0.935-2.103 1.693-3.267 2.136zM16.989 22.466l-12.547-4.068c-0.187-0.755-0.341-1.555-0.454-2.386l14.395 4.795c-0.449 0.569-0.951 1.171-1.395 1.659zM19.314 19.58l-15.488-5.159c-0.041-0.603-0.062-1.222-0.058-1.852 0-0.327 0.009-0.638 0.035-0.943v-0l16.86 6.136c-0.422 0.561-0.87 1.172-1.349 1.818zM23.21 15.307c-0.647 0.211-1.131 0.655-1.616 1.239l-17.546-6.386c0.316-1.249 0.895-2.28 1.686-3.136l18.872 7.909c-0.468 0.114-0.939 0.226-1.395 0.375zM26.675 14.318c-6.323-2.848-13.189-5.621-19.733-8.364 1.462-0.829 3.072-1.55 4.581-1.886l16.802 7.682c-0.064 1.084-0.818 2.175-1.651 2.568z"></path>
      <path
        d="M26.965 2.932c-2.988-1.915-6.928-2.932-10.965-2.932-4.376 0-8.332 0.824-11.256 2.761s-4.744 5.040-4.744 9.239c0 5.365 1.031 10.279 2.919 13.921s4.731 6.079 8.244 6.079c4.56 0 7.505-2.575 9.477-5.114 0.986-1.269 1.753-2.544 2.395-3.511s1.249-1.559 1.384-1.602c2.867-0.755 4.828-1.933 6.012-3.693 1.191-1.771 1.57-4.015 1.57-6.807 0-3.542-2.047-6.426-5.035-8.341zM29.198 17.273c-0.949 1.411-2.51 2.413-5.198 3.114-1.079 0.448-1.715 1.46-2.209 2.204-0.671 1.010-1.416 2.235-2.337 3.42-1.842 2.371-4.292 4.534-8.291 4.534-2.813 0-5.178-1.926-6.919-5.284s-2.756-8.080-2.756-13.261c0-3.802 1.528-6.335 4.093-8.034s6.237-2.511 10.419-2.511c3.777 0 7.465 0.972 10.151 2.693s4.361 4.122 4.361 7.125c0 2.663-0.365 4.589-1.314 6z"></path>
    </symbol>
    <symbol id="icon-soup" viewBox="0 0 31 32">
      <path
        d="M19 10.5c-0.972 1.061 0.69 2.502 1.662 1.44 2.313-2.528 1.396-3.891 0.521-5.18-0.39-0.575-0.759-1.13 0.515-2.275 1.068-0.956-0.43-2.544-1.504-1.582-2.655 2.392-1.785 3.686-0.866 5.041 0.415 0.615 0.851 1.267-0.328 2.556z"></path>
      <path
        d="M14.119 7.895c-0.973 1.062 0.69 2.502 1.661 1.44 2.313-2.527 1.398-3.891 0.522-5.18-0.391-0.575-0.757-1.13 0.515-2.274 1.067-0.957-0.43-2.546-1.505-1.584-2.654 2.392-1.785 3.686-0.866 5.041 0.415 0.615 0.851 1.267-0.327 2.556z"></path>
      <path
        d="M30.724 14.096c-10.222 0-20.445 0-30.667 0v4.335c0 2.453 2.904 5.974 4.899 8.104h-2.326v2.482c0 1.64 1.38 2.983 3.067 2.983h19.388c1.683 0 3.067-1.347 3.067-2.983v-2.482h-2.33c1.997-2.13 4.901-5.651 4.901-8.104v-4.335zM25.922 28.704c0 0.546-0.112 1.127-0.837 1.127h-19.388c-0.726 0-0.838-0.577-0.838-1.127 7.023 0 14.042 0 21.063 0zM22.738 26.535h-14.696c-1.098-1.062-4.559-4.537-5.511-6.994h25.717c-0.952 2.457-4.414 5.932-5.51 6.994zM28.493 17.371h-26.205v-1.106h26.205v1.106z"></path>
      <path
        d="M9.24 10.5c-0.972 1.061 0.691 2.502 1.661 1.44 2.313-2.528 1.397-3.891 0.521-5.18-0.389-0.575-0.757-1.13 0.516-2.275 1.068-0.956-0.431-2.544-1.505-1.582v0c-2.654 2.392-1.785 3.686-0.867 5.041 0.416 0.615 0.852 1.267-0.327 2.556z"></path>
    </symbol>
    <symbol id="icon-seafood" viewBox="0 0 36 32">
      <path
        d="M14.58 6.556c-0.148 0-0.371 0.074-0.519 0.148-0.519 0.297-0.668 0.89-0.371 1.409 0.148 0.297 0.519 0.519 0.89 0.519 0.148 0 0.371-0.074 0.519-0.148 0.519-0.297 0.668-0.89 0.371-1.409-0.148-0.371-0.519-0.519-0.89-0.519z"></path>
      <path
        d="M30.083 2.105c-1.039 0-2.225 0.371-3.338 1.039-0.445 0.223-0.594 0.816-0.371 1.261s0.816 0.593 1.261 0.371c0.89-0.519 1.706-0.742 2.448-0.742 2.151 0 3.412 1.409 3.412 3.857 0 2.671-1.855 4.303-5.044 4.303-0.964 0-1.929-0.223-2.893-0.445-1.409-0.297-2.819-0.593-4.525-0.445 0.668-0.89 1.187-1.855 1.484-2.893 0.519-2.448 0-5.044-1.632-7.937-0.222-0.445-0.816-0.593-1.261-0.371l-12.462 7.196c0 0 0 0-0.074 0-0.148 0.074-0.371 0.223-0.519 0.297-2.745 1.855-4.748 4.599-5.638 7.789-0.742 2.819-0.519 5.786 0.519 8.457 0 0 0 0.074 0.074 0.074 0.223 0.519 0.445 1.039 0.742 1.484 0.89 1.558 2.077 2.893 3.487 3.932l0.074 0.074c2.225 1.706 5.044 2.596 7.937 2.596 1.038 0 2.077-0.148 3.041-0.371 0.074 0 0.074 0 0.148 0 1.187-0.297 2.374-0.742 3.412-1.409 8.605-4.97 6.528-14.391 6.528-14.465-0.074-0.371-0.445-0.668-0.89-0.668-6.157 0-7.789 3.412-7.789 5.415 0 1.929 0.964 3.338 1.78 4.228-0.742 0.297-1.558 0.519-2.448 0.519-1.706 0-3.116-0.89-4.080-2.67-0.964-1.632-1.113-3.19-0.445-4.525 0.668-1.409 2.003-2.374 2.967-2.967l1.187-0.668c3.264-1.929 5.564-1.41 7.937-0.89 1.038 0.223 2.151 0.445 3.338 0.445 4.228 0 6.899-2.448 6.899-6.157 0-3.412-2.151-5.712-5.267-5.712zM18.66 27.030c1.409-0.223 2.596-0.742 3.486-1.261 0.297-0.148 0.445-0.445 0.445-0.816 0-0.297-0.148-0.668-0.445-0.816-0.074-0.074-2.077-1.261-2.077-3.635 0-2.745 3.561-3.338 5.193-3.487 0.223 2.151 0.297 8.16-5.712 11.646-0.297 0.222-0.668 0.371-1.039 0.519 0.148-0.668 0.223-1.41 0.148-2.151zM2.711 15.903c0.297-1.261 0.89-2.374 1.558-3.412 0.074 0.816 0.297 1.706 0.816 2.448 0.742 1.261 1.854 2.151 3.116 2.596 0.519 0.148 1.039 0.297 1.632 0.297 0.445 0 0.89-0.074 1.335-0.148-0.297 0.816-0.519 1.855-0.371 3.116-0.593 0.519-1.335 1.038-2.077 1.484-2.151 1.261-4.006 1.484-5.564 0.742-0.89-2.374-1.039-4.822-0.445-7.121zM14.431 26.288c0.816 0.445 1.632 0.742 2.3 0.816 0.074 1.113-0.148 2.077-0.668 2.893-0.742 0.148-1.558 0.223-2.374 0.223-1.558 0-3.116-0.371-4.525-0.964 0.816-0.297 1.78-0.668 2.745-1.261 1.039-0.519 1.855-1.113 2.522-1.706zM13.022 25.101c-0.519 0.445-1.187 0.89-1.929 1.335-2.151 1.261-3.486 1.409-4.303 1.335-0.964-0.742-1.78-1.632-2.448-2.67 0.223 0 0.445 0.074 0.668 0.074 1.484 0 3.041-0.445 4.673-1.41 0.593-0.371 1.187-0.742 1.706-1.187 0.148 0.297 0.297 0.593 0.445 0.89 0.371 0.668 0.742 1.187 1.187 1.632zM20.663 7.891c-0.519 1.855-2.003 3.486-4.451 4.896l-1.187 0.668c-0.148 0.074-0.371 0.222-0.519 0.297h-0.074l-2.67 1.558c-1.039 0.593-2.003 0.742-2.967 0.371-0.816-0.297-1.558-0.89-2.077-1.78s-0.668-1.78-0.519-2.671c0.223-0.964 0.816-1.78 1.855-2.374l11.646-6.75c1.038 2.225 1.409 4.080 0.964 5.786z"></path>
    </symbol>
    <symbol id="icon-fish" viewBox="0 0 42 32">
      <path
        d="M40.4 16.012l-0.787-0.466c-3.732-2.235-7.216-4.938-10.38-8.056l-3.46-3.391c-3.385-3.414-8.067-4.812-12.56-3.752l-7.396 1.767c-1.502 0.386-2.77 1.486-3.46 3.002l-2.076 4.455c-0.168 0.361-0.233 0.759-0.201 1.147-0.047 0.117-0.076 0.246-0.076 0.382v1.985c-0.006 2.627 1.542 4.954 3.823 5.747l33.077 13.109c0.013 0.005 0.027 0.003 0.040 0.008 0.082 0.029 0.166 0.049 0.254 0.049 0.1-0.001 0.198-0.027 0.291-0.064 0.039-0.016 0.074-0.036 0.11-0.058 0.025-0.015 0.052-0.022 0.075-0.039 2.375-1.576 3.887-4.338 4.039-7.381v-5.442c0.158-1.173-0.328-2.38-1.315-3.004zM16.172 1.896h0.009c0.243 0.001 0.484 0.024 0.725 0.041 0.398 1.206 1.389 3.178 3.539 6.589 1.832 2.877 3.76 5.678 5.771 8.406-0.322-0.303-0.654-0.59-0.97-0.901l-3.46-3.391c-0.853-0.861-1.788-1.592-2.782-2.19-2.288-3.393-4.212-6.551-4.974-8.335 0.708-0.136 1.423-0.22 2.142-0.219zM12.333 2.492c0.494 1.22 1.481 3.083 3.346 6.044 0.122 0.195 0.252 0.396 0.38 0.595-1.015-0.315-2.061-0.503-3.12-0.564-1.153-1.754-2.217-3.576-3.189-5.458l2.582-0.617zM6.199 3.957l1.837-0.439c0.839 1.736 1.779 3.412 2.825 5.008l0.050 0.078c-0.563 0.057-1.125 0.151-1.685 0.283l-0.697 0.167c-1.044-1.574-2.034-3.189-2.968-4.844 0.204-0.104 0.415-0.194 0.638-0.253zM3.907 5.971c0.093-0.208 0.212-0.395 0.336-0.578 0.498 0.876 1.103 1.905 1.87 3.133 0.197 0.312 0.411 0.638 0.619 0.957l-2.326 0.556c-0.491-0.73-0.957-1.44-1.401-2.133l0.902-1.936zM1.831 10.426l0.307-0.66c0.151 0.233 0.303 0.469 0.458 0.705l-0.766 0.183c-0.037-0.071-0.037-0.157 0-0.228zM36.335 29.701l-31.953-12.663c-1.576-0.537-2.649-2.14-2.647-3.952v-0.538c0.151 0.010 0.305 0.003 0.458-0.031l7.396-1.767c3.95-0.928 8.064 0.304 11.037 3.306l3.46 3.391c3.265 3.213 6.859 5.999 10.709 8.303l0.605 0.361c0.289 0.178 0.608 0.274 0.934 0.326v3.265zM36.748 24.561c-0.179 0.009-0.357-0.015-0.516-0.113l-0.605-0.361c-1.061-0.636-2.096-1.319-3.116-2.029-4.231-4.803-11.771-15.637-13.632-19.811 1.285 0.318 2.516 0.852 3.649 1.59 0.801 1.629 1.702 3.198 2.702 4.69 2.6 4.103 5.386 8.059 8.347 11.855 1.083 1.434 2.265 2.77 3.505 4.041-0.12 0.023-0.233 0.068-0.333 0.138zM26.637 7.506l1.429 1.401c1.646 1.62 3.377 3.13 5.181 4.526 1.69 2.453 3.467 4.897 5.052 6.959 0.217 0.272 0.426 0.532 0.627 0.782l-0.835 1.794c-2.87-3.031-8.030-10.074-11.454-15.461zM39.985 24.4c-0.096 1.797-0.793 3.465-1.92 4.712v-3.034c0.49-0.306 0.895-0.763 1.15-1.327l0.77-1.655v1.303zM39.985 18.701v0.071c-0.018 0.105-0.039 0.21-0.086 0.31l-0.123 0.264c-0.708-0.905-1.453-1.884-2.216-2.913 0.406 0.258 0.803 0.531 1.215 0.778l0.787 0.466c0.299 0.21 0.45 0.573 0.44 0.94-0.003 0.030-0.016 0.055-0.016 0.086z"></path>
    </symbol>
    <symbol id="icon-question-circle" viewBox="0 0 32 32">
      <path
        d="M16 30v0c-7.732 0-14-6.268-14-14s6.268-14 14-14v0c7.732 0 14 6.268 14 14s-6.268 14-14 14zM16 32c8.837 0 16-7.163 16-16s-7.163-16-16-16v0c-8.837 0-16 7.163-16 16s7.163 16 16 16v0z"></path>
      <path
        d="M10.51 11.572c-0 0.006-0 0.013-0 0.020 0 0.262 0.212 0.474 0.474 0.474 0.003 0 0.006-0 0.009-0h1.65c0.276 0 0.496-0.226 0.532-0.5 0.18-1.312 1.080-2.268 2.684-2.268 1.372 0 2.628 0.686 2.628 2.336 0 1.27-0.748 1.854-1.93 2.742-1.346 0.978-2.412 2.12-2.336 3.974l0.006 0.434c0.005 0.273 0.227 0.492 0.5 0.492 0 0 0 0 0 0h1.622c0.276 0 0.5-0.224 0.5-0.5v0-0.21c0-1.436 0.546-1.854 2.020-2.972 1.218-0.926 2.488-1.954 2.488-4.112 0-3.022-2.552-4.482-5.346-4.482-2.534 0-5.31 1.18-5.5 4.572zM13.624 23.098c0 1.066 0.85 1.854 2.020 1.854 1.218 0 2.056-0.788 2.056-1.854 0-1.104-0.84-1.88-2.058-1.88-1.168 0-2.018 0.776-2.018 1.88z"></path>
    </symbol>
    <symbol id="icon-exit" viewBox="0 0 32 32">
      <path
        d="M28.445 0.002h-24.886c-1.961 0-3.555 1.595-3.555 3.555v7.11h3.555v-7.11h24.886v24.886h-24.886v-7.11h-3.555v7.11c0 1.961 1.595 3.555 3.555 3.555h24.886c1.961 0 3.555-1.595 3.555-3.555v-24.886c0-1.961-1.596-3.555-3.555-3.555z"></path>
      <path d="M14.221 23.11l8.888-7.11-8.888-7.11v5.335h-14.221v3.555h14.221z"></path>
    </symbol>
    <symbol id="icon-gear" viewBox="0 0 32 32">
      <path
        d="M17.674 3.251c-0.492-1.67-2.856-1.67-3.348 0l-0.188 0.638c-0.473 1.566-1.902 2.686-3.593 2.686-0.657 0-1.274-0.169-1.81-0.466l0.019 0.010-0.584-0.32c-1.528-0.83-3.2 0.84-2.368 2.37l0.318 0.584c0.287 0.517 0.456 1.135 0.456 1.791 0 1.691-1.12 3.12-2.66 3.586l-0.027 0.007-0.638 0.188c-1.67 0.492-1.67 2.856 0 3.348l0.638 0.188c1.566 0.472 2.687 1.902 2.687 3.593 0 0.657-0.169 1.275-0.467 1.812l0.010-0.019-0.32 0.582c-0.83 1.528 0.84 3.2 2.37 2.368l0.584-0.318c0.517-0.287 1.134-0.456 1.791-0.456 1.692 0 3.122 1.121 3.587 2.661l0.007 0.027 0.188 0.636c0.492 1.67 2.856 1.67 3.348 0l0.188-0.638c0.472-1.566 1.902-2.687 3.593-2.687 0.657 0 1.275 0.169 1.812 0.467l-0.019-0.010 0.582 0.32c1.528 0.83 3.2-0.84 2.368-2.37l-0.318-0.582c-0.287-0.518-0.457-1.135-0.457-1.792 0-1.692 1.122-3.122 2.662-3.587l0.027-0.007 0.636-0.188c1.67-0.492 1.67-2.856 0-3.348l-0.638-0.188c-1.566-0.473-2.686-1.902-2.686-3.593 0-0.657 0.169-1.274 0.466-1.81l-0.010 0.019 0.32-0.584c0.83-1.528-0.84-3.2-2.37-2.368l-0.582 0.318c-0.518 0.288-1.137 0.458-1.795 0.458-1.692 0-3.122-1.121-3.587-2.661l-0.007-0.027-0.188-0.638zM12.408 2.685c1.054-3.58 6.13-3.58 7.184 0l0.188 0.638c0.22 0.73 0.886 1.253 1.675 1.253 0.306 0 0.594-0.079 0.844-0.217l-0.009 0.005 0.584-0.32c3.28-1.784 6.868 1.802 5.080 5.082l-0.318 0.584c-0.134 0.241-0.213 0.529-0.213 0.835 0 0.789 0.523 1.455 1.24 1.672l0.012 0.003 0.638 0.188c3.58 1.054 3.58 6.13 0 7.184l-0.638 0.188c-0.73 0.22-1.253 0.886-1.253 1.675 0 0.306 0.079 0.594 0.217 0.844l-0.005-0.009 0.32 0.584c1.786 3.28-1.804 6.868-5.082 5.080l-0.584-0.318c-0.241-0.134-0.529-0.213-0.835-0.213-0.788 0-1.455 0.523-1.672 1.24l-0.003 0.012-0.188 0.638c-1.054 3.58-6.13 3.58-7.184 0l-0.188-0.638c-0.22-0.73-0.886-1.253-1.675-1.253-0.306 0-0.594 0.079-0.844 0.217l0.009-0.005-0.584 0.32c-3.28 1.786-6.866-1.804-5.080-5.082l0.318-0.584c0.134-0.241 0.213-0.529 0.213-0.835 0-0.788-0.523-1.455-1.24-1.672l-0.012-0.003-0.638-0.188c-3.58-1.054-3.58-6.13 0-7.184l0.638-0.188c0.73-0.22 1.253-0.886 1.253-1.675 0-0.306-0.079-0.594-0.217-0.844l0.005 0.009-0.32-0.584c-1.784-3.28 1.804-6.866 5.082-5.080l0.584 0.318c0.241 0.134 0.529 0.213 0.835 0.213 0.789 0 1.455-0.523 1.672-1.24l0.003-0.012 0.188-0.638z"></path>
      <path
        d="M16 11.508c-2.481 0-4.492 2.011-4.492 4.492s2.011 4.492 4.492 4.492v0c2.481 0 4.492-2.011 4.492-4.492s-2.011-4.492-4.492-4.492v0zM9.508 16c0-3.586 2.907-6.492 6.492-6.492s6.492 2.907 6.492 6.492v0c0 3.586-2.907 6.492-6.492 6.492s-6.492-2.907-6.492-6.492v0z"></path>
    </symbol>
    <symbol id="icon-dash" viewBox="0 0 32 32">
      <path d="M0 16c0-1.105 0.895-2 2-2v0h28c1.105 0 2 0.895 2 2s-0.895 2-2 2v0h-28c-1.105 0-2-0.895-2-2v0z"></path>
    </symbol>
    <symbol id="icon-three-dots-vertical" viewBox="0 0 32 32">
      <path
        d="M19.692 28.308c0 2.039-1.653 3.692-3.692 3.692s-3.692-1.653-3.692-3.692v0c0-2.039 1.653-3.692 3.692-3.692s3.692 1.653 3.692 3.692v0zM19.692 16c0 2.039-1.653 3.692-3.692 3.692s-3.692-1.653-3.692-3.692v0c0-2.039 1.653-3.692 3.692-3.692s3.692 1.653 3.692 3.692v0zM19.692 3.692c0 2.039-1.653 3.692-3.692 3.692s-3.692-1.653-3.692-3.692v0c0-2.039 1.653-3.692 3.692-3.692s3.692 1.653 3.692 3.692v0z"></path>
    </symbol>
    <symbol id="icon-three-dots" viewBox="0 0 32 32">
      <path
        d="M3.692 19.692c-2.039 0-3.692-1.653-3.692-3.692s1.653-3.692 3.692-3.692v0c2.039 0 3.692 1.653 3.692 3.692s-1.653 3.692-3.692 3.692v0zM16 19.692c-2.039 0-3.692-1.653-3.692-3.692s1.653-3.692 3.692-3.692v0c2.039 0 3.692 1.653 3.692 3.692s-1.653 3.692-3.692 3.692v0zM28.308 19.692c-2.039 0-3.692-1.653-3.692-3.692s1.653-3.692 3.692-3.692v0c2.039 0 3.692 1.653 3.692 3.692s-1.653 3.692-3.692 3.692v0z"></path>
    </symbol>
    <symbol id="icon-image" viewBox="0 0 34 32">
      <path
        d="M29.75 3.25v0c1.174 0 2.125 0.951 2.125 2.125v13.813l-8.020-4.135c-0.144-0.073-0.308-0.115-0.481-0.115-0.294 0-0.559 0.119-0.752 0.312l-7.884 7.884-5.649-3.765c-0.169-0.114-0.373-0.18-0.593-0.18-0.293 0-0.558 0.118-0.75 0.31l-5.623 5.002v-19.125c0-1.174 0.951-2.125 2.125-2.125h25.5zM4.25 1.125c-2.347 0-4.25 1.903-4.25 4.25v0 21.25c0 2.347 1.903 4.25 4.25 4.25v0h25.5c2.347 0 4.25-1.903 4.25-4.25v0-21.25c0-2.347-1.903-4.25-4.25-4.25v0h-25.5zM12.75 10.688v0c0-1.76-1.427-3.188-3.188-3.188s-3.188 1.427-3.188 3.188v0c0 1.76 1.427 3.188 3.188 3.188s3.188-1.427 3.188-3.188z"></path>
    </symbol>
    <symbol id="icon-search" viewBox="0 0 32 32">
      <path
        d="M20.884 20.884c0.362-0.362 0.862-0.587 1.415-0.587s1.053 0.224 1.415 0.587l7.7 7.7c0.362 0.362 0.586 0.862 0.586 1.415 0 1.105-0.896 2-2 2-0.552 0-1.052-0.224-1.414-0.585l-7.7-7.7c-0.362-0.362-0.587-0.862-0.587-1.415s0.224-1.053 0.587-1.415l0-0z"></path>
      <path
        d="M13 24c6.075 0 11-4.925 11-11s-4.925-11-11-11v0c-6.075 0-11 4.925-11 11s4.925 11 11 11v0zM26 13c0 7.18-5.82 13-13 13s-13-5.82-13-13v0c0-7.18 5.82-13 13-13s13 5.82 13 13v0z"></path>
    </symbol>
    <symbol id="icon-exclamation" viewBox="0 0 32 32">
      <path
        d="M12.002 28.003c0-2.208 1.79-3.997 3.998-3.997s3.997 1.79 3.997 3.997v0c0 2.208-1.79 3.997-3.998 3.997s-3.998-1.79-3.998-3.997v0zM12.394 3.998c-0.013-0.114-0.020-0.246-0.020-0.38 0-1.998 1.62-3.618 3.618-3.618s3.618 1.62 3.618 3.618c0 0.134-0.007 0.266-0.021 0.396l0.001-0.016-1.399 14.019c-0.1 1.135-1.046 2.019-2.199 2.019s-2.099-0.884-2.198-2.011l-0.001-0.008-1.399-14.019z"></path>
    </symbol>
    <symbol id="icon-check" viewBox="0 0 32 32">
      <path
        d="M26.99 4.117c0.531-0.527 1.262-0.852 2.070-0.852 1.624 0 2.94 1.316 2.94 2.94 0 0.787-0.309 1.502-0.813 2.029l0.001-0.001-15.65 19.562c-0.539 0.579-1.304 0.94-2.155 0.94-0.812 0-1.547-0.329-2.079-0.861l-10.369-10.373c-0.576-0.538-0.936-1.303-0.936-2.151 0-1.624 1.316-2.94 2.94-2.94 0.848 0 1.613 0.359 2.15 0.934l0.002 0.002 8.209 8.205 13.615-17.347c0.025-0.031 0.051-0.060 0.078-0.086l0-0z"></path>
    </symbol>
    <symbol id="icon-question" viewBox="0 0 32 32">
      <path
        d="M6.334 8.15c-0 0.011-0.001 0.023-0.001 0.036 0 0.467 0.378 0.845 0.845 0.845 0.005 0 0.011-0 0.016-0h2.94c0.492 0 0.884-0.403 0.948-0.891 0.321-2.339 1.925-4.043 4.784-4.043 2.446 0 4.684 1.223 4.684 4.164 0 2.264-1.333 3.305-3.44 4.888-2.399 1.743-4.299 3.779-4.164 7.084l0.011 0.774c0.008 0.486 0.404 0.877 0.891 0.877 0 0 0 0 0 0h2.891c0.492 0 0.891-0.399 0.891-0.891v0-0.374c0-2.56 0.973-3.305 3.601-5.298 2.171-1.651 4.435-3.483 4.435-7.33 0-5.387-4.549-7.989-9.529-7.989-4.517 0-9.465 2.103-9.804 8.15zM11.885 28.695c0 1.9 1.515 3.305 3.601 3.305 2.171 0 3.665-1.405 3.665-3.305 0-1.968-1.497-3.351-3.668-3.351-2.082 0-3.597 1.383-3.597 3.351z"></path>
    </symbol>
    <symbol id="icon-arrow-clockwise" viewBox="0 0 32 32">
      <path
        d="M15.998 6.336c-6.441 0.003-11.661 5.224-11.661 11.665 0 6.443 5.223 11.665 11.665 11.665s11.665-5.223 11.665-11.665c0-1.765-0.392-3.439-1.094-4.938l0.030 0.072c-0.055-0.131-0.088-0.284-0.088-0.443 0-0.644 0.522-1.167 1.167-1.167 0.451 0 0.842 0.256 1.036 0.631l0.003 0.007c0.806 1.714 1.276 3.722 1.276 5.84 0 7.731-6.267 13.998-13.998 13.998s-13.998-6.267-13.998-13.998c0-7.73 6.266-13.997 13.996-13.998h0v2.333z"></path>
      <path
        d="M15.998 9.757v-9.174c0-0.322 0.261-0.583 0.583-0.583 0.142 0 0.273 0.051 0.374 0.136l-0.001-0.001 5.506 4.587c0.28 0.233 0.28 0.663 0 0.896l-5.506 4.587c-0.1 0.084-0.231 0.135-0.373 0.135-0.322 0-0.583-0.261-0.583-0.583v0z"></path>
    </symbol>
    <symbol id="icon-filter" viewBox="0 0 32 32">
      <path
        d="M10.667 24c0-0.736 0.597-1.333 1.333-1.333v0h8c0.736 0 1.333 0.597 1.333 1.333s-0.597 1.333-1.333 1.333v0h-8c-0.736 0-1.333-0.597-1.333-1.333v0zM5.333 16c0-0.736 0.597-1.333 1.333-1.333v0h18.667c0.736 0 1.333 0.597 1.333 1.333s-0.597 1.333-1.333 1.333v0h-18.667c-0.736 0-1.333-0.597-1.333-1.333v0zM0 8c0-0.736 0.597-1.333 1.333-1.333v0h29.333c0.736 0 1.333 0.597 1.333 1.333s-0.597 1.333-1.333 1.333v0h-29.333c-0.736 0-1.333-0.597-1.333-1.333v0z"></path>
    </symbol>
    <symbol id="icon-trash" viewBox="0 0 32 32">
      <path
        d="M10.667 11.733c0.589 0 1.067 0.478 1.067 1.067v0 12.8c0 0.589-0.478 1.067-1.067 1.067s-1.067-0.478-1.067-1.067v0-12.8c0-0.589 0.478-1.067 1.067-1.067v0zM16 11.733c0.589 0 1.067 0.478 1.067 1.067v0 12.8c0 0.589-0.478 1.067-1.067 1.067s-1.067-0.478-1.067-1.067v0-12.8c0-0.589 0.478-1.067 1.067-1.067v0zM22.4 12.8c0-0.589-0.478-1.067-1.067-1.067s-1.067 0.478-1.067 1.067v0 12.8c0 0.589 0.478 1.067 1.067 1.067s1.067-0.478 1.067-1.067v0-12.8z"></path>
      <path
        d="M29.867 6.4c0 1.178-0.955 2.133-2.133 2.133v0h-1.067v19.2c0 2.356-1.91 4.267-4.267 4.267v0h-12.8c-2.356 0-4.267-1.91-4.267-4.267v0-19.2h-1.067c-1.178 0-2.133-0.955-2.133-2.133v0-2.133c0-1.178 0.955-2.133 2.133-2.133v0h7.467c0-1.178 0.955-2.133 2.133-2.133v0h4.267c1.178 0 2.133 0.955 2.133 2.133v0h7.467c1.178 0 2.133 0.955 2.133 2.133v0 2.133zM7.718 8.533l-0.252 0.126v19.074c0 1.178 0.955 2.133 2.133 2.133v0h12.8c1.178 0 2.133-0.955 2.133-2.133v0-19.074l-0.252-0.126h-16.563zM4.267 6.4v-2.133h23.467v2.133h-23.467z"></path>
    </symbol>
    <symbol id="icon-pencil" viewBox="0 0 32 32">
      <path
        d="M24.291 0.294c0.181-0.181 0.431-0.294 0.708-0.294s0.527 0.112 0.708 0.294l6 6c0.181 0.181 0.294 0.431 0.294 0.708s-0.112 0.527-0.294 0.708l-19.999 19.999c-0.093 0.093-0.205 0.167-0.329 0.218l-0.007 0.002-10 4c-0.11 0.045-0.238 0.072-0.372 0.072-0.552 0-1-0.448-1-1 0-0.134 0.026-0.262 0.074-0.378l-0.002 0.007 4-10c0.053-0.131 0.127-0.243 0.22-0.336l19.999-19.999zM22.413 5.002l4.586 4.586 2.586-2.586-4.586-4.586-2.586 2.586zM25.584 11.001l-4.586-4.586-12.999 12.999v0.586h1c0.552 0 1 0.448 1 1v0 1h1c0.552 0 1 0.448 1 1v0 1h0.586l12.999-12.999zM6.063 21.351l-0.212 0.212-3.056 7.642 7.642-3.056 0.212-0.212c-0.383-0.146-0.65-0.51-0.65-0.936v-1h-1c-0.552 0-1-0.448-1-1v0-1h-1c-0.426-0-0.79-0.267-0.934-0.643l-0.002-0.007z"></path>
    </symbol>
    <symbol id="icon-plus" viewBox="0 0 32 32">
      <path
        d="M16 0c1.105 0 2 0.895 2 2v0 12h12c1.105 0 2 0.895 2 2s-0.895 2-2 2v0h-12v12c0 1.105-0.895 2-2 2s-2-0.895-2-2v0-12h-12c-1.105 0-2-0.895-2-2s0.895-2 2-2v0h12v-12c0-1.105 0.895-2 2-2v0z"></path>
    </symbol>
    <symbol id="icon-sun" viewBox="0 0 32 32">
      <path
        d="M16 5.455c-0.8 0-1.455-0.655-1.455-1.455v-2.545c0-0.8 0.655-1.455 1.455-1.455s1.455 0.655 1.455 1.455v2.545c0 0.8-0.655 1.455-1.455 1.455zM30.545 17.455h-2.545c-0.8 0-1.455-0.655-1.455-1.455s0.655-1.455 1.455-1.455h2.545c0.8 0 1.455 0.655 1.455 1.455s-0.655 1.455-1.455 1.455zM4.691 27.309c0.291 0.291 0.655 0.436 1.018 0.436s0.764-0.145 1.055-0.436l1.782-1.782c0.582-0.582 0.582-1.491 0-2.073s-1.491-0.582-2.073 0l-1.782 1.782c-0.582 0.582-0.582 1.491 0 2.073zM26.291 27.745c-0.364 0-0.727-0.145-1.018-0.436l-1.782-1.782c-0.582-0.582-0.582-1.491 0-2.073s1.491-0.582 2.073 0l1.782 1.782c0.582 0.582 0.582 1.491 0 2.073-0.327 0.291-0.691 0.436-1.055 0.436zM14.545 30.546c0 0.8 0.655 1.454 1.455 1.454s1.455-0.654 1.455-1.454v-2.546c0-0.8-0.655-1.454-1.455-1.454s-1.455 0.654-1.455 1.454v2.546zM24.473 8.982c-0.364 0-0.727-0.145-1.018-0.436-0.582-0.582-0.582-1.491 0-2.073l1.782-1.782c0.582-0.582 1.491-0.582 2.073 0s0.582 1.491 0 2.073l-1.782 1.782c-0.291 0.291-0.654 0.436-1.054 0.436zM6.509 8.545c0.291 0.291 0.655 0.436 1.018 0.436s0.727-0.145 1.055-0.436c0.582-0.582 0.582-1.491 0-2.073l-1.782-1.782c-0.582-0.582-1.491-0.582-2.073 0s-0.582 1.491 0 2.073l1.782 1.782zM4 17.455h-2.545c-0.8 0-1.455-0.655-1.455-1.455s0.655-1.455 1.455-1.455h2.545c0.8 0 1.455 0.655 1.455 1.455s-0.655 1.455-1.455 1.455zM19.854 12.145c-1.018-1.018-2.4-1.6-3.855-1.6s-2.836 0.582-3.854 1.6c-1.018 1.018-1.6 2.4-1.6 3.854s0.582 2.836 1.6 3.855c1.018 1.018 2.4 1.6 3.854 1.6s2.836-0.582 3.855-1.6c1.018-1.018 1.6-2.4 1.6-3.855s-0.582-2.836-1.6-3.854zM10.073 10.072c1.527-1.491 3.6-2.436 5.927-2.436 2.291 0 4.4 0.945 5.927 2.436 1.491 1.527 2.436 3.6 2.436 5.927 0 2.291-0.945 4.4-2.436 5.927-1.527 1.491-3.636 2.436-5.927 2.436-2.327 0-4.4-0.945-5.927-2.436-1.491-1.527-2.436-3.636-2.436-5.927 0-2.327 0.945-4.4 2.436-5.927z"></path>
    </symbol>
    <symbol id="icon-burger-active" viewBox="0 0 46 32">
      <path
        d="M42.769 5.37h-23.621c-1.49 0-2.7-1.203-2.7-2.685s1.209-2.685 2.7-2.685h23.621c1.49 0 2.699 1.203 2.699 2.685s-1.209 2.685-2.699 2.685zM42.769 19.085h-39.819c-1.49 0-2.7-1.203-2.7-2.685s1.209-2.685 2.7-2.685h39.819c1.49 0 2.699 1.203 2.699 2.685s-1.209 2.685-2.699 2.685zM42.769 26.63h-39.819c-1.492 0-2.7 1.203-2.7 2.685s1.209 2.685 2.7 2.685h39.819c1.49 0 2.699-1.203 2.699-2.685s-1.209-2.685-2.699-2.685z"></path>
    </symbol>
    <symbol id="icon-burger" viewBox="0 0 46 32">
      <path
        d="M2.95 5.37h23.621c1.49 0 2.7-1.203 2.7-2.685s-1.21-2.685-2.7-2.685h-23.621c-1.49 0-2.7 1.203-2.7 2.685s1.209 2.685 2.7 2.685zM2.95 19.085h39.819c1.49 0 2.7-1.203 2.7-2.685s-1.21-2.685-2.7-2.685h-39.819c-1.49 0-2.7 1.203-2.7 2.685s1.209 2.685 2.7 2.685zM2.95 26.63h39.819c1.491 0 2.7 1.203 2.7 2.685s-1.21 2.685-2.7 2.685h-39.819c-1.49 0-2.7-1.203-2.7-2.685s1.209-2.685 2.7-2.685z"></path>
    </symbol>
    <symbol id="icon-cross" viewBox="0 0 32 32">
      <path
        d="M3.414 0.586c-0.781-0.781-2.047-0.781-2.828 0s-0.781 2.047 0 2.828l2.828-2.828zM28.586 31.414c0.781 0.781 2.047 0.781 2.828 0s0.781-2.047 0-2.828l-2.828 2.828zM31.414 3.414c0.781-0.781 0.781-2.047 0-2.828s-2.047-0.781-2.828 0l2.828 2.828zM0.586 28.586c-0.781 0.781-0.781 2.047 0 2.828s2.047 0.781 2.828 0l-2.828-2.828zM0.586 3.414l28 28 2.828-2.828-28-28-2.828 2.828zM28.586 0.586l-28 28 2.828 2.828 28-28-2.828-2.828z"></path>
    </symbol>
    <symbol id="icon-cross-thin" viewBox="0 0 32 32">
      <path
        d="M1.301 0.223c-0.298-0.298-0.78-0.298-1.077 0s-0.298 0.78 0 1.077l1.077-1.077zM30.699 31.777c0.298 0.297 0.78 0.297 1.078 0s0.297-0.78 0-1.078l-1.078 1.078zM31.777 1.301c0.297-0.298 0.297-0.78 0-1.077s-0.78-0.298-1.078 0l1.078 1.077zM0.223 30.699c-0.298 0.298-0.298 0.78 0 1.078s0.78 0.297 1.077 0l-1.077-1.078zM0.223 1.301l30.476 30.476 1.078-1.078-30.476-30.476-1.077 1.077zM30.699 0.223l-30.476 30.476 1.077 1.078 30.476-30.476-1.078-1.077z"></path>
    </symbol>
    <symbol id="icon-cross-bold" viewBox="0 0 32 32">
      <path
        d="M31.193 0.807c-1.076-1.076-2.82-1.076-3.896 0l-11.298 11.297-11.297-11.297c-1.076-1.076-2.82-1.076-3.896 0s-1.076 2.82 0 3.896l11.297 11.297-11.297 11.297c-1.076 1.076-1.076 2.82 0 3.896s2.82 1.076 3.896 0l11.297-11.297 11.297 11.298c1.076 1.076 2.82 1.076 3.896 0s1.076-2.82 0-3.896l-11.297-11.297 11.297-11.297c1.076-1.076 1.076-2.82 0-3.896z"></path>
    </symbol>
    <symbol id="icon-compare" viewBox="0 0 36 32">
      <path
        d="M35.878 30.216c-0.021-0.46-0.171-0.938-0.521-1.263-0.35-0.321-0.778-0.521-1.263-0.521h-0.296v-24.83c0-0.327 0.003-0.657 0.001-0.985 0.004-0.051 0.005-0.102 0.003-0.153-0.032-0.856-0.442-1.652-1.188-2.102-0.389-0.235-0.824-0.339-1.277-0.35-0.104-0.004-0.207 0-0.311 0h-6.508c-0.988 0-1.98-0.029-2.969 0-0.646 0.018-1.181 0.246-1.67 0.656-0.212 0.182-0.383 0.405-0.503 0.657-0.189 0.403-0.271 0.681-0.289 1.142-0.003 0.118 0 0.239 0 0.357v4.36h-2.847c-0.988 0-1.98-0.029-2.969 0-0.646 0.018-1.181 0.246-1.67 0.657-0.211 0.182-0.383 0.405-0.503 0.657-0.189 0.403-0.271 0.681-0.289 1.142-0.004 0.118 0 0.239 0 0.357v4.36h-5.787c-0.633 0.003-1.243 0.243-1.709 0.671-0.546 0.492-0.771 1.213-0.771 1.93v11.475h-0.26c-0.472 0.007-0.924 0.193-1.263 0.521-0.31 0.31-0.542 0.817-0.521 1.263 0.021 0.46 0.171 0.938 0.521 1.263 0.357 0.318 0.785 0.521 1.267 0.521h31.809c0.472-0.007 0.924-0.193 1.263-0.521 0.31-0.311 0.542-0.817 0.521-1.263zM24.849 3.57h5.316c0.022 0 0.045-0 0.068-0.001v24.848h-4.706v-17.384c0.001-0.269 0.001-0.537 0-0.806 0.002-0.188 0.007-0.376-0-0.565-0-0.009 0-0.018-0-0.028-0.003-0.082-0.009-0.163-0.020-0.243-0.002-0.019-0.005-0.038-0.008-0.057-0.001-0.008-0.002-0.017-0.004-0.025-0.003-0.021-0.007-0.042-0.010-0.063-0.001-0.008-0.003-0.016-0.005-0.024-0.004-0.019-0.007-0.039-0.011-0.058-0.091-0.453-0.304-0.873-0.617-1.214-0.005-0.005-0.009-0.010-0.014-0.015s-0.008-0.009-0.012-0.013c-0.316-0.34-0.727-0.576-1.181-0.676-0.303-0.064-0.564-0.071-0.86-0.071h-0.132v-3.607h2.194zM16.578 10.752h4.187c0.035 0.002 0.070 0.004 0.105 0.004h1.085v16.912c0 0.251-0.001 0.502-0.002 0.753h-4.704v-9.955c0-0.546 0.007-1.092 0-1.634v-0.021c0-0.055-0.003-0.109-0.008-0.163-0.009-0.154-0.033-0.308-0.070-0.458-0.1-0.398-0.303-0.762-0.589-1.055-0.002-0.003-0.005-0.005-0.007-0.008-0.155-0.171-0.335-0.316-0.535-0.432-0.208-0.124-0.435-0.214-0.671-0.268-0.216-0.045-0.436-0.069-0.656-0.071h-0.328v-3.604h2.194zM8.301 17.917h4.103c0.063 0.007 0.126 0.011 0.189 0.011h1.085v10.49h-7.571v-10.005c0-0.165-0.001-0.331-0.003-0.496h2.197z"></path>
    </symbol>
    <symbol id="icon-eye" viewBox="0 0 52 32">
      <path
        d="M52.317 15.392c0.133 0.666 0.041 1.5-0.309 2.073-0.066 0.115-0.14 0.225-0.221 0.329-0.187 0.275-0.379 0.547-0.574 0.815-1.181 1.609-2.465 3.134-3.923 4.496-1.47 1.373-3.066 2.603-4.767 3.676-3.236 2.037-6.919 3.483-10.685 4.146-4.2 0.735-8.455 0.675-12.62-0.271-1.995-0.452-3.899-1.151-5.767-1.977-1.64-0.725-3.206-1.607-4.677-2.634-3.294-2.294-6.127-5.187-8.353-8.528-0.56-0.844-0.56-2.2 0-3.043 0.247-0.368 0.5-0.729 0.759-1.085 1.181-1.609 2.465-3.134 3.923-4.496 1.47-1.373 3.066-2.603 4.767-3.676 3.236-2.037 6.919-3.483 10.685-4.146 4.201-0.735 8.455-0.675 12.62 0.271 1.995 0.452 3.899 1.151 5.768 1.977 1.64 0.725 3.206 1.607 4.677 2.634 3.183 2.216 5.934 4.995 8.119 8.199 0.073 0.096 0.141 0.196 0.204 0.299l0.024 0.036c0.178 0.275 0.297 0.583 0.351 0.905zM35.776 23.535c1.967-0.862 3.829-1.948 5.548-3.236 1.596-1.271 3.049-2.712 4.336-4.296-1.288-1.584-2.742-3.025-4.338-4.298-1.722-1.289-3.586-2.376-5.556-3.239-2-0.802-4.086-1.371-6.217-1.693-2.229-0.267-4.481-0.267-6.71-0-2.135 0.324-4.225 0.894-6.229 1.698-1.967 0.862-3.829 1.948-5.548 3.236-1.596 1.271-3.050 2.711-4.335 4.296 1.288 1.584 2.742 3.025 4.338 4.298 1.722 1.289 3.586 2.376 5.556 3.239 2 0.802 4.087 1.371 6.217 1.693 2.229 0.267 4.481 0.267 6.71 0 2.135-0.324 4.225-0.894 6.229-1.698zM33.458 11.149c0.956 1.335 1.431 3.053 1.472 4.685 0.003 0.054 0.004 0.107 0.004 0.16v0.006l-0 0.018c-0.008 0.933-0.141 1.912-0.47 2.784-0.192 0.545-0.43 1.074-0.711 1.579-0.289 0.494-0.651 0.952-1.012 1.386-0.573 0.699-1.32 1.29-2.091 1.748-0.784 0.47-1.681 0.844-2.579 1.012-0.868 0.163-1.742 0.265-2.622 0.157l-0.027-0.003c-0.54-0.065-1.091-0.132-1.613-0.28-0.518-0.151-1.018-0.374-1.507-0.597-1.495-0.681-2.784-1.959-3.622-3.357-0.868-1.44-1.344-3.266-1.199-4.954 0.078-0.868 0.205-1.718 0.536-2.525 0.021-0.050 0.041-0.1 0.062-0.15 0.184-0.446 0.37-0.897 0.619-1.309 0.286-0.45 0.604-0.879 0.952-1.284 1.055-1.272 2.622-2.206 4.201-2.646 1.633-0.458 3.55-0.446 5.153 0.151 0.796 0.295 1.555 0.633 2.23 1.151 0.040 0.030 0.079 0.060 0.119 0.090 0.388 0.294 0.771 0.584 1.104 0.934 0.363 0.389 0.697 0.804 1.001 1.242zM27.857 18.151c0.173-0.154 0.337-0.318 0.491-0.491 0.132-0.197 0.252-0.402 0.36-0.614 0.077-0.226 0.14-0.457 0.189-0.692 0.007-0.117 0.012-0.235 0.012-0.354-0.003-0.125-0.007-0.248-0.015-0.372-0.049-0.231-0.111-0.458-0.187-0.682-0.107-0.212-0.227-0.416-0.36-0.613-0.154-0.173-0.318-0.337-0.491-0.491-0.197-0.132-0.402-0.252-0.614-0.36-0.223-0.076-0.451-0.138-0.681-0.187-0.244-0.014-0.488-0.014-0.732-0-0.232 0.049-0.461 0.112-0.686 0.188-0.212 0.107-0.416 0.227-0.613 0.36-0.173 0.154-0.337 0.318-0.49 0.491-0.132 0.197-0.252 0.402-0.36 0.614-0.076 0.223-0.138 0.451-0.187 0.681-0.014 0.244-0.014 0.488-0 0.732 0.049 0.232 0.112 0.461 0.188 0.686 0.107 0.212 0.227 0.416 0.36 0.613 0.154 0.173 0.318 0.337 0.491 0.491 0.197 0.132 0.402 0.252 0.614 0.36 0.223 0.076 0.451 0.138 0.681 0.187 0.244 0.014 0.488 0.014 0.732 0 0.232-0.049 0.461-0.112 0.686-0.188 0.212-0.107 0.416-0.227 0.613-0.36z"></path>
    </symbol>
    <symbol id="icon-flash" viewBox="0 0 33 32">
      <path
        d="M32.621 16c0-8.824-7.196-16-16.043-16s-16.043 7.176-16.043 16 7.196 16 16.043 16c8.847 0 16.043-7.176 16.043-16zM2.541 16c0-7.765 6.252-14 14.037-14 7.667 0 13.919 6.235 13.919 14 0 7.647-6.252 13.882-13.919 13.882-7.785 0-14.037-6.235-14.037-13.882zM21.178 14.118h-3.893c0.212-1.553 0.552-3.106 0.892-4.659 0.227-1.035 0.453-2.071 0.642-3.106 0.118-1.176-0.826-1.412-1.298-0.353l-6.252 10.706c-0.472 0.706-0.236 1.177 0.708 1.177h3.775l-1.416 7.765c-0.236 1.059 0.708 1.294 1.298 0.471l6.252-10.824c0.354-0.823 0.118-1.176-0.708-1.176z"></path>
    </symbol>
    <symbol id="icon-instagram" viewBox="0 0 32 32">
      <path d="M24.418 5.891c-1.039 0-1.881 0.842-1.881 1.881s0.842 1.881 1.881 1.881c1.039 0 1.881-0.842 1.881-1.881s-0.842-1.881-1.881-1.881z"></path>
      <path
        d="M16.055 8.304c-4.357 0-7.903 3.545-7.903 7.903s3.545 7.903 7.903 7.903 7.902-3.545 7.902-7.903c0-4.358-3.545-7.903-7.902-7.903zM16.055 21.269c-2.791 0-5.062-2.271-5.062-5.062s2.271-5.062 5.062-5.062c2.791 0 5.062 2.271 5.062 5.062s-2.271 5.062-5.062 5.062z"></path>
      <path
        d="M22.361 0h-12.722c-5.324 0-9.639 4.315-9.639 9.638v12.723c0 5.323 4.315 9.639 9.639 9.639h12.722c5.324 0 9.639-4.315 9.639-9.639v-12.723c0-5.323-4.316-9.638-9.639-9.638zM28.981 22.361c0 3.656-2.964 6.62-6.62 6.62h-12.722c-3.656 0-6.62-2.964-6.62-6.62v-12.723c0-3.656 2.964-6.62 6.62-6.62h12.722c3.656 0 6.62 2.964 6.62 6.62v12.723z"></path>
    </symbol>
    <symbol id="icon-vk" viewBox="0 0 49 32">
      <path
        d="M48.33 3.279c0.348-1.16 0-1.972-1.624-1.972h-5.413c-1.392 0-2.011 0.735-2.359 1.547 0 0-2.745 6.728-6.65 11.058-1.276 1.276-1.817 1.663-2.513 1.663-0.348 0-0.851-0.387-0.851-1.547v-10.749c0-1.392-0.387-1.972-1.547-1.972h-8.506c-0.851 0-1.392 0.657-1.392 1.237 0 1.315 1.933 1.624 2.165 5.258v7.965c0 1.74-0.309 2.049-1.005 2.049-1.817 0-6.302-6.728-8.931-14.46-0.541-1.431-1.044-2.049-2.436-2.049h-5.413c-1.547 0-1.856 0.735-1.856 1.547 0 1.431 1.817 8.545 8.545 17.94 4.485 6.418 10.787 9.898 16.51 9.898 3.441 0 3.866-0.773 3.866-2.088v-4.872c0-1.547 0.309-1.856 1.431-1.856 0.812 0 2.165 0.387 5.374 3.48 3.673 3.673 4.292 5.336 6.341 5.336h5.413c1.547 0 2.32-0.773 1.856-2.281-0.503-1.508-2.243-3.712-4.562-6.341-1.276-1.508-3.17-3.093-3.712-3.905-0.812-1.044-0.58-1.508 0-2.397 0-0.039 6.612-9.318 7.269-12.489v0z"></path>
    </symbol>
    <symbol id="icon-moon" viewBox="0 0 32 32">
      <path
        d="M17.214 32c-8.782 0-16-7.152-16-16s7.185-16 16-16c1.364 0 2.728 0.2 4.125 0.566 0.732 0.2 1.264 0.798 1.364 1.563 0.1 0.732-0.266 1.464-0.931 1.863-3.027 1.696-4.923 4.99-4.923 8.449 0 5.389 4.391 9.846 9.78 9.846 0.665 0 1.331-0.067 1.963-0.2 0.732-0.133 1.464 0.133 1.896 0.765 0.399 0.632 0.399 1.43 0 2.062-2.96 4.424-7.917 7.085-13.272 7.085zM16.383 3.726c-6.42 0.432-11.476 5.755-11.476 12.274 0 6.786 5.522 12.308 12.308 12.308 2.728 0 5.322-0.898 7.418-2.528-6.486-0.931-11.509-6.553-11.509-13.339 0.033-3.227 1.231-6.32 3.26-8.715z"></path>
    </symbol>
    <symbol id="icon-picture" viewBox="0 0 39 32">
      <path
        d="M14.378 20.516c2.073 0 3.781-1.667 3.781-3.691s-1.708-3.691-3.781-3.691-3.781 1.667-3.781 3.691c0 2.024 1.708 3.691 3.781 3.691zM14.378 15.594c0.711 0 1.26 0.536 1.26 1.231s-0.549 1.23-1.26 1.23-1.26-0.536-1.26-1.23c0-0.694 0.549-1.23 1.26-1.23z"></path>
      <path
        d="M37.399 7.022c-0.002-0.001-0.005-0.001-0.007-0.002l-26.047-6.972c-0.162-0.045-0.332-0.058-0.499-0.038-0.495 0.068-0.902 0.415-1.037 0.884l-2.153 7.318h-5.881c-0.044-0.002-0.088-0.002-0.131 0-0.644 0.066-1.133 0.598-1.129 1.23v21.327c0 0.68 0.564 1.23 1.26 1.23h26.887c0.696 0 1.26-0.551 1.26-1.23v-0.718l0.919 0.256c0.669 0.187 1.367-0.191 1.558-0.845 0.001-0.005 0.003-0.009 0.004-0.014l5.882-20.917c0.183-0.656-0.214-1.332-0.885-1.51zM3.035 29.539v-3.345l6.013-2.935 5.842 6.28h-11.855zM27.401 29.539h-9.098l-3.243-3.486 6.577-3.204 5.763 6.332v0.359zM27.401 25.476l-4.516-4.96c-0.255-0.28-0.628-0.431-1.011-0.41-0.174 0.009-0.343 0.052-0.499 0.128l-8.074 3.935-3.033-3.256c-0.258-0.275-0.63-0.421-1.011-0.397-0.169 0.010-0.334 0.054-0.486 0.128l-5.737 2.794v-3.927c0-0.012 0-0.023 0-0.035v-8.803h24.366v14.804zM30.303 27.591l-0.381-0.102v-18.046c0-0.68-0.564-1.23-1.26-1.23h-18.38l1.602-5.473 23.631 6.319-5.212 18.533z"></path>
    </symbol>
    <symbol id="icon-scan" viewBox="0 0 32 32">
      <path
        d="M12.8 2.277c0 0.842-0.716 1.525-1.6 1.525h-8v7.624c0 0.842-0.716 1.525-1.6 1.525s-1.6-0.683-1.6-1.525v-9.149c0-0.842 0.716-1.525 1.6-1.525h9.6c0.884 0 1.6 0.683 1.6 1.525zM30.4 19.049c-0.884 0-1.6 0.683-1.6 1.525v7.624h-8c-0.884 0-1.6 0.683-1.6 1.525s0.716 1.525 1.6 1.525h9.6c0.884 0 1.6-0.683 1.6-1.525v-9.149c0-0.842-0.716-1.525-1.6-1.525zM30.4 0.752h-9.6c-0.884 0-1.6 0.683-1.6 1.525s0.716 1.525 1.6 1.525h8v7.624c0 0.842 0.716 1.525 1.6 1.525s1.6-0.683 1.6-1.525v-9.149c0-0.842-0.716-1.525-1.6-1.525zM11.2 28.198h-8v-7.624c0-0.842-0.716-1.525-1.6-1.525s-1.6 0.683-1.6 1.525v9.149c0 0.842 0.716 1.525 1.6 1.525h9.6c0.884 0 1.6-0.683 1.6-1.525s-0.716-1.525-1.6-1.525z"></path>
    </symbol>
    <symbol id="icon-search1" viewBox="0 0 32 32">
      <path
        d="M30.951 29.166l-7.561-7.521c1.994-2.295 3.201-5.297 3.201-8.581 0-7.215-5.827-13.065-13.016-13.065s-13.016 5.849-13.016 13.065c0 7.216 5.827 13.065 13.016 13.065 2.717 0 5.239-0.835 7.326-2.264l7.69 7.649c0.652 0.648 1.708 0.648 2.36 0s0.652-1.699 0-2.347zM23.254 13.065c0 5.365-4.333 9.715-9.679 9.715s-9.678-4.35-9.678-9.715c0-5.365 4.333-9.715 9.678-9.715s9.679 4.349 9.679 9.715z"></path>
    </symbol>
    <symbol id="icon-shoot" viewBox="0 0 32 32">
      <path stroke-linejoin="miter" stroke-linecap="butt" stroke-miterlimit="4" stroke-width="0.4706"
            d="M31.75 16c0 8.698-7.052 15.75-15.75 15.75s-15.75-7.052-15.75-15.75c0-8.698 7.051-15.75 15.75-15.75s15.75 7.051 15.75 15.75z"></path>
      <path d="M30.104 16c0 7.79-6.315 14.104-14.104 14.104s-14.104-6.315-14.104-14.104c0-7.79 6.315-14.104 14.104-14.104s14.104 6.315 14.104 14.104z"></path>
    </symbol>
    <symbol id="icon-message" viewBox="0 0 32 32">
      <path
        d="M30.476 32c-0.232 0-0.466-0.052-0.681-0.161l-6.178-3.089c-0.027 0.015-0.054 0.030-0.080 0.043-2.094 1.040-5.936 1.683-8.297 1.683-8.402 0-15.238-6.836-15.238-15.238s6.835-15.238 15.238-15.238c8.402 0 15.238 6.835 15.238 15.238 0 2.164-0.442 4.245-1.312 6.199l2.763 8.572c0.187 0.583 0.007 1.223-0.458 1.623-0.283 0.243-0.635 0.368-0.993 0.368zM18.287 22.857c0.229 0 0.461 0.052 0.68 0.161l8.945 4.473-1.835-5.691c-0.122-0.378-0.091-0.789 0.086-1.144 0.839-1.693 1.265-3.516 1.265-5.418 0-6.722-5.469-12.19-12.19-12.19s-12.19 5.469-12.19 12.19c0 6.722 5.469 12.191 12.19 12.191 1.234 0 3.015-0.226 4.562-0.586l-2.196-1.098c-0.753-0.376-1.058-1.292-0.682-2.045 0.268-0.534 0.805-0.842 1.365-0.842zM21.333 12.19h-7.619c-0.841 0-1.524-0.682-1.524-1.524s0.682-1.524 1.524-1.524h7.619c0.842 0 1.524 0.682 1.524 1.524s-0.682 1.524-1.524 1.524zM9.143 18.285h12.19c0.842 0 1.524-0.682 1.524-1.524s-0.682-1.524-1.524-1.524h-12.19c-0.841 0-1.524 0.682-1.524 1.524s0.682 1.524 1.524 1.524z"></path>
    </symbol>
    <symbol id="icon-percent" viewBox="0 0 36 32">
      <path
        d="M2.794 2.13c2.945-2.84 7.678-2.84 10.518 0 2.84 2.945 2.84 7.678 0 10.518-1.472 1.472-3.26 2.209-5.259 2.209s-3.892-0.841-5.259-2.209c-2.84-2.945-2.84-7.678 0-10.518zM7.947 10.965c0.947 0 1.788-0.421 2.419-1.052 1.367-1.367 1.367-3.576 0-4.943-0.631-0.736-1.578-1.052-2.419-1.052s-1.788 0.421-2.419 1.052c-1.367 1.367-1.367 3.576 0 4.943 0.631 0.736 1.472 1.052 2.419 1.052zM3.425 27.477l25.873-25.873c0.736-0.736 1.998-0.736 2.735 0s0.736 1.998 0 2.735l-25.873 25.873c-0.421 0.421-0.841 0.526-1.367 0.526s-1.052-0.21-1.367-0.526c-0.736-0.736-0.736-1.998 0-2.735zM32.769 19.274c-2.945-2.945-7.678-2.945-10.518 0-2.84 2.84-2.84 7.573 0 10.518 1.473 1.473 3.366 2.209 5.259 2.209s3.786-0.736 5.259-2.209c2.84-2.84 2.84-7.573 0-10.518zM29.929 26.951c-1.367 1.367-3.576 1.367-4.943 0s-1.367-3.576 0-4.943c1.367-1.367 3.576-1.367 4.943 0s1.367 3.576 0 4.943z"></path>
    </symbol>
    <symbol id="icon-grid" viewBox="0 0 32 32">
      <path
        d="M0.941 0.16h13.176c0.527 0 0.941 0.41 0.941 0.932v13.045c0 0.522-0.414 0.932-0.941 0.932h-13.176c-0.527 0-0.941-0.41-0.941-0.932v-13.045c0-0.522 0.414-0.932 0.941-0.932zM1.882 13.205h11.294v-11.181h-11.294v11.181zM0.941 16.932h13.176c0.527 0 0.941 0.41 0.941 0.932v13.045c0 0.522-0.414 0.932-0.941 0.932h-13.176c-0.527 0-0.941-0.41-0.941-0.932v-13.045c0-0.522 0.414-0.932 0.941-0.932zM1.882 29.977h11.294v-11.181h-11.294v11.181zM31.059 0.16h-13.176c-0.527 0-0.941 0.41-0.941 0.932v13.045c0 0.522 0.414 0.932 0.941 0.932h13.176c0.527 0 0.941-0.41 0.941-0.932v-13.045c0-0.522-0.414-0.932-0.941-0.932zM30.118 13.205h-11.294v-11.181h11.294v11.181zM17.882 16.932h13.176c0.527 0 0.941 0.41 0.941 0.932v13.045c0 0.522-0.414 0.932-0.941 0.932h-13.176c-0.527 0-0.941-0.41-0.941-0.932v-13.045c0-0.522 0.414-0.932 0.941-0.932zM18.824 29.977h11.294v-11.181h-11.294v11.181z"></path>
    </symbol>
    <symbol id="icon-rows" viewBox="0 0 32 32">
      <path
        d="M0.941 0.16h30.118c0.527 0 0.941 0.41 0.941 0.932v13.045c0 0.522-0.414 0.932-0.941 0.932h-30.118c-0.527 0-0.941-0.41-0.941-0.932v-13.045c0-0.522 0.414-0.932 0.941-0.932zM1.882 13.205h28.235v-11.182h-28.235v11.182zM0.941 16.932h30.118c0.527 0 0.941 0.41 0.941 0.932v13.045c0 0.522-0.414 0.932-0.941 0.932h-30.118c-0.527 0-0.941-0.41-0.941-0.932v-13.045c0-0.522 0.414-0.932 0.941-0.932zM1.882 29.977h28.235v-11.181h-28.235v11.181z"></path>
    </symbol>
    <symbol id="icon-marker" viewBox="0 0 28 32">
      <path
        d="M13.534 31.7l0.684 0.3 0.684-0.3c0.019-0.010 0.052-0.027 0.098-0.050 1.31-0.667 13.218-6.73 13.218-18.621 0-7.205-6.284-13.028-14-13.028s-14 5.824-14 13.028c0 11.892 11.908 17.954 13.218 18.621 0.046 0.023 0.079 0.040 0.098 0.050zM3.33 13.028c0-5.523 4.916-10.026 10.889-10.026s10.889 4.503 10.889 10.026c0 4.323-1.867 8.285-5.662 11.827-2.116 1.921-4.169 3.242-5.227 3.782-2.489-1.381-10.889-6.664-10.889-15.61zM8.37 12.848c0 3.122 2.613 5.643 5.849 5.643s5.849-2.521 5.849-5.643c0-3.122-2.613-5.644-5.849-5.644s-5.849 2.522-5.849 5.644zM11.481 12.848c0-1.441 1.244-2.642 2.738-2.642s2.738 1.201 2.738 2.642c0 1.441-1.244 2.642-2.738 2.642s-2.738-1.201-2.738-2.642z"></path>
    </symbol>
    <symbol id="icon-user" viewBox="0 0 30 32">
      <path
        d="M23.151 8.107c0 4.477-3.649 8.107-8.15 8.107-4.508-0.021-8.151-3.662-8.151-8.146 0.022-4.462 3.664-8.068 8.15-8.068 4.501-0 8.151 3.63 8.151 8.107zM20.016 8.068c0-2.755-2.246-4.989-5.016-4.989s-5.016 2.234-5.016 4.989c0 2.755 2.246 4.989 5.016 4.989s5.016-2.234 5.016-4.989zM20.133 16.176l1.097 0.429c4.804 1.835 7.98 6.418 7.994 11.537v3.859h-28.448v-3.859c-0.018-5.147 3.163-9.77 7.994-11.615l1.058-0.39 0.705 0.896c0.129 0.16 0.267 0.313 0.412 0.458 2.232 2.225 5.854 2.229 8.091 0.009l0.392-0.429 0.705-0.896zM3.911 28.882h22.179v-0.74c-0.015-3.443-1.946-6.594-5.016-8.185-3.411 3.198-8.736 3.198-12.147 0-3.069 1.591-5 4.742-5.016 8.185v0.74z"></path>
    </symbol>
    <symbol id="icon-heart" viewBox="0 0 34 32">
      <path
        d="M24.264 0.453c-2.915 0-5.515 1.391-7.326 3.805-1.812-2.414-4.451-3.805-7.326-3.805-4.766 0-9.611 4.009-9.611 11.701 0 8.019 8.272 14.074 16.032 19.106 0.276 0.164 0.591 0.286 0.906 0.286s0.63-0.082 0.906-0.286c7.76-5.032 16.032-11.087 16.032-19.106 0-7.691-4.845-11.701-9.611-11.701zM16.937 27.701c-5.199-3.396-13.55-9.205-13.55-15.546 0-5.646 3.23-8.182 6.224-8.182 2.521 0 4.687 1.677 5.751 4.459 0.276 0.655 0.867 1.105 1.576 1.105s1.3-0.45 1.576-1.105c1.064-2.782 3.23-4.459 5.751-4.459 2.994 0 6.224 2.577 6.224 8.182 0 6.341-8.351 12.151-13.55 15.547z"></path>
    </symbol>
    <symbol id="icon-heart-2" viewBox="0 0 38 32">
      <path
        d="M18.906 32c-0.309 0-0.617-0.152-0.772-0.305-6.947-4.267-12.196-9.295-15.902-15.238-1.235-1.829-1.853-3.81-1.853-5.943v-0.914c0-2.438 0.926-4.876 2.779-6.552 0.309-0.305 0.463-0.61 0.772-0.762 1.853-1.524 4.014-2.286 6.484-2.286 3.396 0 6.639 1.676 8.491 4.267 2.007-2.59 5.095-4.267 8.491-4.267 2.47 0 4.786 0.762 6.639 2.286 0.309 0.152 0.463 0.457 0.772 0.61 1.698 1.829 2.625 4.114 2.625 6.705v0.914c0 2.133-0.618 4.114-1.853 5.943-3.705 5.943-9.109 10.971-15.902 15.238-0.154 0.152-0.463 0.305-0.772 0.305zM10.415 3.048c-1.698 0-3.242 0.457-4.477 1.524l-0.618 0.457c-1.235 1.219-1.853 2.895-1.853 4.571v0.914c0 1.676 0.463 2.895 1.235 4.419 3.397 5.181 8.028 9.905 14.203 13.867 6.021-3.962 10.807-8.533 14.204-13.867 0.926-1.371 1.235-2.743 1.235-4.419v-0.914c0-1.676-0.618-3.2-1.853-4.419l-0.618-0.61c-1.544-1.371-3.396-1.524-4.632-1.524-2.779 0-5.404 1.676-6.639 4.114l-0.309 0.914c-0.154 0.61-0.772 1.067-1.39 1.067s-1.235-0.457-1.389-1.067l-0.309-0.914c-1.39-2.438-4.014-4.114-6.793-4.114z"></path>
    </symbol>
    <symbol id="icon-cart" viewBox="0 0 36 32">
      <path
        d="M4.889 30.29c0.338 0.997 1.206 1.662 2.267 1.71h21.707c1.061-0.047 1.978-0.712 2.267-1.71l4.486-16.147c0.241-0.665-0.096-1.425-0.772-1.662-0.193-0.047-0.338-0.095-0.531-0.095h-4.341l-6.753-11.493c-0.482-0.855-1.592-1.14-2.46-0.665s-1.158 1.567-0.675 2.422l5.644 9.783h-15.436l5.692-9.783c0.482-0.855 0.145-1.947-0.724-2.422s-1.93-0.19-2.412 0.665l-6.753 11.54h-4.39c-0.724-0.047-1.351 0.475-1.399 1.187 0 0.19 0 0.38 0.096 0.522l4.486 16.147zM27.898 28.486h-19.778l-1.206-4.464h22.238l-1.254 4.464zM7.108 15.996h24.215l-1.254 4.464h-24.167l-1.206-4.464h2.412z"></path>
    </symbol>
    <symbol id="icon-star" viewBox="0 0 36 32">
      <path d="M26.943 20.422l2.077 11.578-10.879-5.467-10.879 5.467 2.081-11.578-8.802-8.198 12.16-1.688 5.44-10.535 5.44 10.535 12.16 1.688-8.798 8.198z"></path>
    </symbol>
    <symbol id="icon-arrow-right" viewBox="0 0 44 32">
      <path
        d="M29.609 0.581c-0.573-0.681-1.542-0.771-2.203-0.227s-0.749 1.588-0.22 2.269c0.044 0.091 0.132 0.136 0.22 0.227l11.235 11.57h-37.141c-0.881 0.045-1.542 0.817-1.498 1.679 0.044 0.817 0.661 1.497 1.498 1.543h37.141l-11.235 11.615c-0.573 0.635-0.573 1.633 0 2.269 0.617 0.635 1.586 0.635 2.203 0l13.923-14.337c0.617-0.59 0.617-1.588 0.044-2.223l-0.044-0.045-13.923-14.337z"></path>
    </symbol>
    <symbol id="icon-arrow-left" viewBox="0 0 44 32">
      <path
        d="M14.391 31.419c0.573 0.681 1.542 0.771 2.203 0.227s0.749-1.588 0.22-2.269c-0.044-0.091-0.132-0.136-0.22-0.227l-11.235-11.57h37.141c0.881-0.045 1.542-0.817 1.498-1.679-0.044-0.817-0.661-1.497-1.498-1.543l-37.141-0 11.235-11.615c0.573-0.635 0.573-1.633 0-2.269-0.617-0.635-1.586-0.635-2.203 0l-13.922 14.337c-0.617 0.59-0.617 1.588-0.044 2.223l13.966 14.383z"></path>
    </symbol>
    <symbol id="icon-like" viewBox="0 0 34 32">
      <path
        d="M33.161 17.313l-0.048-0.122 0.059-0.117c0.347-0.695 0.546-1.516 0.547-2.251 0.002-2.215-1.134-3.577-3.287-3.94-0.783-0.132-1.683-0.22-2.673-0.261-1.406-0.058-2.964-0.026-4.634 0.095l-0.378 0.028 0.066-0.373c0.102-0.578 0.259-1.275 0.466-2.072 0.932-3.583-1.42-6.799-4.106-8.006-1.122-0.505-2.237-0.356-3.137 0.419-0.323 0.278-0.512 0.54-0.614 0.711-0.123 0.205-0.18 0.439-0.166 0.678 0.006 0.099 0.016 0.285 0.025 0.53 0.020 0.513 0.029 1.033 0.024 1.512-0.005 0.388-0.020 0.723-0.046 0.996-0.17 1.804-0.479 2.762-1.577 4.876-0.314 0.604-0.836 1.287-1.549 2.029-0.245 0.255-0.501 0.505-0.762 0.746l-0.116 0.108-0.154-0.037c-0.132-0.032-0.269-0.040-0.407-0.025-3.639 0.404-5.354 0.32-7.981-0.39-0.103-0.028-0.208-0.042-0.312-0.042-0.223 0-0.44 0.064-0.634 0.188-0.284 0.182-0.471 0.466-0.526 0.799-1.309 7.839-1.281 12.88 0.098 17.399 0.136 0.445 0.523 0.77 0.985 0.827 5.119 0.633 6.273 0.542 9.505-0.751 0.15-0.060 0.284-0.148 0.397-0.261l0.098-0.098 0.138 0.013c3.956 0.371 12.447 0.42 14.653 0.086 0.027-0.004 0.069-0.009 0.144-0.017 0.311-0.032 0.33-0.034 0.483-0.057 0.25-0.039 0.464-0.091 0.673-0.164 1.413-0.491 2.161-1.79 2.222-3.861l0.004-0.126 0.094-0.085c1.179-1.060 1.605-2.346 1.341-4.043l-0.023-0.151 0.109-0.106c1.133-1.102 1.582-3.202 1-4.683zM9.693 29.149c-1.011 0.347-1.826 0.496-2.893 0.496-0.84 0-1.837-0.092-3.209-0.253l-0.202-0.024-0.050-0.197c-0.909-3.603-0.914-7.867-0.017-13.825l0.046-0.306 0.303 0.061c1.709 0.341 3.271 0.417 5.393 0.261l0.356-0.026-0.042 0.355c-0.494 4.21-0.281 9.725 0.506 13.112l0.060 0.26-0.252 0.086zM30.91 18.072c0.23 0.197 0.147 0.957 0.073 1.273-0.075 0.32-0.202 0.621-0.35 0.826-0.038 0.053-0.071 0.092-0.097 0.118l-0.057 0.058-0.079 0.021c-0.311 0.081-0.57 0.279-0.729 0.56s-0.197 0.605-0.107 0.914c0.385 1.32 0.373 2.188-0.789 2.996-0.334 0.232-0.523 0.614-0.505 1.021 0.038 0.888-0.047 1.539-0.254 1.935-0.096 0.187-0.198 0.28-0.377 0.342-0.143 0.049-0.261 0.066-0.622 0.103-0.106 0.010-0.178 0.019-0.257 0.031-0.874 0.133-2.993 0.194-5.397 0.194-3.28 0-7.092-0.115-9.006-0.324l-0.213-0.023-0.044-0.21c-0.684-3.253-0.828-8.396-0.341-12.23l0.015-0.117 0.092-0.075c0.114-0.092 0.242-0.199 0.384-0.319 0.572-0.487 1.105-0.987 1.586-1.487 0.881-0.917 1.515-1.756 1.937-2.566 1.243-2.396 1.638-3.633 1.837-5.755 0.032-0.335 0.051-0.734 0.057-1.187 0.006-0.483-0.002-0.993-0.021-1.498l-0.013-0.379 0.37 0.080c0.063 0.014 0.124 0.037 0.201 0.072 1.83 0.822 3.372 3.013 2.788 5.257-0.58 2.231-0.787 3.696-0.633 4.479 0.034 0.172 0.085 0.317 0.157 0.443 0.235 0.418 0.7 0.652 1.171 0.592 0.062-0.008 0.187-0.022 0.369-0.040 0.304-0.031 0.648-0.062 1.025-0.091 1.661-0.128 3.203-0.164 4.578-0.107 0.892 0.037 1.693 0.114 2.379 0.23 1.011 0.171 1.319 0.547 1.318 1.609 0 0.511-0.248 1.27-0.491 1.502-0.244 0.233-0.374 0.547-0.366 0.885s0.154 0.645 0.41 0.865z"></path>
    </symbol>
    <symbol id="icon-chevron-left" viewBox="0 0 16 32">
      <path
        d="M0.013 15.822c0.066-0.395 0.198-0.791 0.461-1.12l11.866-13.838c0.593-0.922 1.846-1.12 2.769-0.527s1.121 1.845 0.527 2.768c-0.066 0.132-0.198 0.264-0.264 0.329l-10.746 12.586 10.746 12.585c0.791 0.725 0.857 1.977 0.066 2.768s-1.978 0.857-2.769 0.066c-0.132-0.132-0.198-0.198-0.264-0.33l-11.866-13.838c-0.396-0.395-0.593-0.922-0.527-1.45z"></path>
    </symbol>
    <symbol id="icon-chevron-right" viewBox="0 0 16 32">
      <path
        d="M15.987 15.822c-0.066-0.395-0.198-0.791-0.461-1.12l-11.866-13.838c-0.593-0.922-1.846-1.12-2.769-0.527s-1.121 1.845-0.527 2.768c0.066 0.132 0.198 0.264 0.264 0.329l10.746 12.586-10.746 12.585c-0.791 0.725-0.857 1.977-0.066 2.768s1.978 0.857 2.769 0.066c0.132-0.132 0.198-0.198 0.264-0.33l11.866-13.838c0.396-0.395 0.593-0.922 0.527-1.45z"></path>
    </symbol>
    <symbol id="icon-chevron-left-thin" viewBox="0 0 16 32">
      <path
        d="M0.584 16.127c0.039 0.234 0.117 0.468 0.273 0.624l12.489 14.83c0.429 0.507 1.171 0.546 1.639 0.156 0.507-0.429 0.546-1.171 0.156-1.639l-11.864-14.089 11.864-14.089c0.429-0.507 0.351-1.249-0.117-1.639-0.507-0.429-1.249-0.351-1.639 0.117l-12.489 14.83c-0.234 0.234-0.351 0.546-0.312 0.898z"></path>
    </symbol>
    <symbol id="icon-chevron-right-thin" viewBox="0 0 16 32">
      <path
        d="M15.416 15.873c-0.039-0.234-0.117-0.468-0.273-0.624l-12.489-14.83c-0.429-0.507-1.171-0.546-1.639-0.156-0.507 0.429-0.546 1.171-0.156 1.639l11.864 14.089-11.864 14.089c-0.429 0.507-0.351 1.249 0.117 1.639 0.507 0.429 1.249 0.351 1.639-0.117l12.489-14.83c0.234-0.234 0.351-0.546 0.312-0.898z"></path>
    </symbol>
    <symbol id="icon-chevron-down" viewBox="0 0 55 32">
      <path
        d="M27.346 31.746c-1.207 0-2.321-0.462-3.249-1.294l-22.277-22.189c-1.856-1.849-1.856-4.715 0-6.564s4.734-1.849 6.59 0l19.028 18.861 19.029-18.953c1.856-1.849 4.734-1.757 6.59 0 1.856 1.849 1.764 4.715 0 6.564l-22.277 22.189c-0.928 0.925-2.135 1.387-3.434 1.387z"></path>
    </symbol>
    <symbol id="icon-chevron-up" viewBox="0 0 55 32">
      <path
        d="M27.346 0.254c-1.207 0-2.321 0.462-3.249 1.294l-22.277 22.189c-1.856 1.849-1.856 4.715 0 6.564s4.734 1.849 6.59 0l19.028-18.861 19.029 18.953c1.856 1.849 4.734 1.757 6.59 0 1.856-1.849 1.764-4.715 0-6.564l-22.277-22.189c-0.928-0.925-2.135-1.387-3.434-1.387z"></path>
    </symbol>
    <symbol id="icon-help" viewBox="0 0 33 32">
      <path
        d="M16.578 0c-8.847 0-16.043 7.176-16.043 16s7.195 16 16.043 16c8.848 0 16.043-7.176 16.043-16s-7.195-16-16.043-16zM16.578 2.133c7.691 0 13.904 6.196 13.904 13.867s-6.212 13.867-13.904 13.867c-7.691 0-13.904-6.196-13.904-13.867s6.212-13.867 13.904-13.867zM16.578 7.111c-2.941 0-5.348 2.4-5.348 5.333-0.008 0.589 0.464 1.073 1.054 1.082s1.076-0.462 1.085-1.052c0-0.010 0-0.020 0-0.030 0-1.78 1.424-3.2 3.208-3.2s3.209 1.42 3.209 3.2c0 1.107-0.447 1.863-1.181 2.633s-1.751 1.468-2.696 2.222c-0.254 0.203-0.401 0.509-0.401 0.833v1.422c-0.008 0.589 0.464 1.073 1.054 1.082s1.076-0.462 1.085-1.052c0-0.010 0-0.020 0-0.030v-0.9c0.779-0.593 1.694-1.246 2.518-2.111 0.96-1.009 1.76-2.369 1.76-4.1 0-2.933-2.407-5.333-5.348-5.333zM16.578 22.044c-0.788 0-1.426 0.637-1.426 1.422s0.638 1.422 1.426 1.422c0.788 0 1.426-0.637 1.426-1.422s-0.638-1.422-1.426-1.422z"></path>
    </symbol>
    <symbol id="icon-facebook" viewBox="0 0 16 32">
      <path
        d="M3.842 16.126v15.471c0 0.222 0.18 0.403 0.403 0.403h5.745c0.222 0 0.403-0.18 0.403-0.403v-15.723h4.165c0.209 0 0.384-0.16 0.401-0.369l0.401-4.737c0.020-0.235-0.166-0.437-0.402-0.437h-4.566v-3.361c0-0.788 0.639-1.426 1.426-1.426h3.21c0.223 0 0.403-0.18 0.403-0.403v-4.737c0-0.223-0.18-0.403-0.403-0.403h-5.424c-3.183 0-5.763 2.58-5.763 5.763v4.567h-2.873c-0.223 0-0.403 0.18-0.403 0.403v4.737c0 0.223 0.18 0.403 0.403 0.403h2.873v0.252z"></path>
    </symbol>
    <symbol id="icon-youtube" viewBox="0 0 47 32">
      <path
        d="M46.531 9.953c0-1.306-0.262-2.6-0.771-3.807s-1.255-2.304-2.196-3.228c-0.941-0.924-2.057-1.657-3.286-2.157s-2.546-0.757-3.876-0.757h-26.272c-2.687 0-5.263 1.048-7.163 2.914s-2.967 4.396-2.967 7.035v12.093c0 2.639 1.067 5.169 2.967 7.035s4.476 2.914 7.163 2.914h26.272c2.687 0 5.263-1.048 7.163-2.914s2.967-4.396 2.967-7.035v-12.093zM29.955 16.609l-10.478 5.644c-0.455 0.242-0.865-0.082-0.865-0.59v-11.585c0-0.515 0.422-0.838 0.878-0.583l10.55 5.941c0.102 0.066 0.184 0.157 0.239 0.265s0.078 0.227 0.070 0.347c-0.009 0.12-0.050 0.235-0.119 0.334s-0.164 0.178-0.274 0.229z"></path>
    </symbol>
    <symbol id="icon-upload" viewBox="0 0 32 32">
      <path
        d="M17.561 5.337v14.958c0 0.861-0.693 1.559-1.561 1.559-0.862 0-1.561-0.698-1.561-1.559v-14.963l-1.763 1.763c-0.604 0.604-1.584 0.604-2.197-0.010-0.61-0.61-0.606-1.602-0.010-2.197l4.435-4.435c0.3-0.3 0.694-0.451 1.088-0.452l0.012 0.005c0.396 0.001 0.791 0.151 1.087 0.447l4.436 4.435c0.604 0.604 0.604 1.584-0.010 2.197-0.61 0.61-1.602 0.606-2.197 0.010l-1.758-1.758zM3.512 28.878h24.976v-10.934c0-0.858 0.693-1.554 1.561-1.554 0.862 0 1.561 0.701 1.561 1.554v12.502c0 0.429-0.173 0.817-0.454 1.098-0.286 0.282-0.674 0.456-1.105 0.456h-28.102c-0.429 0-0.818-0.172-1.1-0.453-0.284-0.287-0.459-0.675-0.459-1.101v-12.502c0-0.858 0.693-1.554 1.561-1.554 0.862 0 1.561 0.701 1.561 1.554v10.934z"></path>
    </symbol>
  </defs>
</svg>
