<!-- Generated by IcoMoon.io -->
<svg version="1.1" xmlns="http://www.w3.org/2000/svg" width="36" height="32" viewBox="0 0 36 32">
<title>cart</title>
<path d="M4.889 30.29c0.338 0.997 1.206 1.662 2.267 1.71h21.707c1.061-0.047 1.978-0.712 2.267-1.71l4.486-16.147c0.241-0.665-0.096-1.425-0.772-1.662-0.193-0.047-0.338-0.095-0.531-0.095h-4.341l-6.753-11.493c-0.482-0.855-1.592-1.14-2.46-0.665s-1.158 1.567-0.675 2.422l5.644 9.783h-15.436l5.692-9.783c0.482-0.855 0.145-1.947-0.724-2.422s-1.93-0.19-2.412 0.665l-6.753 11.54h-4.39c-0.724-0.047-1.351 0.475-1.399 1.187 0 0.19 0 0.38 0.096 0.522l4.486 16.147zM27.898 28.486h-19.778l-1.206-4.464h22.238l-1.254 4.464zM7.108 15.996h24.215l-1.254 4.464h-24.167l-1.206-4.464h2.412z"></path>
</svg>
