<!-- Generated by IcoMoon.io -->
<svg version="1.1" xmlns="http://www.w3.org/2000/svg" width="32" height="32" viewBox="0 0 32 32">
<title>cross-thin</title>
<path d="M1.301 0.223c-0.298-0.298-0.78-0.298-1.077 0s-0.298 0.78 0 1.077l1.077-1.077zM30.699 31.777c0.298 0.297 0.78 0.297 1.078 0s0.297-0.78 0-1.078l-1.078 1.078zM31.777 1.301c0.297-0.298 0.297-0.78 0-1.077s-0.78-0.298-1.078 0l1.078 1.077zM0.223 30.699c-0.298 0.298-0.298 0.78 0 1.078s0.78 0.297 1.077 0l-1.077-1.078zM0.223 1.301l30.476 30.476 1.078-1.078-30.476-30.476-1.077 1.077zM30.699 0.223l-30.476 30.476 1.077 1.078 30.476-30.476-1.078-1.077z"></path>
</svg>
