<!-- Generated by IcoMoon.io -->
<svg version="1.1" xmlns="http://www.w3.org/2000/svg" width="52" height="32" viewBox="0 0 52 32">
<title>eye</title>
<path d="M52.317 15.392c0.133 0.666 0.041 1.5-0.309 2.073-0.066 0.115-0.14 0.225-0.221 0.329-0.187 0.275-0.379 0.547-0.574 0.815-1.181 1.609-2.465 3.134-3.923 4.496-1.47 1.373-3.066 2.603-4.767 3.676-3.236 2.037-6.919 3.483-10.685 4.146-4.2 0.735-8.455 0.675-12.62-0.271-1.995-0.452-3.899-1.151-5.767-1.977-1.64-0.725-3.206-1.607-4.677-2.634-3.294-2.294-6.127-5.187-8.353-8.528-0.56-0.844-0.56-2.2 0-3.043 0.247-0.368 0.5-0.729 0.759-1.085 1.181-1.609 2.465-3.134 3.923-4.496 1.47-1.373 3.066-2.603 4.767-3.676 3.236-2.037 6.919-3.483 10.685-4.146 4.201-0.735 8.455-0.675 12.62 0.271 1.995 0.452 3.899 1.151 5.768 1.977 1.64 0.725 3.206 1.607 4.677 2.634 3.183 2.216 5.934 4.995 8.119 8.199 0.073 0.096 0.141 0.196 0.204 0.299l0.024 0.036c0.178 0.275 0.297 0.583 0.351 0.905zM35.776 23.535c1.967-0.862 3.829-1.948 5.548-3.236 1.596-1.271 3.049-2.712 4.336-4.296-1.288-1.584-2.742-3.025-4.338-4.298-1.722-1.289-3.586-2.376-5.556-3.239-2-0.802-4.086-1.371-6.217-1.693-2.229-0.267-4.481-0.267-6.71-0-2.135 0.324-4.225 0.894-6.229 1.698-1.967 0.862-3.829 1.948-5.548 3.236-1.596 1.271-3.050 2.711-4.335 4.296 1.288 1.584 2.742 3.025 4.338 4.298 1.722 1.289 3.586 2.376 5.556 3.239 2 0.802 4.087 1.371 6.217 1.693 2.229 0.267 4.481 0.267 6.71 0 2.135-0.324 4.225-0.894 6.229-1.698zM33.458 11.149c0.956 1.335 1.431 3.053 1.472 4.685 0.003 0.054 0.004 0.107 0.004 0.16v0.006l-0 0.018c-0.008 0.933-0.141 1.912-0.47 2.784-0.192 0.545-0.43 1.074-0.711 1.579-0.289 0.494-0.651 0.952-1.012 1.386-0.573 0.699-1.32 1.29-2.091 1.748-0.784 0.47-1.681 0.844-2.579 1.012-0.868 0.163-1.742 0.265-2.622 0.157l-0.027-0.003c-0.54-0.065-1.091-0.132-1.613-0.28-0.518-0.151-1.018-0.374-1.507-0.597-1.495-0.681-2.784-1.959-3.622-3.357-0.868-1.44-1.344-3.266-1.199-4.954 0.078-0.868 0.205-1.718 0.536-2.525 0.021-0.050 0.041-0.1 0.062-0.15 0.184-0.446 0.37-0.897 0.619-1.309 0.286-0.45 0.604-0.879 0.952-1.284 1.055-1.272 2.622-2.206 4.201-2.646 1.633-0.458 3.55-0.446 5.153 0.151 0.796 0.295 1.555 0.633 2.23 1.151 0.040 0.030 0.079 0.060 0.119 0.090 0.388 0.294 0.771 0.584 1.104 0.934 0.363 0.389 0.697 0.804 1.001 1.242zM27.857 18.151c0.173-0.154 0.337-0.318 0.491-0.491 0.132-0.197 0.252-0.402 0.36-0.614 0.077-0.226 0.14-0.457 0.189-0.692 0.007-0.117 0.012-0.235 0.012-0.354-0.003-0.125-0.007-0.248-0.015-0.372-0.049-0.231-0.111-0.458-0.187-0.682-0.107-0.212-0.227-0.416-0.36-0.613-0.154-0.173-0.318-0.337-0.491-0.491-0.197-0.132-0.402-0.252-0.614-0.36-0.223-0.076-0.451-0.138-0.681-0.187-0.244-0.014-0.488-0.014-0.732-0-0.232 0.049-0.461 0.112-0.686 0.188-0.212 0.107-0.416 0.227-0.613 0.36-0.173 0.154-0.337 0.318-0.49 0.491-0.132 0.197-0.252 0.402-0.36 0.614-0.076 0.223-0.138 0.451-0.187 0.681-0.014 0.244-0.014 0.488-0 0.732 0.049 0.232 0.112 0.461 0.188 0.686 0.107 0.212 0.227 0.416 0.36 0.613 0.154 0.173 0.318 0.337 0.491 0.491 0.197 0.132 0.402 0.252 0.614 0.36 0.223 0.076 0.451 0.138 0.681 0.187 0.244 0.014 0.488 0.014 0.732 0 0.232-0.049 0.461-0.112 0.686-0.188 0.212-0.107 0.416-0.227 0.613-0.36z"></path>
</svg>
