<!-- Generated by IcoMoon.io -->
<svg version="1.1" xmlns="http://www.w3.org/2000/svg" width="32" height="32" viewBox="0 0 32 32">
<title>scan</title>
<path d="M12.8 2.277c0 0.842-0.716 1.525-1.6 1.525h-8v7.624c0 0.842-0.716 1.525-1.6 1.525s-1.6-0.683-1.6-1.525v-9.149c0-0.842 0.716-1.525 1.6-1.525h9.6c0.884 0 1.6 0.683 1.6 1.525zM30.4 19.049c-0.884 0-1.6 0.683-1.6 1.525v7.624h-8c-0.884 0-1.6 0.683-1.6 1.525s0.716 1.525 1.6 1.525h9.6c0.884 0 1.6-0.683 1.6-1.525v-9.149c0-0.842-0.716-1.525-1.6-1.525zM30.4 0.752h-9.6c-0.884 0-1.6 0.683-1.6 1.525s0.716 1.525 1.6 1.525h8v7.624c0 0.842 0.716 1.525 1.6 1.525s1.6-0.683 1.6-1.525v-9.149c0-0.842-0.716-1.525-1.6-1.525zM11.2 28.198h-8v-7.624c0-0.842-0.716-1.525-1.6-1.525s-1.6 0.683-1.6 1.525v9.149c0 0.842 0.716 1.525 1.6 1.525h9.6c0.884 0 1.6-0.683 1.6-1.525s-0.716-1.525-1.6-1.525z"></path>
</svg>
