<!-- Generated by IcoMoon.io -->
<svg version="1.1" xmlns="http://www.w3.org/2000/svg" width="32" height="32" viewBox="0 0 32 32">
<title>upload</title>
<path d="M17.561 5.337v14.958c0 0.861-0.693 1.559-1.561 1.559-0.862 0-1.561-0.698-1.561-1.559v-14.963l-1.763 1.763c-0.604 0.604-1.584 0.604-2.197-0.010-0.61-0.61-0.606-1.602-0.010-2.197l4.435-4.435c0.3-0.3 0.694-0.451 1.088-0.452l0.012 0.005c0.396 0.001 0.791 0.151 1.087 0.447l4.436 4.435c0.604 0.604 0.604 1.584-0.010 2.197-0.61 0.61-1.602 0.606-2.197 0.010l-1.758-1.758zM3.512 28.878h24.976v-10.934c0-0.858 0.693-1.554 1.561-1.554 0.862 0 1.561 0.701 1.561 1.554v12.502c0 0.429-0.173 0.817-0.454 1.098-0.286 0.282-0.674 0.456-1.105 0.456h-28.102c-0.429 0-0.818-0.172-1.1-0.453-0.284-0.287-0.459-0.675-0.459-1.101v-12.502c0-0.858 0.693-1.554 1.561-1.554 0.862 0 1.561 0.701 1.561 1.554v10.934z"></path>
</svg>
