<!-- Generated by IcoMoon.io -->
<svg version="1.1" xmlns="http://www.w3.org/2000/svg" width="1024" height="1024" viewBox="0 0 1024 1024">
<title></title>
<g id="icomoon-ignore">
</g>
<path d="M815.269 150.909c-82.341-52.985-190.87-81.091-301.769-81.091v0.003c-120.008 0-228.51 22.676-309.209 76.364-80.61 53.628-131.238 139.795-131.349 255.634-1.488 133.309 25.96 243.696 75.907 338.546 46.71 86.256 111.53 143.998 184.558 143.998 119.307 0 210.624-88.804 280.559-174.907 53.138-57.592 81.703-127.693 143.628-175.64 32.331-10.531 77.926-16.148 118.697-34.544s76.839-55.899 77.765-116.729c-1.489-103.418-67.734-184.447-138.787-231.634zM513.501 116.366c102.55 0 202.685 26.697 275.35 73.454 53.087 34.16 91.506 77.878 108.276 130.545l-441.671-201.818c18.92-1.352 38.164-2.182 58.045-2.182zM402.617 824.367l-178.233-54.181c-12.543-17.581-24.816-35.742-33.488-51.637-12.153-22.441-23.185-47.687-32.744-75.272v-0.004l349.024 112.731c-32.343 29.917-67.281 54.17-104.558 68.364zM543.642 718.911l-401.49-130.182c-5.994-24.166-10.92-49.774-14.512-76.363l460.652 153.454c-14.364 18.223-30.444 37.486-44.65 53.090zM618.059 626.55l-495.628-165.092c-1.306-19.302-1.985-39.117-1.861-59.274 0-10.463 0.285-20.421 1.116-30.18v-0.001l539.534 196.365c-13.501 17.955-27.829 37.49-43.162 58.183zM742.711 489.823c-20.697 6.739-36.206 20.976-51.724 39.633l-561.487-204.362c10.116-39.966 28.653-72.97 53.954-100.363l603.908 253.093c-14.974 3.635-30.058 7.243-44.65 12zM853.595 458.181c-202.346-91.13-422.034-179.876-631.443-267.635 46.782-26.523 98.307-49.616 146.605-60.362l537.673 245.818c-2.036 34.701-26.171 69.615-52.834 82.179z"></path>
<path d="M862.885 93.818c-95.626-61.28-221.704-93.818-350.885-93.818-140.036 0-266.635 26.38-360.186 88.365-93.55 61.981-151.814 161.288-151.814 295.635 0 171.67 33 328.925 93.395 445.456s151.398 194.544 263.814 194.544c145.905 0 240.145-82.404 303.255-163.635 31.555-40.617 56.080-81.404 76.65-112.364 20.575-30.96 39.975-49.873 44.28-51.275 91.754-24.155 154.49-61.842 192.374-118.181 38.101-56.659 50.231-128.477 50.231-217.817 0-113.346-65.489-205.629-161.115-266.909zM934.325 552.728c-30.366 45.158-80.333 77.225-166.325 99.635-34.513 14.348-54.89 46.71-70.699 70.542-21.472 32.315-45.32 71.53-74.787 109.454-58.935 75.859-137.346 145.093-265.304 145.093-90.002 0-165.698-61.625-221.395-169.094-55.697-107.457-88.186-258.572-88.186-424.357 0-121.653 48.9-202.709 130.977-257.092 82.078-54.379 199.572-80.363 333.395-80.363 120.867 0 238.883 31.099 324.836 86.181 85.957 55.085 139.536 131.893 139.536 228.001 0 85.205-11.681 146.842-42.047 192z"></path>
</svg>
