<!-- Generated by IcoMoon.io -->
<svg version="1.1" xmlns="http://www.w3.org/2000/svg" width="47" height="32" viewBox="0 0 47 32">
<title>youtube</title>
<path d="M46.531 9.953c0-1.306-0.262-2.6-0.771-3.807s-1.255-2.304-2.196-3.228c-0.941-0.924-2.057-1.657-3.286-2.157s-2.546-0.757-3.876-0.757h-26.272c-2.687 0-5.263 1.048-7.163 2.914s-2.967 4.396-2.967 7.035v12.093c0 2.639 1.067 5.169 2.967 7.035s4.476 2.914 7.163 2.914h26.272c2.687 0 5.263-1.048 7.163-2.914s2.967-4.396 2.967-7.035v-12.093zM29.955 16.609l-10.478 5.644c-0.455 0.242-0.865-0.082-0.865-0.59v-11.585c0-0.515 0.422-0.838 0.878-0.583l10.55 5.941c0.102 0.066 0.184 0.157 0.239 0.265s0.078 0.227 0.070 0.347c-0.009 0.12-0.050 0.235-0.119 0.334s-0.164 0.178-0.274 0.229z"></path>
</svg>
