<svg width="167" height="27" viewBox="0 0 167 27" fill="none" xmlns="http://www.w3.org/2000/svg">
<g clip-path="url(#clip0)">
<path d="M55.4692 6.15356H58.1468L53.5859 20.866H50.9672L47.5244 9.97886L44.0817 20.866H41.4628L36.902 6.15356H39.5797L42.8164 17.3351L46.2886 6.15356H48.7603L52.2323 17.3645L55.4692 6.15356Z" fill="#1D222B"/>
<path d="M63.8672 6.15356H61.3071V20.866H63.8672V6.15356Z" fill="#1D222B"/>
<path d="M75.4067 5.771C77.1326 5.771 78.5155 6.31537 79.5556 7.40412C80.5952 8.49286 81.115 9.96901 81.1151 11.8325V20.866H78.5551V11.9797C78.5551 10.7834 78.2314 9.85646 77.584 9.19895C76.9367 8.54203 76.0441 8.21349 74.9064 8.21333C73.631 8.21333 72.6012 8.61057 71.8169 9.40505C71.0321 10.1994 70.6398 11.4205 70.6399 13.0683V20.866H68.0799V6.15349H70.6399V8.27208C71.6794 6.60496 73.2684 5.77126 75.4067 5.771Z" fill="#1D222B"/>
<path d="M86.894 14.687C87.1486 16.0015 87.7518 17.0215 88.7035 17.7471C89.6548 18.4732 90.8269 18.8361 92.2199 18.8359C94.1619 18.8359 95.5743 18.1199 96.4571 16.6879L98.6344 17.9237C97.2023 20.1408 95.0445 21.2491 92.161 21.2487C89.8263 21.2487 87.9283 20.518 86.4673 19.0567C85.0056 17.5955 84.2749 15.7466 84.2751 13.51C84.2751 11.2935 84.9911 9.44956 86.4232 7.97811C87.8549 6.50686 89.7086 5.77124 91.9844 5.77124C94.1421 5.77124 95.9027 6.53139 97.2661 8.0517C98.6295 9.57211 99.3112 11.4014 99.3113 13.5395C99.3104 13.9237 99.2808 14.3072 99.223 14.687L86.894 14.687ZM91.9844 8.18404C90.611 8.18404 89.4733 8.57149 88.5712 9.34639C87.6686 10.1216 87.1095 11.1564 86.894 12.4507H96.7219C96.5058 11.058 95.9565 9.99873 95.0741 9.27279C94.1913 8.54739 93.1614 8.18447 91.9844 8.18404V8.18404Z" fill="#1D222B"/>
<path d="M110.244 5.82983C112.363 5.82983 114.168 6.57035 115.659 8.05139C117.149 9.53269 117.895 11.3521 117.895 13.5096C117.895 15.6678 117.149 17.4873 115.659 18.9681C114.168 20.4494 112.363 21.1899 110.244 21.1896C108.734 21.1896 107.39 20.8071 106.213 20.042C105.045 19.2875 104.116 18.2158 103.535 16.9524V26.9954H102.476V6.15342H103.535V10.067C104.116 8.80359 105.045 7.73185 106.213 6.97733C107.39 6.21233 108.734 5.82983 110.244 5.82983ZM105.463 18.2618C106.747 19.5469 108.322 20.1894 110.185 20.1892C112.049 20.1892 113.623 19.5467 114.908 18.2618C116.193 16.9772 116.835 15.3931 116.836 13.5096C116.836 11.6265 116.193 10.0425 114.908 8.75763C113.623 7.47301 112.049 6.83056 110.185 6.8303C108.322 6.8303 106.747 7.47274 105.463 8.75763C104.178 10.0426 103.535 11.6266 103.535 13.5096C103.535 15.3929 104.178 16.977 105.463 18.2618Z" fill="#1D222B"/>
<path d="M128.197 21.1896C126.059 21.1896 124.244 20.4491 122.753 18.9681C121.262 17.4871 120.517 15.6676 120.517 13.5096C120.517 11.3519 121.262 9.53253 122.753 8.05138C124.244 6.5704 126.058 5.82989 128.197 5.82983C130.355 5.82983 132.179 6.57035 133.67 8.05138C135.16 9.53268 135.906 11.3521 135.906 13.5096C135.906 15.6678 135.161 17.4873 133.67 18.9681C132.179 20.4494 130.355 21.1899 128.197 21.1896ZM123.474 18.2618C124.759 19.5469 126.333 20.1894 128.197 20.1891C130.06 20.1891 131.639 19.5467 132.934 18.2618C134.229 16.9772 134.876 15.3931 134.876 13.5096C134.876 11.6265 134.229 10.0425 132.934 8.75763C131.64 7.473 130.06 6.83056 128.197 6.83029C126.333 6.83029 124.759 7.47274 123.474 8.75763C122.189 10.0426 121.547 11.6266 121.547 13.5096C121.547 15.3929 122.189 16.977 123.474 18.2618Z" fill="#1D222B"/>
<path d="M140.285 6.15356H139.225V20.866H140.285V6.15356Z" fill="#1D222B"/>
<path d="M151.103 5.82983C152.809 5.82983 154.177 6.35947 155.207 7.41873C156.237 8.47811 156.752 9.8807 156.752 11.6265V20.8659H155.722V11.6265C155.722 10.1947 155.301 9.03732 154.457 8.15436C153.613 7.27154 152.466 6.83019 151.014 6.8303C149.406 6.8303 148.091 7.37957 147.071 8.47811C146.051 9.57691 145.541 11.0972 145.541 13.0389V20.8659H144.482V6.15342H145.541V9.41966C146.051 8.22332 146.792 7.32582 147.763 6.72717C148.734 6.12916 149.847 5.83005 151.103 5.82983Z" fill="#1D222B"/>
<path d="M166.247 7.12472H161.716V17.3939C161.716 18.6298 162.049 19.4145 162.716 19.748C163.383 20.0818 164.56 20.1504 166.247 19.9539V20.8661C164.325 21.1603 162.917 21.0377 162.025 20.4983C161.132 19.959 160.686 18.9242 160.686 17.3939V1.33297L161.716 1.3291V6.15363H166.247V7.12472Z" fill="#1D222B"/>
<path d="M21.4585 3.3299C20.9583 2.13004 20.1525 0.453126 20.1279 0.400499C20.0692 0.262249 19.9645 0.148545 19.8315 0.078651C19.6986 0.0087569 19.5456 -0.0130294 19.3984 0.016983C19.2512 0.0469955 19.1189 0.126961 19.024 0.243332C18.929 0.359704 18.8772 0.505325 18.8773 0.655524C18.8894 0.773196 18.9192 0.888372 18.9656 0.997174C19.128 1.36263 19.8958 3.18606 20.584 5.21964C20.8806 6.07082 21.0931 6.94906 21.2182 7.84173C21.676 11.273 20.6853 14.2956 16.9663 16.0742C15.0831 16.9733 12.8992 16.9585 11.1271 15.86C8.80094 14.4198 6.65619 12.1639 4.60789 11.8729C3.62706 11.7324 2.98134 11.9007 2.26207 12.1639C1.64251 10.4851 2.43862 7.3039 3.34262 4.64094C3.64831 3.75657 4.65693 1.29468 4.78771 0.997173C4.83572 0.887867 4.86501 0.771267 4.87435 0.65225C4.87408 0.479344 4.80528 0.313596 4.68302 0.191332C4.56075 0.0690691 4.39501 0.000264974 4.2221 0C4.0921 0.0022168 3.96558 0.0423936 3.85811 0.115586C3.75065 0.188778 3.66693 0.291793 3.61725 0.411952C3.59927 0.44955 2.79336 2.13004 2.29314 3.3299C2.1689 3.62743 1.08835 6.47347 0.743418 7.65537C0.038856 10.0731 -0.216159 12.5857 0.20233 14.5261C0.310226 15.023 0.542356 15.5843 0.89872 16.2098L0.900356 16.2115C1.83378 17.8478 3.62053 19.9157 6.23771 22.3842C8.21081 24.2461 10.385 26.0345 11.356 26.8191C11.5026 26.937 11.6853 27.0009 11.8734 27C12.0616 26.9991 12.2437 26.9335 12.3891 26.8143C13.4582 25.9331 15.961 23.8521 17.5156 22.3842C19.1078 20.8835 20.3905 19.5327 21.3637 18.3317L21.3654 18.3301C22.6012 16.8081 23.3319 15.5347 23.5493 14.5261C24.2359 11.3498 22.8415 6.6402 21.4585 3.3299Z" fill="#DB5360"/>
<path d="M11.8497 9.63354C12.4717 9.62423 13.0651 9.37055 13.5015 8.92732C13.938 8.4841 14.1826 7.88692 14.1824 7.26484C14.2396 6.25623 12.9564 3.96599 12.2698 2.81842C12.2265 2.74556 12.165 2.68521 12.0914 2.6433C12.0177 2.60138 11.9344 2.57935 11.8497 2.57935C11.7649 2.57935 11.6816 2.60138 11.608 2.6433C11.5343 2.68521 11.4728 2.74556 11.4296 2.81842C10.743 3.96599 9.45972 6.25623 9.51694 7.26484C9.51673 7.88691 9.7613 8.48409 10.1978 8.92732C10.6343 9.37055 11.2277 9.62423 11.8497 9.63354Z" fill="#DB5360"/>
</g>
<defs>
<clipPath id="clip0">
<rect width="166.247" height="27" fill="white"/>
</clipPath>
</defs>
</svg>
