<svg width="27" height="40" viewBox="0 0 27 40" fill="none" xmlns="http://www.w3.org/2000/svg">
<path d="M19.9689 13.3333C19.9689 9.66146 16.9741 6.66667 13.3022 6.66667C9.63035 6.66667 6.63556 9.66146 6.63556 13.3333C6.63556 17.0052 9.63035 20 13.3022 20C16.9741 20 19.9689 17.0052 19.9689 13.3333ZM26.6357 13.3333C26.6357 14.9219 26.4534 16.5625 25.7763 17.9948L16.2971 38.151C15.7502 39.2969 14.5523 40 13.3023 40C12.0523 40 10.8544 39.2969 10.3336 38.151L0.828369 17.9948C0.151286 16.5625 -0.0310059 14.9219 -0.0310059 13.3333C-0.0310059 5.96354 5.93254 0 13.3023 0C20.6721 0 26.6357 5.96354 26.6357 13.3333Z" fill="#FA4747"/>
</svg>
