<!-- Generated by IcoMoon.io -->
<svg version="1.1" xmlns="http://www.w3.org/2000/svg" width="910" height="1024" viewBox="0 0 910 1024">
<path fill="red" d="M433.099 1014.391l21.902 9.609 21.902-9.609c0.606-0.324 1.658-0.859 3.124-1.604 41.927-21.345 422.973-215.353 422.973-595.886 0-230.544-201.102-416.901-448-416.901s-448 186.357-448 416.901c0 380.534 381.047 574.541 422.973 595.886 1.467 0.745 2.518 1.28 3.124 1.604zM106.557 416.901c0-176.75 157.298-320.84 348.444-320.84s348.444 144.090 348.444 320.84c0 138.326-59.733 265.123-181.191 378.474-67.698 61.48-133.404 103.748-167.253 121.037-79.644-44.186-348.444-213.254-348.444-499.511zM267.834 411.122c0 99.903 83.627 180.59 187.164 180.59s187.167-80.688 187.167-180.59c0-99.903-83.629-180.593-187.167-180.593s-187.164 80.69-187.164 180.593zM367.39 411.122c0-46.109 39.822-84.533 87.609-84.533s87.609 38.424 87.609 84.533c0 46.109-39.822 84.533-87.609 84.533s-87.609-38.424-87.609-84.533z"></path>
</svg>
