<svg width="258" height="258" viewBox="0 0 258 258" fill="none" xmlns="http://www.w3.org/2000/svg">
<path fill-rule="evenodd" clip-rule="evenodd" d="M120.8 1.2512C115.892 1.6652 107.896 2.6962 105.2 3.2632C102.466 3.8392 98.293 4.7832 96.6 5.2102C94.596 5.7162 84.951 8.7422 84 9.1642C83.56 9.3602 81.58 10.1842 79.6 10.9972C75.576 12.6492 68.192 16.2902 65.789 17.8072C64.924 18.3532 64.114 18.8002 63.989 18.8002C63.477 18.8002 54.472 24.8902 50.967 27.6062C43.998 33.0072 35.171 41.4152 30.8 46.8172C21.458 58.3602 15.551 68.1462 10.408 80.6002C10.135 81.2602 9.68801 82.3402 9.41401 83.0002C6.75901 89.3912 3.937 99.9652 2.21 110C0.420004 120.397 0.426005 139.232 2.22201 148.6C2.43301 149.7 2.95001 152.4 3.37101 154.6C9.13501 184.718 28.87 215.703 53 232.517C75.79 248.397 96.396 255.776 121.9 257.191C141.916 258.301 160.309 255.121 179.2 247.285C225.78 227.964 257.108 180.56 257.108 129.4C257.108 119.753 256.244 110.836 254.588 103.4C252.494 93.9912 249.901 85.5272 247.585 80.5402C247.263 79.8462 247 79.1762 247 79.0512C247 78.9252 245.834 76.4332 244.41 73.5112C235.138 54.4982 222.173 38.9282 204.8 25.9422C201.172 23.2302 194.46 18.8002 193.979 18.8002C193.872 18.8002 193.06 18.3432 192.175 17.7842C189.733 16.2432 181.601 12.2392 178 10.8052C176.24 10.1042 174.44 9.3692 174 9.1702C170.914 7.7782 160.014 4.7392 152.8 3.2592C143.359 1.3222 129.946 0.480196 120.8 1.2512ZM134.8 4.6982C136.728 5.3752 141 8.9852 141 9.9382C141 10.4772 141.776 10.6882 145.6 11.1872C159.328 12.9772 174.415 17.9472 186 24.4962C192.412 28.1202 196.045 30.4672 200.365 33.7762L203.53 36.2002H207.365C215.661 36.2002 221.971 42.4422 221.99 50.6672C221.999 54.2172 222.106 54.8532 222.834 55.6672C227.194 60.5422 234.985 73.6902 239.03 83.0002C240.918 87.3442 243.405 95.0142 244.802 100.8C246.265 106.859 246.518 108.126 247.196 112.785C247.591 115.5 248.007 117.084 248.381 117.293C255.889 121.495 256.696 135.138 249.739 140.245C247.708 141.736 247.792 141.529 246.985 147C246.334 151.411 245.221 156.731 244.141 160.6C243.55 162.716 240.66 171.582 240.229 172.6C236.957 180.339 231.904 190.288 230.359 192.031C230.052 192.379 229.8 192.793 229.8 192.951C229.8 193.221 226.654 197.964 226.185 198.4C226.067 198.51 225.077 199.829 223.985 201.332L222 204.063V207.932C222 216.43 213.686 223.95 206.08 222.333C204.097 221.912 203.511 222.181 199.973 225.139C195.285 229.057 182.075 236.522 174.4 239.59C172.64 240.294 170.84 241.019 170.4 241.202C168.456 242.009 163.291 243.632 159.8 244.532C154.224 245.969 151.204 246.555 142.917 247.806C141.841 247.968 141.186 248.383 140.535 249.315C135.354 256.731 122.684 256.731 117.47 249.315C116.817 248.385 116.157 247.968 115.083 247.806C106.796 246.555 103.776 245.969 98.2 244.532C94.709 243.632 89.544 242.009 87.6 241.202C87.16 241.019 85.36 240.294 83.6 239.591C79.496 237.953 71.677 234.058 68.811 232.224C67.586 231.441 66.49 230.8 66.376 230.8C66.051 230.8 58.662 225.682 56.126 223.7C53.869 221.936 53.837 221.926 51.926 222.332C44.33 223.947 36.001 216.425 35.999 207.948L35.998 204.097L32.178 198.748C28.219 193.205 27.605 192.287 26.146 189.726C17.81 175.097 13.565 162.752 10.603 144.523C10.179 141.914 9.998 141.542 8.668 140.533C1.712 135.26 1.883 121.94 8.961 117.76C10.013 117.138 10.205 116.723 10.598 114.228C13.056 98.6042 15.984 88.9062 21.898 76.8002C25.175 70.0922 32.004 59.2182 35.169 55.6672C35.895 54.8532 36 54.2202 36 50.6672C36 42.4672 42.339 36.2002 50.634 36.2002H54.468L57.634 33.7562C72.656 22.1592 95.629 12.8092 113.534 11.0052C115.661 10.7902 116.417 10.5372 116.934 9.8652C121.136 4.4122 128.18 2.3752 134.8 4.6982ZM124.158 8.5322C122.665 9.2032 121.821 9.98219 120.746 11.6862L119.8 13.1842V34.3232V55.4632L121.011 57.2912C124.36 62.3482 134.734 62.0262 137.409 56.7822C138.543 54.5592 138.65 13.8972 137.526 12.0862C136.371 10.2252 135.251 9.1512 133.851 8.5652C132.207 7.8762 125.669 7.8542 124.158 8.5322ZM111.6 15.1792C110.94 15.3482 108.6 15.8012 106.4 16.1852C104.2 16.5702 102.04 17.0272 101.6 17.2022C101.16 17.3762 99.54 17.8222 98 18.1922C96.46 18.5622 94.84 19.0182 94.4 19.2042C93.96 19.3902 92.43 19.9312 91 20.4042C83.111 23.0192 73.786 27.6142 66.2 32.6272C64.11 34.0072 61.264 35.9712 59.875 36.9912L57.351 38.8452L60.675 42.2172C62.504 44.0712 64.134 45.5912 64.299 45.5942C64.667 45.6012 68.794 42.7232 71.316 40.7002C72.344 39.8752 73.348 39.2002 73.548 39.2002C73.747 39.2002 76.285 37.8502 79.187 36.2002C82.089 34.5502 84.651 33.2002 84.881 33.2002C85.11 33.2002 87.165 32.3742 89.449 31.3632C93.078 29.7582 96.69 28.5822 102.352 27.1622C103.205 26.9482 104.207 26.6112 104.577 26.4122C104.947 26.2142 107.278 25.7692 109.756 25.4242C116.14 24.5332 115.8 24.8732 115.8 19.3862V14.8002L114.3 14.8362C113.475 14.8562 112.26 15.0102 111.6 15.1792ZM142.467 15.0672C142.32 15.2132 142.2 17.2772 142.2 19.6532C142.2 24.8162 141.919 24.5372 147.995 25.3902C150.34 25.7192 152.402 26.0772 152.577 26.1862C152.89 26.3792 153.901 26.6602 160.4 28.3612C162.16 28.8212 164.14 29.4632 164.8 29.7882C166.731 30.7392 172.743 33.2002 173.133 33.2002C173.329 33.2002 175.334 34.2602 177.588 35.5562C179.843 36.8522 182.477 38.2662 183.443 38.6982C184.41 39.1302 185.92 40.0562 186.8 40.7562C189.354 42.7902 193.373 45.6002 193.726 45.6002C194.868 45.6002 200.559 38.8892 199.895 38.3252C194.881 34.0662 182.498 26.6892 175 23.4952C167.198 20.1722 158.462 17.4462 151.6 16.1942C149.62 15.8332 147.245 15.3722 146.323 15.1692C144.347 14.7342 142.839 14.6942 142.467 15.0672ZM49.4 16.6042C32.008 20.5602 11.103 46.5262 16.3 57.7172C16.954 59.1262 17.004 59.1082 18.348 56.9822C26.046 44.7972 38.842 31.4522 51.8 22.0952C54.11 20.4272 56.617 18.6102 57.371 18.0572L58.741 17.0522L57.371 16.5562C55.648 15.9342 52.26 15.9542 49.4 16.6042ZM200.7 16.4992C198.995 17.0462 199.056 17.3232 201.158 18.5542C211.327 24.5142 228.528 40.8462 235.812 51.4572C236.135 51.9282 237.39 53.7692 238.6 55.5482C239.81 57.3272 240.906 58.7872 241.036 58.7912C242.328 58.8382 242.549 52.8502 241.408 48.7312C236.547 31.1892 213.007 12.5512 200.7 16.4992ZM110.855 29.2922L109.31 29.7012L109.581 31.7412C110.344 37.4922 110.696 37.9912 113.61 37.4632L115.8 37.0662V32.9332V28.8002L114.1 28.8412C113.165 28.8642 111.705 29.0672 110.855 29.2922ZM142.2 32.9212V37.0422L144.191 37.4502C146.669 37.9572 146.709 37.9262 147.337 35.0002C148.579 29.2132 148.341 28.8092 143.7 28.8022L142.2 28.8002V32.9212ZM152.192 31.2142C151.977 31.6172 151.8 32.3382 151.8 32.8162C151.8 33.2942 151.52 34.7652 151.178 36.0872C150.445 38.9152 150.282 38.6502 153.239 39.4542C157.477 40.6072 157.194 40.6522 157.779 38.7322C158.069 37.7802 158.643 36.0482 159.053 34.8852C159.464 33.7222 159.8 32.7002 159.8 32.6132C159.8 32.4482 156.113 31.3092 153.892 30.7882C152.836 30.5402 152.51 30.6222 152.192 31.2142ZM100.466 31.7082C97.342 32.6522 97.429 32.2542 99.232 37.3402C100.485 40.8732 100.141 40.7372 104.681 39.4892C107.046 38.8392 107.049 38.8352 106.63 37.1782C106.438 36.4202 106.046 34.6752 105.758 33.3002C105.147 30.3792 105.005 30.3372 100.466 31.7082ZM162.246 37.8482C161.54 39.9642 161.016 41.7462 161.081 41.8082C161.386 42.0962 166.398 44.0002 166.85 44.0002C167.718 44.0002 170.72 37.1452 170.11 36.5572C169.545 36.0132 164.732 34.0002 163.995 34.0002C163.738 34.0002 162.951 35.7322 162.246 37.8482ZM89.531 35.6382L86.662 36.8512L87.365 38.3262C87.751 39.1362 88.56 40.8352 89.163 42.1002C89.766 43.3652 90.386 44.4002 90.541 44.4002C91.19 44.4002 96.4 42.0202 96.4 41.7242C96.4 41.5462 95.873 39.8252 95.229 37.9002C93.86 33.8062 93.863 33.8072 89.531 35.6382ZM79.5 40.5372C76.06 42.5042 76.108 42.2102 78.602 46.1002C80.793 49.5182 81.1 49.6522 83.4 48.2002C84.271 47.6502 85.146 47.2002 85.343 47.2002C86.715 47.2002 86.607 45.9682 84.926 42.4292C82.947 38.2602 83.278 38.3762 79.5 40.5372ZM172.611 42.1762C170.697 46.1882 170.705 46.1152 172.1 46.8232C172.705 47.1312 173.871 47.7912 174.692 48.2912C176.74 49.5392 176.64 49.5942 178.965 45.9402C181.418 42.0872 181.439 42.2102 177.997 40.3002C174.414 38.3112 174.465 38.2932 172.611 42.1762ZM46.887 40.5582C43.466 42.0732 39.8 47.0522 39.8 50.1832C39.8 53.3072 40.735 54.4332 55.654 69.2792C73.413 86.9512 74.211 87.3002 80.866 80.3252C86.83 74.0742 86.672 73.7592 68.401 55.5022C51.961 39.0742 51.29 38.6082 46.887 40.5582ZM205.517 40.4942C203.001 41.3022 175.153 69.6452 174.34 72.2252C172.212 78.9762 182.257 87.0152 187.958 83.1242C190.048 81.6982 215.814 55.9182 217.045 54.0222C219.33 50.5022 218.729 47.6612 214.855 43.6732C211.422 40.1382 209.092 39.3452 205.517 40.4942ZM114.2 41.4912C112.68 41.6932 107.355 42.8152 106 43.2202C105.34 43.4172 103.81 43.8662 102.6 44.2172C101.39 44.5692 100.04 45.0062 99.6 45.1882C99.16 45.3702 98.17 45.7462 97.4 46.0232C90.06 48.6632 76.6 56.2842 76.6 57.8002C76.6 58.2242 80.696 62.4002 81.111 62.4002C81.209 62.4002 82.689 61.4772 84.399 60.3492C92.386 55.0842 103.279 50.6142 112.6 48.7772C115.755 48.1562 115.786 48.1152 115.794 44.5242C115.8 41.4352 115.724 41.2902 114.2 41.4912ZM142.42 41.8922C142.097 42.7342 142.164 47.3282 142.506 47.8332C142.668 48.0702 143.97 48.4942 145.4 48.7742C154.395 50.5362 164.528 54.6352 172.933 59.9122L177.067 62.5072L179.233 60.3672C180.425 59.1902 181.4 58.0272 181.4 57.7812C181.4 56.2832 167.886 48.6432 160.6 46.0232C159.83 45.7462 158.84 45.3702 158.4 45.1882C157.96 45.0062 156.61 44.5692 155.4 44.2172C154.19 43.8662 152.66 43.4172 152 43.2202C150.767 42.8512 145.643 41.7772 143.72 41.4832C143.031 41.3782 142.56 41.5262 142.42 41.8922ZM132.712 43.8202C136.637 46.6662 136.103 52.5642 131.716 54.8322C125.311 58.1452 119.392 49.4142 124.656 44.4172C126.589 42.5822 130.596 42.2842 132.712 43.8202ZM182.413 47.7982C181.196 49.6842 180.2 51.2952 180.2 51.3762C180.2 51.6972 184.233 54.4002 184.712 54.4002C185.839 54.4002 190.646 49.0102 190.106 48.3522C189.655 47.8022 186.39 45.3802 185.113 44.6482C184.795 44.4662 183.855 45.5622 182.413 47.7982ZM70.113 46.5132C67.242 48.6312 67.251 48.8792 70.311 51.9122C73.372 54.9452 73.559 54.9472 77.149 51.9532C77.551 51.6182 73.402 44.8132 72.8 44.8212C72.58 44.8232 71.371 45.5852 70.113 46.5132ZM127.262 47.5312C125.837 49.1062 126.856 51.3332 129 51.3332C130.445 51.3332 131.4 50.3992 131.4 48.9862C131.4 47.0662 128.58 46.0752 127.262 47.5312ZM112.8 52.8002C111.92 52.9692 110.21 53.3942 109 53.7442C107.79 54.0942 106.35 54.4902 105.8 54.6232C105.25 54.7572 104.44 55.0102 104 55.1862C103.56 55.3612 102.39 55.8202 101.4 56.2062C100.41 56.5932 99.01 57.1652 98.29 57.4782C97.569 57.7912 96.487 58.2612 95.883 58.5242C93.826 59.4182 86.372 63.6332 85.21 64.5592L84.051 65.4842L85.448 67.2422C87.181 69.4242 87.8 70.8392 87.8 72.6192C87.8 74.4002 88.149 74.3612 91.128 72.2442C97.394 67.7922 107.802 63.5122 115.965 62.0322C118.954 61.4902 118.867 61.6622 117.435 59.1232C116.765 57.9372 116.076 55.9862 115.904 54.7882C115.56 52.4002 115.403 52.2992 112.8 52.8002ZM142.442 52.8942C142.366 53.1722 142.113 54.4202 141.88 55.6662C141.647 56.9122 140.968 58.6712 140.37 59.5742C139.074 61.5312 139.047 61.4902 142.035 62.0322C150.198 63.5122 160.606 67.7922 166.872 72.2442C169.828 74.3442 170.197 74.3952 170.209 72.7002C170.219 71.1152 171.309 68.6352 172.738 66.9422C173.322 66.2502 173.8 65.5892 173.8 65.4732C173.8 64.4802 161.804 58.0382 156.2 56.0232C155.43 55.7462 154.44 55.3772 154 55.2042C153.56 55.0302 152.03 54.5782 150.6 54.1992C149.17 53.8202 147.55 53.3652 147 53.1872C144.93 52.5202 142.585 52.3692 142.442 52.8942ZM37.692 58.9002C37.362 59.3952 36.711 60.2332 36.246 60.7612C35.781 61.2902 35.4 61.8412 35.4 61.9862C35.4 62.1312 35.08 62.5982 34.69 63.0252C31.651 66.3422 23.663 81.4042 21.02 88.8002C20.744 89.5702 20.366 90.5602 20.179 91.0002C18.866 94.0812 16.381 103.722 15.383 109.6C14.184 116.665 13.77 116 19.358 116H24.117L24.759 112.5C25.113 110.575 25.401 108.588 25.401 108.084C25.4 107.58 25.745 106.05 26.167 104.684C26.588 103.318 27.231 101.12 27.595 99.8002C27.958 98.4802 28.455 96.6802 28.698 95.8002C28.941 94.9202 29.378 93.7502 29.67 93.2002C30.325 91.9632 32.533 86.5922 33.001 85.0952C33.192 84.4872 33.942 82.9572 34.669 81.6952C37.483 76.8082 37.843 76.1512 38.554 74.5972C38.958 73.7152 39.728 72.4552 40.266 71.7972C40.804 71.1392 42.196 69.2742 43.36 67.6542L45.476 64.7082L43.738 62.9042C38.621 57.5932 38.581 57.5662 37.692 58.9002ZM216.579 60.5382C211.989 65.0812 212.177 64.2812 214.863 67.8342C217.698 71.5842 218.33 72.5352 219.36 74.6002C220.269 76.4232 222.031 79.5112 223.483 81.8242C224.027 82.6912 224.595 83.9002 224.746 84.5112C225.005 85.5592 225.853 87.5602 228.011 92.2192C228.526 93.3292 229.211 95.3092 229.534 96.6192C229.857 97.9282 230.606 100.62 231.199 102.6C231.791 104.58 232.356 106.74 232.454 107.4C232.551 108.06 232.911 110.265 233.253 112.3L233.874 116H238.689H243.503L243.239 113.5C241.516 97.2142 232.931 75.8932 222.402 61.7532C219.15 57.3862 219.657 57.4912 216.579 60.5382ZM120.6 65.2412C119.61 65.4372 117.36 65.8802 115.6 66.2252C109.428 67.4382 101.177 70.6582 96.21 73.7942C95.333 74.3472 94.509 74.8002 94.378 74.8002C94.019 74.8002 88.594 78.9392 86.576 80.7532L84.8 82.3492L95.397 92.9752C107.049 104.658 106.267 104.095 108.445 102.364C112.367 99.2462 118.33 96.6872 123.51 95.8992L126.8 95.3982L126.905 80.0992L127.01 64.8002L124.705 64.8432C123.437 64.8662 121.59 65.0462 120.6 65.2412ZM131.095 80.0992L131.2 95.3972L134.4 95.8832C139.616 96.6752 144.877 98.8652 148.99 101.956C150.194 102.86 151.365 103.6 151.592 103.6C151.82 103.6 156.774 98.8192 162.603 92.9752L173.2 82.3492L171.413 80.7432C170.431 79.8602 168.541 78.3412 167.213 77.3672C165.886 76.3942 164.583 75.4182 164.317 75.1992C164.051 74.9792 163.719 74.8002 163.579 74.8002C163.438 74.8002 162.846 74.4612 162.262 74.0472C158.805 71.5942 149.164 67.6612 143.6 66.4342C139.586 65.5492 134.754 64.8152 132.895 64.8072L130.99 64.8002L131.095 80.0992ZM74.326 66.5802C81.03 68.9702 79.551 78.8002 72.487 78.8002C66.545 78.8002 63.72 72.1482 67.93 68.0682C69.963 66.0972 71.785 65.6732 74.326 66.5802ZM189.295 67.4452C194.342 71.2952 191.926 78.8032 185.641 78.7992C181.864 78.7962 179.404 76.3362 179.401 72.5592C179.398 67.3542 185.226 64.3412 189.295 67.4452ZM47.388 68.8472C47.065 69.3132 46.305 70.3922 45.7 71.2442C44.008 73.6282 43.878 73.4542 50.23 77.2812L51.36 77.9612L52.814 75.9812C54.553 73.6122 54.62 73.8772 51.453 70.6192C48.673 67.7602 48.266 67.5832 47.388 68.8472ZM206.472 70.6322C203.4 73.6592 203.454 73.4892 204.9 75.5792C206.146 77.3802 206.585 77.5022 208.116 76.4702C208.712 76.0682 210.1 75.1372 211.2 74.4012C212.3 73.6642 213.264 73.0132 213.342 72.9552C213.491 72.8442 211.146 69.3822 210.329 68.5052C209.575 67.6982 209.29 67.8562 206.472 70.6322ZM70.841 70.8392C69.484 71.9072 69.569 73.4012 71.05 74.5012C73.167 76.0742 75.747 73.2122 74.1 71.1172C73.237 70.0192 72.016 69.9152 70.841 70.8392ZM184.691 70.4922C182.93 71.3412 183.044 73.9272 184.88 74.7642C187.286 75.8602 189.255 72.4882 187.168 70.8462C185.955 69.8922 185.94 69.8902 184.691 70.4922ZM40.284 79.8372C39.358 81.4522 38.6 83.0172 38.6 83.3142C38.6 83.8192 45.649 87.4962 45.968 87.1562C46.695 86.3832 48.992 81.4382 48.734 81.2012C48.55 81.0322 46.953 79.9952 45.184 78.8972L41.968 76.9002L40.284 79.8372ZM54.438 80.7002C47.971 90.6142 43.668 101.231 41.591 112.397C40.911 116.05 40.924 116.064 44.8 115.918L47.924 115.8L48.663 112.22C50.592 102.874 54.802 92.7002 60.032 84.7522L62.196 81.4632L60.098 79.1772C57.351 76.1832 57.392 76.1722 54.438 80.7002ZM197.855 79.1352C196.131 80.9292 195.796 81.4892 196.146 81.9842C202.161 90.4862 207.317 102.252 209.299 112L210.072 115.8L213.198 115.918C217.631 116.085 217.475 116.663 215.387 107.8C213.225 98.6232 209.128 89.2342 203.562 80.7002C200.617 76.1852 200.673 76.2012 197.855 79.1352ZM211.7 78.8252C208.258 81.0562 208.385 80.8912 209.165 82.1142C209.475 82.6012 210.177 83.8102 210.725 84.8002C211.273 85.7902 211.874 86.5672 212.061 86.5262C212.247 86.4852 213.973 85.6982 215.895 84.7772L219.389 83.1022L217.75 79.9512C215.796 76.1952 215.766 76.1902 211.7 78.8252ZM64.462 85.1312C64.098 85.5342 63.8 85.9962 63.8 86.1582C63.8 86.3212 63.367 87.0262 62.839 87.7272C59.776 91.7842 55.074 102.732 53.358 109.8C52.931 111.56 52.426 113.575 52.235 114.278C51.817 115.819 51.962 116 53.616 116C55.351 116 58.058 116.996 59.676 118.231C61.189 119.385 61.087 119.511 61.959 115.4C63.822 106.619 67.284 98.3212 72.047 91.2222L73.804 88.6022L71.983 88.1382C69.627 87.5372 67.885 86.6822 66.438 85.4162C65.055 84.2072 65.271 84.2382 64.462 85.1312ZM191.65 85.3892C190.367 86.5782 188.435 87.5212 186.019 88.1372L184.2 88.6012L186.425 92.0012C190.252 97.8492 193.125 104.32 195.125 111.6C196.403 116.249 196.6 117.125 196.6 118.146C196.6 119.452 196.723 119.452 198.426 118.153C200.153 116.835 202.355 116.04 204.338 116.018L205.875 116L205.593 113.9C204.679 107.093 199.418 94.0462 194.706 86.8992C192.954 84.2412 192.911 84.2202 191.65 85.3892ZM79.923 87.4822C77.693 90.0832 74.6 94.2322 74.6 94.6212C74.6 94.7622 74.26 95.3542 73.844 95.9382C73.097 96.9882 70.477 102.089 69.291 104.8C67.082 109.854 65.256 117.527 64.746 123.9L64.482 127.2H79.698C96.282 127.2 95.4 127.326 95.4 124.96C95.4 121.56 98.358 114.122 101.565 109.459C103.404 106.787 103.432 106.699 102.725 105.915C101.896 104.996 84.37 87.4742 82.888 86.0822L81.91 85.1642L79.923 87.4822ZM166 95.1182C160.5 100.612 155.674 105.47 155.275 105.913C154.567 106.699 154.596 106.786 156.435 109.459C159.642 114.122 162.6 121.56 162.6 124.96C162.6 127.326 161.718 127.2 178.3 127.2H193.515L193.237 123.5C193.084 121.465 192.783 118.99 192.568 118C192.353 117.01 191.98 115.3 191.739 114.2C189.817 105.432 183.98 94.0652 177.907 87.2642L176 85.1282L166 95.1182ZM217.08 88.5572C214.332 89.9172 213.791 90.3382 213.937 91.0002C214.095 91.7172 215.791 95.9312 216.103 96.3812C216.342 96.7252 224.2 93.8272 224.2 93.3942C224.2 93.1552 224.048 92.7892 223.862 92.5802C223.677 92.3712 223.02 90.9852 222.402 89.5002C221.105 86.3782 221.382 86.4272 217.08 88.5572ZM36.067 87.8672C35.92 88.0132 35.8 88.3682 35.8 88.6562C35.8 88.9432 35.33 90.1712 34.755 91.3842C34.181 92.5982 33.804 93.8342 33.918 94.1322C34.193 94.8472 41.092 97.2582 41.555 96.8002C41.936 96.4252 44.25 91.1092 44.094 90.9712C44.042 90.9262 42.495 90.1492 40.656 89.2442C37.299 87.5942 36.561 87.3722 36.067 87.8672ZM221.6 98.9852C217.53 100.467 217.505 100.516 218.691 104.6C219.363 106.911 219.467 106.932 224.5 105.757C227.817 104.983 227.77 105.09 226.608 101.026C225.57 97.3992 225.751 97.4732 221.6 98.9852ZM32.039 98.9002C31.964 99.1752 31.609 100.406 31.251 101.635C30.118 105.526 30.217 105.779 33.1 106.377C38.529 107.501 38.49 107.507 38.988 105.54C39.229 104.583 39.601 103.387 39.814 102.881C40.507 101.232 40.246 100.982 36.462 99.6832C32.207 98.2232 32.222 98.2252 32.039 98.9002ZM121.4 100.35C112.826 102.807 103.519 110.672 101.698 117C101.571 117.44 101.107 118.748 100.666 119.907C98.891 124.571 98.645 134.463 100.227 137.6C100.393 137.93 100.843 139.089 101.226 140.175C103.679 147.122 110.617 154.122 117.881 156.978C146.04 168.05 170.723 135.616 152.761 111.147C146.086 102.054 132.173 97.2642 121.4 100.35ZM227.2 109.201C226.76 109.372 225.034 109.811 223.364 110.175L220.327 110.838L220.679 113.082C221.156 116.125 220.953 116 225.424 116H229.4L229.376 114.7C229.302 110.631 228.531 108.683 227.2 109.201ZM29.267 109.892C29.157 110.07 28.938 111.517 28.782 113.108L28.497 116H32.525C34.74 116 36.661 115.824 36.794 115.61C37.164 115.011 37.548 111.2 37.239 111.2C36.868 111.2 30.964 110.006 30.134 109.762C29.767 109.655 29.377 109.713 29.267 109.892ZM135.718 115.25C145.961 120.204 147.689 134.343 138.9 141.29C128.182 149.761 112.699 141.929 113.481 128.431C114.124 117.323 125.751 110.43 135.718 115.25ZM125.4 118.239C120.173 120.105 117.59 123.808 117.617 129.4C117.675 141.372 133.257 145.278 139.16 134.8C144.192 125.87 135.003 114.81 125.4 118.239ZM12.4 120.484C6.19601 122.658 5.836 134.678 11.88 137.836C13.863 138.871 54.543 138.65 56.616 137.592C62.203 134.741 61.677 123.017 55.851 120.567C54.159 119.856 14.409 119.779 12.4 120.484ZM201.587 120.823C196.271 123.406 196.12 134.584 201.361 137.53C203.166 138.544 244.021 138.93 245.926 137.951C252.212 134.722 251.876 122.611 245.44 120.455C242.741 119.551 203.529 119.88 201.587 120.823ZM50.66 123.21C57.577 125.131 56.005 135.6 48.8 135.6C41.885 135.6 39.906 124.815 46.553 123.359C47.129 123.233 47.78 123.07 48 122.997C48.71 122.76 49.173 122.797 50.66 123.21ZM212.718 123.942C214.306 124.868 215.965 128.397 215.635 130.152C214.337 137.073 204.81 137.522 202.986 130.748C201.517 125.293 207.662 120.996 212.718 123.942ZM47.262 127.531C45.861 129.079 46.822 131.6 48.813 131.6C49.793 131.6 51.4 130.22 51.4 129.379C51.4 127.45 48.505 126.158 47.262 127.531ZM207.429 127.854C206.393 129.17 206.391 129.625 207.416 130.725C208.969 132.392 211.4 131.482 211.4 129.233C211.4 126.911 208.864 126.03 207.429 127.854ZM64.775 131.64C64.166 132.626 65.4 141.511 66.825 146.4C67.177 147.61 67.565 149.05 67.687 149.6C67.808 150.15 68.032 150.78 68.185 151C68.337 151.22 68.794 152.3 69.2 153.4C71.462 159.528 80.243 173.089 82.009 173.179C82.453 173.202 103.4 152.349 103.4 151.885C103.4 151.729 102.564 150.477 101.542 149.101C99.772 146.718 97.73 142.789 96.916 140.2C96.106 137.622 95.428 134.544 95.414 133.38C95.406 132.709 95.184 131.944 94.92 131.68C94.265 131.025 65.179 130.987 64.775 131.64ZM163.085 131.675C162.818 131.942 162.6 132.745 162.6 133.46C162.6 137.375 159.554 144.954 156.161 149.483C155.302 150.628 154.6 151.701 154.6 151.866C154.6 152.345 175.537 173.203 175.991 173.176C176.546 173.144 180 168.907 182.658 164.996C188.627 156.215 192.918 143.756 193.127 134.6L193.2 131.4L178.385 131.295C167.196 131.216 163.451 131.309 163.085 131.675ZM59.6 140.42C57.786 141.651 55.961 142.351 53.828 142.634L51.902 142.889L52.226 144.145C52.403 144.835 52.849 146.66 53.216 148.2C53.896 151.056 55.544 156.356 56.199 157.8C62.471 171.611 64.66 174.855 66.514 173.087C67.852 171.811 71.066 170.4 72.633 170.4C74.146 170.4 74.166 170.474 71.595 166.61C67.962 161.15 64.387 153.092 62.806 146.8C62.446 145.37 61.983 143.549 61.776 142.754C61.569 141.958 61.4 140.923 61.4 140.454C61.4 139.395 61.118 139.39 59.6 140.42ZM196.6 140.454C196.6 140.923 196.431 141.958 196.224 142.754C196.017 143.549 195.555 145.37 195.197 146.8C193.664 152.928 189.971 161.233 186.366 166.662C183.837 170.47 183.856 170.4 185.367 170.4C186.854 170.4 189.956 171.724 191.486 173.011C192.934 174.229 193.045 174.164 195.158 170.858C199.279 164.409 202.991 155.669 204.78 148.2C205.149 146.66 205.597 144.835 205.774 144.145L206.098 142.889L204.102 142.625C201.959 142.341 198.936 141.087 198.171 140.166C197.472 139.322 196.6 139.482 196.6 140.454ZM14.75 145.1C16.643 161.868 25.245 183.025 36.054 197.5C38.721 201.072 38.543 201.079 42.35 197.25C45.957 193.622 45.987 194.357 42.017 189.036C40.555 187.075 38.564 183.925 37.593 182.036C36.621 180.146 35.191 177.616 34.413 176.413C33.636 175.211 33 174.022 33 173.771C33 173.521 32.002 170.937 30.783 168.03C29.563 165.123 28.413 161.992 28.226 161.072C28.04 160.152 27.415 157.87 26.837 156C26.259 154.13 25.525 150.854 25.206 148.72C24.886 146.586 24.51 144.381 24.369 143.82L24.113 142.8H19.302H14.49L14.75 145.1ZM28.763 145.467C29.088 148.641 29.226 148.922 30.344 148.676C38.201 146.948 37.786 147.229 37.15 144.05L36.9 142.8H32.695H28.49L28.763 145.467ZM41 143.169C41 148.436 47.168 165.904 51.609 173.215C52.366 174.462 53.218 175.913 53.502 176.441C56.629 182.256 57.196 182.491 60.339 179.277L62.278 177.294L59.773 173.358C56.912 168.862 53.136 161.206 51.606 156.8C50.242 152.871 48.2 145.081 48.2 143.805C48.2 142.806 48.178 142.8 44.6 142.8C42.62 142.8 41 142.966 41 143.169ZM209.799 143.9C209.796 149.385 203.799 164.578 198.089 173.568L195.695 177.336L198.154 179.713L200.614 182.09L201.357 181.145C207.348 173.528 214.43 157.427 216.2 147.4C216.394 146.3 216.676 144.815 216.826 144.1L217.1 142.8H213.45H209.8L209.799 143.9ZM220.85 144.05C220.224 147.182 220.389 147.501 222.9 148.002C224.165 148.255 225.893 148.639 226.74 148.857C228.676 149.354 228.649 149.388 229.213 145.795L229.683 142.8H225.391H221.1L220.85 144.05ZM233.423 144.9C233.184 146.055 232.837 148.17 232.651 149.6C232.465 151.03 231.82 153.82 231.219 155.8C230.617 157.78 229.87 160.449 229.56 161.732C229.249 163.014 228.527 165.084 227.955 166.332C227.383 167.579 226.389 169.95 225.746 171.6C224.28 175.359 223.828 176.3 222.769 177.8C222.303 178.46 221.13 180.582 220.161 182.515C219.192 184.449 217.77 186.799 217 187.739C216.23 188.679 214.908 190.454 214.061 191.684L212.523 193.919L215.659 197.16C219.472 201.097 219.284 201.09 221.996 197.423C232.947 182.614 241.279 162.083 243.228 145.1L243.492 142.8H238.674H233.857L233.423 144.9ZM36.4 151.462C32.026 152.386 30.174 152.96 30.313 153.349C30.401 153.597 30.812 155.126 31.226 156.747C32.141 160.33 32.164 160.34 36.286 158.988C40.322 157.664 40.391 157.605 39.866 155.937C39.634 155.202 39.248 153.835 39.007 152.9C38.563 151.176 38.338 151.052 36.4 151.462ZM218.647 154.145C217.362 158.124 217.145 157.861 223.316 159.828C225.835 160.631 225.633 160.782 226.613 157.355C227.837 153.076 227.834 153.071 224.7 152.434C219.131 151.304 219.609 151.169 218.647 154.145ZM95.492 165.521L84.984 176.139L86.092 177.3C90.793 182.226 103.814 189.528 111 191.268C118.398 193.059 126.561 194.167 126.848 193.419C126.937 193.187 126.963 186.248 126.905 177.999L126.8 163L124.4 162.757C119.137 162.223 114.414 160.333 109.299 156.712C107.813 155.66 106.463 154.823 106.299 154.852C106.134 154.88 101.271 159.682 95.492 165.521ZM149.456 156.194C145.273 159.519 138.787 162.23 133.8 162.736L131.2 163L131.095 177.999C131.037 186.248 131.063 193.187 131.152 193.419C131.576 194.524 144.465 192.293 150.8 190.019C158.116 187.392 171.699 179.051 172.752 176.539C172.927 176.121 152.017 154.795 151.442 154.804C151.309 154.806 150.415 155.431 149.456 156.194ZM37.212 162.802C35.459 163.42 33.957 164.129 33.874 164.378C33.703 164.892 35.707 169.938 36.385 170.701C36.799 171.166 44.2 168.032 44.2 167.392C44.2 167.28 44.029 166.877 43.819 166.495C43.395 165.721 42.41 163.377 42.055 162.3C41.753 161.38 41.028 161.455 37.212 162.802ZM216.3 161.898C216.025 161.991 215.8 162.323 215.8 162.635C215.8 162.948 215.35 164.137 214.8 165.277C214.25 166.417 213.8 167.477 213.8 167.633C213.8 168.237 220.738 171.309 221.299 170.954C222.083 170.457 224.378 164.81 223.951 164.428C223.335 163.876 216.82 161.722 216.3 161.898ZM41.865 173.078C38.278 174.836 38.224 174.963 39.828 177.867C42.101 181.983 41.658 181.823 45.029 179.747C49.462 177.016 49.324 177.31 47.609 174.242C45.882 171.155 45.819 171.142 41.865 173.078ZM210.434 174.165C209.645 175.576 209 176.928 209 177.17C209 177.629 214.899 181.58 215.603 181.593C216.172 181.603 219.783 175.395 219.382 175.094C219.049 174.843 212.251 171.6 212.058 171.6C211.954 171.6 211.223 172.754 210.434 174.165ZM70.8 174.962C69.059 175.731 41.078 203.839 40.373 205.526C37.34 212.786 47.304 221.47 53.822 217.248C58.118 214.464 83.263 188.357 83.779 186.144C85.295 179.643 76.789 172.314 70.8 174.962ZM180.698 175.06C176.451 177.153 173.24 182.719 174.212 186.3C174.77 188.354 200.145 214.549 204.169 217.224C210.632 221.521 220.727 212.736 217.655 205.487C216.937 203.793 188.81 175.667 187.113 174.947C185.391 174.215 182.301 174.27 180.698 175.06ZM75.003 180.248C77.102 181.088 78.6 183.515 78.6 186.076C78.6 190.668 73.592 193.738 69.504 191.653C62.069 187.86 67.237 177.14 75.003 180.248ZM188.972 180.385C191.809 181.903 192.928 186.892 191.03 189.557C186.35 196.13 176.317 189.794 180.269 182.762C181.842 179.965 186.043 178.817 188.972 180.385ZM47.491 182.951L44.181 185.081L45.792 187.492C48.351 191.326 48.195 191.307 51.404 188.168C54.64 185.003 54.57 185.246 52.958 182.735C51.431 180.354 51.531 180.35 47.491 182.951ZM205.637 181.929C205.316 182.55 204.771 183.292 204.426 183.578C203.355 184.467 203.708 185.191 206.649 188.132L209.498 190.98L210.837 189.39C212.284 187.671 213.677 185.319 213.382 185.09C212.722 184.576 206.604 180.8 206.432 180.8C206.316 180.8 205.958 181.308 205.637 181.929ZM70.689 184.223C69.548 185.022 69.535 186.676 70.661 187.653C72.382 189.145 74.6 188.214 74.6 186C74.6 183.846 72.554 182.916 70.689 184.223ZM184.029 184.229C182.598 185.66 183.649 188.4 185.629 188.4C186.878 188.4 188.2 187.075 188.2 185.823C188.2 183.989 185.355 182.902 184.029 184.229ZM87.791 185.913C87.781 187.675 86.744 190.102 85.242 191.882L84.16 193.163L86.08 194.583C91.145 198.33 104.443 203.936 112.266 205.623C115 206.212 115.589 206.035 115.709 204.589C115.879 202.532 116.592 200.532 117.785 198.762C118.962 197.017 118.965 196.999 118.087 196.897C114.829 196.518 106.278 194.184 104.505 193.19C104.123 192.975 103.605 192.8 103.354 192.8C102.565 192.8 95.038 188.865 92.053 186.893C87.908 184.154 87.802 184.129 87.791 185.913ZM169.391 184.757C169.057 184.89 167.977 185.558 166.991 186.241C163.76 188.479 155.511 192.8 154.469 192.8C154.189 192.8 153.789 192.948 153.58 193.129C153.371 193.31 152.12 193.786 150.8 194.186C149.48 194.586 147.95 195.061 147.4 195.243C145.607 195.835 140.975 196.8 139.926 196.8C138.939 196.8 138.926 196.832 139.55 197.7C140.938 199.628 141.825 201.677 142.062 203.499C142.431 206.346 142.446 206.356 145.4 205.709C154.541 203.706 167.833 197.968 172.708 193.92L173.816 193L172.758 191.8C171.427 190.291 170.523 188.273 170.228 186.157C170.053 184.894 169.859 184.57 169.391 184.757ZM78.631 198.498C77.301 199.844 76.255 200.979 76.306 201.019C77.444 201.9 82.26 205.2 82.409 205.2C82.523 205.2 83.343 205.659 84.233 206.221C88.362 208.827 97.39 212.824 102.4 214.264C115.2 217.941 115.695 217.93 115.755 213.97C115.802 210.881 115.422 210 114.042 210C112.403 210 102.896 207.358 99.6 205.987C96.53 204.709 95.448 204.227 93.4 203.221C89.445 201.279 87.648 200.275 84.324 198.147L81.049 196.049L78.631 198.498ZM173.8 198.063C172.15 199.145 169.99 200.447 169 200.957C168.01 201.466 166.57 202.236 165.8 202.667C160.965 205.371 147.178 210 143.958 210C142.578 210 142.198 210.881 142.245 213.97C142.298 217.441 142.321 217.455 146.444 216.604C158.655 214.081 174.161 207.338 180.521 201.783L181.6 200.841L179.2 198.469L176.8 196.097L173.8 198.063ZM126.582 197.97C123.512 198.288 121.821 199.466 120.3 202.345C119.918 203.067 119.8 208.255 119.8 224.251C119.8 246.563 119.735 245.791 121.8 248.136C123.486 250.05 124.599 250.4 129.006 250.4C133.937 250.4 136.018 249.416 137.636 246.32C138.485 244.694 138.471 203.684 137.62 202.04C136.878 200.603 134.447 198.464 133.293 198.232C131.419 197.854 128.717 197.749 126.582 197.97ZM16.282 200.924C13.483 208.664 21.663 224.062 33.723 233.754C36.059 235.632 41.48 239.2 41.996 239.2C42.096 239.2 43.128 239.627 44.289 240.149C48.909 242.225 56.924 243.085 58.28 241.65C58.696 241.21 58.699 241.063 58.295 240.915C57.675 240.688 48.451 234.15 46.826 232.786C41.281 228.132 38.98 226.034 34.899 221.91C29.795 216.751 23.555 209.237 19.98 203.943C16.858 199.321 16.861 199.324 16.282 200.924ZM238.2 203.63C236.77 205.825 235.234 208.022 234.787 208.511C234.34 209 233.44 210.117 232.787 210.994C228.096 217.294 218.997 226.462 210.973 232.973C208.944 234.619 201.154 240.122 200.29 240.519C195.961 242.509 206.271 242.996 211.498 241.049C229.191 234.458 246.812 210.878 241.59 200.78C240.83 199.312 241.234 198.973 238.2 203.63ZM132.3 203.994C136.626 206.547 136.239 213.149 131.64 215.238C126.12 217.744 120.72 212.136 123.374 206.654C124.978 203.341 129.107 202.11 132.3 203.994ZM70.267 206.843C67.004 210.087 66.997 209.757 70.375 212.167C73.62 214.483 73.385 214.533 75.546 211.066C78.144 206.897 78.141 207.14 75.623 205.468C72.924 203.676 73.638 203.492 70.267 206.843ZM182.7 205.241C180.657 206.686 180.677 206.453 182.4 208.8C183.17 209.849 183.806 210.863 183.813 211.054C183.899 213.288 185.91 213.515 188.474 211.579C190.921 209.731 190.965 209.959 187.539 206.677C184.403 203.672 184.765 203.78 182.7 205.241ZM127.654 207.629C125.894 209.014 126.865 212 129.075 212C131.541 212 132.179 208.446 129.926 207.26C128.807 206.671 128.889 206.657 127.654 207.629ZM174.8 210.207C173.48 210.967 172.226 211.65 172.014 211.723C171.416 211.931 175.048 219.2 175.75 219.2C176.532 219.2 181.8 216.074 181.8 215.61C181.8 215.122 177.749 208.797 177.445 208.812C177.31 208.819 176.12 209.446 174.8 210.207ZM79.027 212.9L76.984 216.2L77.891 216.944C78.72 217.624 83.128 220 83.562 220C83.825 220 87.001 213.215 86.997 212.661C86.993 212.181 82.349 209.569 81.535 209.589C81.279 209.595 80.151 211.085 79.027 212.9ZM60.882 216.115C57.219 219.888 57.193 219.645 61.578 222.762C76.094 233.078 92.463 240.026 108.8 242.806C110.34 243.068 112.404 243.43 113.387 243.611C114.369 243.792 115.314 243.853 115.487 243.746C115.948 243.462 115.872 234.491 115.406 234.204C114.944 233.918 111.176 233.226 108.6 232.953C106.83 232.766 105.33 232.38 100.234 230.797C98.823 230.359 97.326 230 96.908 230C96.491 230 95.215 229.575 94.074 229.055C92.933 228.535 91.55 227.973 91 227.806C90.45 227.639 89.82 227.371 89.6 227.21C89.38 227.05 88.21 226.581 87 226.168C84.82 225.424 83.09 224.595 80 222.811C79.12 222.303 77.057 221.177 75.415 220.309C73.774 219.441 71.884 218.29 71.215 217.752C68.778 215.788 64.55 212.801 64.279 212.852C64.125 212.88 62.597 214.349 60.882 216.115ZM191.2 214.407C190.1 215.262 188.66 216.399 188 216.932C187.34 217.466 185.54 218.582 184 219.412C181.24 220.9 179.123 222.118 177.585 223.102C176.551 223.765 174.892 224.536 172.2 225.608C170.99 226.089 169.46 226.721 168.8 227.012C168.14 227.302 166.61 227.978 165.4 228.512C164.19 229.047 162.57 229.6 161.8 229.742C161.03 229.883 158.69 230.554 156.6 231.232C154.51 231.911 151.54 232.627 150 232.823C146.316 233.293 143.1 233.891 142.601 234.199C142.164 234.47 142.12 242.823 142.552 243.523C142.722 243.797 143.435 243.828 144.606 243.613C145.593 243.431 147.66 243.068 149.2 242.806C162.767 240.498 177.15 235.008 189.2 227.538C195.033 223.923 200 220.307 200 219.677C200 219.185 193.832 212.774 193.409 212.826C193.294 212.84 192.3 213.551 191.2 214.407ZM165 215.021C163.198 215.788 162.025 216.517 162.063 216.849C162.135 217.474 164.135 223.153 164.537 223.87C164.802 224.344 170.547 222.248 171.344 221.387C171.561 221.153 170.971 219.567 169.851 217.372L168 213.745L165 215.021ZM89.068 218.047C87.111 222.173 87.025 221.915 90.859 223.392C94.501 224.796 94.489 224.802 95.852 220.783C97.296 216.527 97.379 216.923 94.813 215.789C90.803 214.016 91.022 213.93 89.068 218.047ZM156.4 218.23C155.52 218.537 154.44 218.796 154 218.807C152.043 218.853 151.471 220.103 152.195 222.754C152.413 223.549 152.785 224.985 153.023 225.945C153.512 227.922 153.546 227.925 158.329 226.517C161.043 225.718 161.057 225.613 159.099 220.527L158 217.672L156.4 218.23ZM99.7 221.72C98.244 226.181 98.248 226.206 100.5 226.781C101.545 227.048 102.813 227.432 103.319 227.633C104.87 228.252 105.77 228.072 105.974 227.1C106.078 226.605 106.441 224.904 106.782 223.321C107.122 221.738 107.4 220.292 107.4 220.108C107.4 219.725 104.751 218.915 102.4 218.578L100.8 218.349L99.7 221.72ZM111.185 221.848C111.044 222.482 110.675 224.05 110.364 225.332C109.478 228.994 109.458 228.953 112.427 229.516C115.84 230.163 115.8 230.21 115.8 225.6C115.8 221.245 115.829 221.298 113.254 220.945C111.505 220.706 111.432 220.737 111.185 221.848ZM143.6 221.093C142.375 221.399 142.212 221.928 142.212 225.6C142.212 229.972 142.385 230.25 144.736 229.658C145.736 229.406 146.97 229.197 147.477 229.194C149.426 229.181 149.589 228.745 148.847 225.537C148.473 223.922 148.081 222.195 147.976 221.7C147.782 220.786 145.884 220.522 143.6 221.093Z"/>
</svg>
