<!-- Generated by IcoMoon.io -->
<svg version="1.1" xmlns="http://www.w3.org/2000/svg" width="33" height="32" viewBox="0 0 33 32">
<title>flash</title>
<path d="M32.621 16c0-8.824-7.196-16-16.043-16s-16.043 7.176-16.043 16 7.196 16 16.043 16c8.847 0 16.043-7.176 16.043-16zM2.541 16c0-7.765 6.252-14 14.037-14 7.667 0 13.919 6.235 13.919 14 0 7.647-6.252 13.882-13.919 13.882-7.785 0-14.037-6.235-14.037-13.882zM21.178 14.118h-3.893c0.212-1.553 0.552-3.106 0.892-4.659 0.227-1.035 0.453-2.071 0.642-3.106 0.118-1.176-0.826-1.412-1.298-0.353l-6.252 10.706c-0.472 0.706-0.236 1.177 0.708 1.177h3.775l-1.416 7.765c-0.236 1.059 0.708 1.294 1.298 0.471l6.252-10.824c0.354-0.823 0.118-1.176-0.708-1.176z"></path>
</svg>
