<!-- Generated by IcoMoon.io -->
<svg version="1.1" xmlns="http://www.w3.org/2000/svg" width="32" height="32" viewBox="0 0 32 32">
<title>grid</title>
<path d="M0.941 0.16h13.176c0.527 0 0.941 0.41 0.941 0.932v13.045c0 0.522-0.414 0.932-0.941 0.932h-13.176c-0.527 0-0.941-0.41-0.941-0.932v-13.045c0-0.522 0.414-0.932 0.941-0.932zM1.882 13.205h11.294v-11.181h-11.294v11.181zM0.941 16.932h13.176c0.527 0 0.941 0.41 0.941 0.932v13.045c0 0.522-0.414 0.932-0.941 0.932h-13.176c-0.527 0-0.941-0.41-0.941-0.932v-13.045c0-0.522 0.414-0.932 0.941-0.932zM1.882 29.977h11.294v-11.181h-11.294v11.181zM31.059 0.16h-13.176c-0.527 0-0.941 0.41-0.941 0.932v13.045c0 0.522 0.414 0.932 0.941 0.932h13.176c0.527 0 0.941-0.41 0.941-0.932v-13.045c0-0.522-0.414-0.932-0.941-0.932zM30.118 13.205h-11.294v-11.181h11.294v11.181zM17.882 16.932h13.176c0.527 0 0.941 0.41 0.941 0.932v13.045c0 0.522-0.414 0.932-0.941 0.932h-13.176c-0.527 0-0.941-0.41-0.941-0.932v-13.045c0-0.522 0.414-0.932 0.941-0.932zM18.824 29.977h11.294v-11.181h-11.294v11.181z"></path>
</svg>
