<!-- Generated by IcoMoon.io -->
<svg version="1.1" xmlns="http://www.w3.org/2000/svg" width="38" height="32" viewBox="0 0 38 32">
<title>heart-2</title>
<path d="M18.906 32c-0.309 0-0.617-0.152-0.772-0.305-6.947-4.267-12.196-9.295-15.902-15.238-1.235-1.829-1.853-3.81-1.853-5.943v-0.914c0-2.438 0.926-4.876 2.779-6.552 0.309-0.305 0.463-0.61 0.772-0.762 1.853-1.524 4.014-2.286 6.484-2.286 3.396 0 6.639 1.676 8.491 4.267 2.007-2.59 5.095-4.267 8.491-4.267 2.47 0 4.786 0.762 6.639 2.286 0.309 0.152 0.463 0.457 0.772 0.61 1.698 1.829 2.625 4.114 2.625 6.705v0.914c0 2.133-0.618 4.114-1.853 5.943-3.705 5.943-9.109 10.971-15.902 15.238-0.154 0.152-0.463 0.305-0.772 0.305zM10.415 3.048c-1.698 0-3.242 0.457-4.477 1.524l-0.618 0.457c-1.235 1.219-1.853 2.895-1.853 4.571v0.914c0 1.676 0.463 2.895 1.235 4.419 3.397 5.181 8.028 9.905 14.203 13.867 6.021-3.962 10.807-8.533 14.204-13.867 0.926-1.371 1.235-2.743 1.235-4.419v-0.914c0-1.676-0.618-3.2-1.853-4.419l-0.618-0.61c-1.544-1.371-3.396-1.524-4.632-1.524-2.779 0-5.404 1.676-6.639 4.114l-0.309 0.914c-0.154 0.61-0.772 1.067-1.39 1.067s-1.235-0.457-1.389-1.067l-0.309-0.914c-1.39-2.438-4.014-4.114-6.793-4.114z"></path>
</svg>
