<!-- Generated by IcoMoon.io -->
<svg version="1.1" xmlns="http://www.w3.org/2000/svg" width="34" height="32" viewBox="0 0 34 32">
<title>heart</title>
<path d="M24.264 0.453c-2.915 0-5.515 1.391-7.326 3.805-1.812-2.414-4.451-3.805-7.326-3.805-4.766 0-9.611 4.009-9.611 11.701 0 8.019 8.272 14.074 16.032 19.106 0.276 0.164 0.591 0.286 0.906 0.286s0.63-0.082 0.906-0.286c7.76-5.032 16.032-11.087 16.032-19.106 0-7.691-4.845-11.701-9.611-11.701zM16.937 27.701c-5.199-3.396-13.55-9.205-13.55-15.546 0-5.646 3.23-8.182 6.224-8.182 2.521 0 4.687 1.677 5.751 4.459 0.276 0.655 0.867 1.105 1.576 1.105s1.3-0.45 1.576-1.105c1.064-2.782 3.23-4.459 5.751-4.459 2.994 0 6.224 2.577 6.224 8.182 0 6.341-8.351 12.151-13.55 15.547z"></path>
</svg>
