<!-- Generated by IcoMoon.io -->
<svg version="1.1" xmlns="http://www.w3.org/2000/svg" width="32" height="32" viewBox="0 0 32 32">
<title>moon</title>
<path d="M17.214 32c-8.782 0-16-7.152-16-16s7.185-16 16-16c1.364 0 2.728 0.2 4.125 0.566 0.732 0.2 1.264 0.798 1.364 1.563 0.1 0.732-0.266 1.464-0.931 1.863-3.027 1.696-4.923 4.99-4.923 8.449 0 5.389 4.391 9.846 9.78 9.846 0.665 0 1.331-0.067 1.963-0.2 0.732-0.133 1.464 0.133 1.896 0.765 0.399 0.632 0.399 1.43 0 2.062-2.96 4.424-7.917 7.085-13.272 7.085zM16.383 3.726c-6.42 0.432-11.476 5.755-11.476 12.274 0 6.786 5.522 12.308 12.308 12.308 2.728 0 5.322-0.898 7.418-2.528-6.486-0.931-11.509-6.553-11.509-13.339 0.033-3.227 1.231-6.32 3.26-8.715z"></path>
</svg>
