<!-- Generated by IcoMoon.io -->
<svg version="1.1" xmlns="http://www.w3.org/2000/svg" width="36" height="32" viewBox="0 0 36 32">
<title>percent</title>
<path d="M2.794 2.13c2.945-2.84 7.678-2.84 10.518 0 2.84 2.945 2.84 7.678 0 10.518-1.472 1.472-3.26 2.209-5.259 2.209s-3.892-0.841-5.259-2.209c-2.84-2.945-2.84-7.678 0-10.518zM7.947 10.965c0.947 0 1.788-0.421 2.419-1.052 1.367-1.367 1.367-3.576 0-4.943-0.631-0.736-1.578-1.052-2.419-1.052s-1.788 0.421-2.419 1.052c-1.367 1.367-1.367 3.576 0 4.943 0.631 0.736 1.472 1.052 2.419 1.052zM3.425 27.477l25.873-25.873c0.736-0.736 1.998-0.736 2.735 0s0.736 1.998 0 2.735l-25.873 25.873c-0.421 0.421-0.841 0.526-1.367 0.526s-1.052-0.21-1.367-0.526c-0.736-0.736-0.736-1.998 0-2.735zM32.769 19.274c-2.945-2.945-7.678-2.945-10.518 0-2.84 2.84-2.84 7.573 0 10.518 1.473 1.473 3.366 2.209 5.259 2.209s3.786-0.736 5.259-2.209c2.84-2.84 2.84-7.573 0-10.518zM29.929 26.951c-1.367 1.367-3.576 1.367-4.943 0s-1.367-3.576 0-4.943c1.367-1.367 3.576-1.367 4.943 0s1.367 3.576 0 4.943z"></path>
</svg>
