<!-- Generated by IcoMoon.io -->
<svg version="1.1" xmlns="http://www.w3.org/2000/svg" width="32" height="32" viewBox="0 0 32 32">
<title>search</title>
<path d="M30.951 29.166l-7.561-7.521c1.994-2.295 3.201-5.297 3.201-8.581 0-7.215-5.827-13.065-13.016-13.065s-13.016 5.849-13.016 13.065c0 7.216 5.827 13.065 13.016 13.065 2.717 0 5.239-0.835 7.326-2.264l7.69 7.649c0.652 0.648 1.708 0.648 2.36 0s0.652-1.699 0-2.347zM23.254 13.065c0 5.365-4.333 9.715-9.679 9.715s-9.678-4.35-9.678-9.715c0-5.365 4.333-9.715 9.678-9.715s9.679 4.349 9.679 9.715z"></path>
</svg>
