<!-- Generated by IcoMoon.io -->
<svg version="1.1" xmlns="http://www.w3.org/2000/svg" width="49" height="32" viewBox="0 0 49 32">
<title>vk</title>
<path d="M48.33 3.279c0.348-1.16 0-1.972-1.624-1.972h-5.413c-1.392 0-2.011 0.735-2.359 1.547 0 0-2.745 6.728-6.65 11.058-1.276 1.276-1.817 1.663-2.513 1.663-0.348 0-0.851-0.387-0.851-1.547v-10.749c0-1.392-0.387-1.972-1.547-1.972h-8.506c-0.851 0-1.392 0.657-1.392 1.237 0 1.315 1.933 1.624 2.165 5.258v7.965c0 1.74-0.309 2.049-1.005 2.049-1.817 0-6.302-6.728-8.931-14.46-0.541-1.431-1.044-2.049-2.436-2.049h-5.413c-1.547 0-1.856 0.735-1.856 1.547 0 1.431 1.817 8.545 8.545 17.94 4.485 6.418 10.787 9.898 16.51 9.898 3.441 0 3.866-0.773 3.866-2.088v-4.872c0-1.547 0.309-1.856 1.431-1.856 0.812 0 2.165 0.387 5.374 3.48 3.673 3.673 4.292 5.336 6.341 5.336h5.413c1.547 0 2.32-0.773 1.856-2.281-0.503-1.508-2.243-3.712-4.562-6.341-1.276-1.508-3.17-3.093-3.712-3.905-0.812-1.044-0.58-1.508 0-2.397 0-0.039 6.612-9.318 7.269-12.489v0z"></path>
</svg>
