<svg width="106" height="21" viewBox="0 0 106 21" xmlns="http://www.w3.org/2000/svg">
<path d="M16.0434 4.01367H18.2177L14.5141 16.0016H12.3875L9.5918 7.13058L6.7962 16.0016H4.66961L0.966003 4.01367H3.1404L5.7687 13.1245L8.5883 4.01367H10.5954L13.4149 13.1485L16.0434 4.01367Z" />
<path d="M22.8629 4.01367H20.784V16.0016H22.8629V4.01367Z" />
<path d="M32.2335 3.70312C33.635 3.70312 34.758 4.14669 35.6026 5.03381C36.4467 5.92094 36.8689 7.12372 36.8689 8.64216V16.0027H34.7901V8.76209C34.7901 7.78729 34.5273 7.03202 34.0016 6.49627C33.4759 5.961 32.7511 5.69331 31.8272 5.69318C30.7916 5.69318 29.9553 6.01685 29.3184 6.6642C28.6811 7.31147 28.3625 8.30644 28.3626 9.64914V16.0027H26.2838V4.01479H28.3626V5.74104C29.2068 4.38266 30.4971 3.70335 32.2335 3.70312Z" />
<path d="M41.5617 10.9678C41.7684 12.0388 42.2582 12.87 43.0311 13.4612C43.8036 14.0528 44.7554 14.3485 45.8865 14.3484C47.4635 14.3484 48.6105 13.765 49.3273 12.5982L51.0954 13.6051C49.9324 15.4116 48.1802 16.3147 45.8387 16.3143C43.9428 16.3143 42.4016 15.719 41.2151 14.5282C40.0282 13.3377 39.4348 11.8311 39.435 10.0087C39.435 8.20276 40.0165 6.70027 41.1794 5.50131C42.3419 4.30252 43.8472 3.70312 45.6953 3.70312C47.4475 3.70312 48.8771 4.32252 49.9843 5.56129C51.0914 6.80014 51.6449 8.29064 51.645 10.0328C51.6443 10.3458 51.6203 10.6583 51.5733 10.9678H41.5617ZM45.6953 5.66911C44.5801 5.66911 43.6562 5.98481 42.9236 6.6162C42.1906 7.24786 41.7367 8.09103 41.5617 9.14574H49.5424C49.3668 8.0109 48.9208 7.14774 48.2043 6.55624C47.4874 5.96517 46.6511 5.66946 45.6953 5.66911Z" />
<path d="M60.5232 3.75C62.2436 3.75 63.7091 4.35339 64.9197 5.56016C66.1301 6.76715 66.7355 8.24964 66.7357 10.0077C66.7357 11.7662 66.1304 13.2487 64.9197 14.4553C63.709 15.6623 62.2434 16.2656 60.5232 16.2654C59.2963 16.2654 58.2051 15.9537 57.2496 15.3303C56.3011 14.7156 55.5469 13.8423 55.0753 12.8129V20.996H54.2151V4.01367H55.0753V7.20251C55.5469 6.17307 56.3012 5.2998 57.2496 4.685C58.2054 4.06167 59.2966 3.75 60.5232 3.75ZM56.6404 13.8798C57.6835 14.9269 58.9619 15.4504 60.4754 15.4502C61.9886 15.4502 63.2669 14.9268 64.3105 13.8798C65.3535 12.8331 65.8752 11.5424 65.8755 10.0077C65.8755 8.47324 65.3539 7.18257 64.3105 6.13562C63.2669 5.08889 61.9885 4.56541 60.4754 4.5652C58.9619 4.5652 57.6835 5.08867 56.6404 6.13562C55.5968 7.18261 55.0751 8.47328 55.0753 10.0077C55.0753 11.5422 55.597 12.8329 56.6404 13.8798Z" />
<path d="M75.101 16.2654C73.365 16.2654 71.891 15.662 70.6809 14.4553C69.4703 13.2485 68.8649 11.766 68.865 10.0077C68.865 8.2495 69.4703 6.76701 70.6809 5.56016C71.891 4.35343 73.365 3.75005 75.101 3.75C76.853 3.75 78.335 4.35339 79.546 5.56016C80.756 6.76714 81.361 8.24963 81.362 10.0077C81.362 11.7662 80.756 13.2487 79.546 14.4553C78.335 15.6622 76.854 16.2656 75.101 16.2654ZM71.266 13.8798C72.31 14.9269 73.588 15.4504 75.101 15.4502C76.615 15.4502 77.897 14.9267 78.948 13.8798C80 12.8331 80.525 11.5424 80.525 10.0077C80.525 8.47323 80 7.18256 78.948 6.13562C77.897 5.08888 76.615 4.56541 75.101 4.56519C73.588 4.56519 72.309 5.08867 71.266 6.13562C70.2229 7.18261 69.7012 8.47327 69.7013 10.0077C69.7013 11.5422 70.223 12.8329 71.266 13.8798Z" />
<path d="M84.917 4.01367H84.057V16.0016H84.917V4.01367Z" />
<path d="M93.702 3.75C95.088 3.75 96.199 4.18156 97.035 5.04466C97.871 5.90786 98.29 7.05071 98.29 8.47324V16.0016H97.453V8.47324C97.453 7.30657 97.111 6.36351 96.426 5.64406C95.741 4.92473 94.809 4.56511 93.63 4.5652C92.324 4.5652 91.256 5.01275 90.428 5.90785C89.6 6.80318 89.186 8.0419 89.186 9.62406V16.0016H88.326V4.01367H89.186V6.67505C89.6 5.70025 90.201 4.96896 90.99 4.48117C91.778 3.9939 92.682 3.75018 93.702 3.75Z" />
<path d="M106 4.80633H102.32V13.1738C102.32 14.1809 102.591 14.8203 103.133 15.092C103.674 15.364 104.63 15.4199 106 15.2598V16.003C104.439 16.2428 103.296 16.1429 102.571 15.7033C101.846 15.2639 101.484 14.4208 101.484 13.1738V0.0871344L102.32 0.0839844V4.01507H106V4.80633Z" />
</svg>
