<!-- Generated by IcoMoon.io -->
<svg version="1.1" xmlns="http://www.w3.org/2000/svg" width="32" height="32" viewBox="0 0 32 32">
<title>arrow-clockwise</title>
<path d="M15.998 6.336c-6.441 0.003-11.661 5.224-11.661 11.665 0 6.443 5.223 11.665 11.665 11.665s11.665-5.223 11.665-11.665c0-1.765-0.392-3.439-1.094-4.938l0.030 0.072c-0.055-0.131-0.088-0.284-0.088-0.443 0-0.644 0.522-1.167 1.167-1.167 0.451 0 0.842 0.256 1.036 0.631l0.003 0.007c0.806 1.714 1.276 3.722 1.276 5.84 0 7.731-6.267 13.998-13.998 13.998s-13.998-6.267-13.998-13.998c0-7.73 6.266-13.997 13.996-13.998h0v2.333z"></path>
<path d="M15.998 9.757v-9.174c0-0.322 0.261-0.583 0.583-0.583 0.142 0 0.273 0.051 0.374 0.136l-0.001-0.001 5.506 4.587c0.28 0.233 0.28 0.663 0 0.896l-5.506 4.587c-0.1 0.084-0.231 0.135-0.373 0.135-0.322 0-0.583-0.261-0.583-0.583v0z"></path>
</svg>
