<!-- Generated by IcoMoon.io -->
<svg version="1.1" xmlns="http://www.w3.org/2000/svg" width="32" height="32" viewBox="0 0 32 32">
<title>check</title>
<path d="M26.99 4.117c0.531-0.527 1.262-0.852 2.070-0.852 1.624 0 2.94 1.316 2.94 2.94 0 0.787-0.309 1.502-0.813 2.029l0.001-0.001-15.65 19.562c-0.539 0.579-1.304 0.94-2.155 0.94-0.812 0-1.547-0.329-2.079-0.861l-10.369-10.373c-0.576-0.538-0.936-1.303-0.936-2.151 0-1.624 1.316-2.94 2.94-2.94 0.848 0 1.613 0.359 2.15 0.934l0.002 0.002 8.209 8.205 13.615-17.347c0.025-0.031 0.051-0.060 0.078-0.086l0-0z"></path>
</svg>
