<!-- Generated by IcoMoon.io -->
<svg version="1.1" xmlns="http://www.w3.org/2000/svg" width="32" height="32" viewBox="0 0 32 32">
<title>question</title>
<path d="M6.334 8.15c-0 0.011-0.001 0.023-0.001 0.036 0 0.467 0.378 0.845 0.845 0.845 0.005 0 0.011-0 0.016-0h2.94c0.492 0 0.884-0.403 0.948-0.891 0.321-2.339 1.925-4.043 4.784-4.043 2.446 0 4.684 1.223 4.684 4.164 0 2.264-1.333 3.305-3.44 4.888-2.399 1.743-4.299 3.779-4.164 7.084l0.011 0.774c0.008 0.486 0.404 0.877 0.891 0.877 0 0 0 0 0 0h2.891c0.492 0 0.891-0.399 0.891-0.891v0-0.374c0-2.56 0.973-3.305 3.601-5.298 2.171-1.651 4.435-3.483 4.435-7.33 0-5.387-4.549-7.989-9.529-7.989-4.517 0-9.465 2.103-9.804 8.15zM11.885 28.695c0 1.9 1.515 3.305 3.601 3.305 2.171 0 3.665-1.405 3.665-3.305 0-1.968-1.497-3.351-3.668-3.351-2.082 0-3.597 1.383-3.597 3.351z"></path>
</svg>
