<?xml version="1.0" standalone="no"?>
<!DOCTYPE svg PUBLIC "-//W3C//DTD SVG 20010904//EN"
 "http://www.w3.org/TR/2001/REC-SVG-20010904/DTD/svg10.dtd">
<svg version="1.0" xmlns="http://www.w3.org/2000/svg"
 width="704.000000pt" height="704.000000pt" viewBox="0 0 704.000000 704.000000"
 preserveAspectRatio="xMidYMid meet">
<metadata>
Created by potrace 1.11, written by Peter Selinger 2001-2013
</metadata>
<g transform="translate(0.000000,704.000000) scale(0.100000,-0.100000)"
fill="#000000" stroke="none">
<path d="M1343 7019 c-29 -14 -52 -37 -73 -70 -16 -27 -30 -51 -30 -53 0 -2
-17 -39 -37 -82 -20 -44 -36 -82 -35 -86 1 -5 -2 -8 -6 -8 -4 0 -14 -16 -21
-36 -7 -20 -32 -77 -56 -128 -43 -92 -77 -167 -80 -176 0 -3 -11 -27 -23 -54
-12 -27 -22 -54 -22 -61 0 -8 -3 -15 -8 -17 -4 -1 -27 -55 -52 -118 -24 -63
-47 -119 -52 -125 -4 -5 -8 -19 -8 -30 0 -12 -3 -25 -7 -29 -5 -4 -8 -11 -9
-14 0 -4 -7 -23 -16 -42 -8 -19 -21 -53 -28 -75 -7 -22 -15 -44 -19 -50 -3 -5
-7 -19 -8 -29 -2 -11 -7 -24 -12 -30 -4 -6 -11 -23 -14 -37 -4 -14 -14 -43
-23 -65 -10 -21 -19 -43 -20 -49 -3 -11 -102 -301 -111 -325 -4 -8 -7 -17 -8
-20 -15 -49 -39 -126 -40 -130 -1 -3 -12 -39 -24 -80 -13 -41 -25 -86 -27
-100 -3 -14 -11 -47 -19 -75 -14 -50 -69 -319 -79 -385 -3 -19 -8 -45 -10 -57
-3 -12 -7 -49 -11 -82 -3 -33 -8 -69 -10 -82 -19 -99 -27 -591 -11 -718 4 -36
9 -81 12 -100 2 -20 9 -61 16 -91 6 -30 11 -59 10 -63 -1 -4 2 -16 7 -26 6
-10 12 -29 15 -42 16 -81 89 -243 180 -397 34 -57 66 -112 72 -122 6 -11 18
-28 27 -38 10 -10 17 -23 17 -29 0 -6 3 -13 8 -15 4 -1 23 -25 41 -53 19 -27
38 -52 41 -55 3 -3 17 -21 30 -40 14 -19 30 -42 37 -50 6 -8 51 -64 99 -125
48 -60 98 -121 110 -135 13 -14 31 -35 42 -47 28 -34 160 -180 237 -263 106
-115 535 -540 674 -670 68 -63 136 -126 151 -140 14 -14 46 -43 71 -64 24 -22
78 -70 119 -107 41 -36 136 -120 210 -184 74 -65 149 -129 165 -144 17 -14 55
-46 85 -71 51 -42 98 -82 124 -105 22 -20 83 -71 126 -105 24 -19 86 -70 139
-113 114 -94 148 -110 216 -104 58 6 92 18 122 43 12 11 30 26 40 34 20 16
246 205 278 232 11 9 30 25 41 35 12 10 43 36 70 58 26 22 59 50 71 62 13 11
43 36 66 55 23 18 51 42 62 53 12 11 41 36 66 56 24 20 56 47 70 60 14 13 50
45 80 71 65 55 75 64 169 148 273 242 730 682 730 702 0 4 7 8 15 8 8 0 15 3
15 8 0 4 44 53 99 110 54 56 127 135 162 174 35 40 71 79 79 88 8 8 40 44 70
80 30 35 62 72 70 81 8 10 20 24 26 31 5 7 46 58 91 114 92 114 233 310 233
323 0 5 7 14 15 21 18 15 119 187 174 297 37 74 87 207 96 255 2 10 6 22 9 26
4 7 14 63 21 119 2 12 6 34 9 50 25 122 25 539 0 728 -3 22 -7 58 -9 80 -7 64
-15 113 -36 235 -28 160 -29 165 -45 239 -8 36 -17 77 -20 91 -3 14 -10 43
-16 65 -10 39 -13 51 -23 96 -2 12 -12 47 -21 78 -9 31 -17 63 -19 71 -2 8
-11 42 -21 75 -10 33 -19 62 -19 65 -9 36 -28 99 -34 115 -5 11 -24 67 -41
125 -18 58 -35 110 -39 115 -3 6 -6 15 -7 20 -3 20 -127 358 -154 423 -20 46
-30 69 -56 132 -14 36 -37 89 -50 118 -13 29 -24 55 -24 58 0 2 -18 43 -40 90
-22 47 -40 87 -40 89 0 2 -20 45 -44 97 -24 51 -53 116 -66 143 -89 199 -119
249 -162 271 -116 60 -244 -11 -249 -138 -1 -46 7 -74 56 -183 7 -16 27 -66
45 -110 18 -44 37 -91 43 -105 6 -14 11 -27 11 -30 1 -3 21 -54 45 -115 50
-129 65 -168 67 -175 0 -3 6 -18 13 -35 7 -16 33 -86 57 -155 25 -69 47 -132
51 -140 3 -8 5 -19 4 -24 -1 -4 2 -13 7 -20 20 -24 134 -401 158 -521 2 -11 6
-31 9 -45 18 -91 25 -131 31 -175 3 -27 8 -61 10 -75 13 -83 16 -136 19 -325
2 -115 -1 -237 -5 -270 -5 -33 -11 -84 -14 -113 -3 -30 -8 -57 -10 -61 -2 -3
-7 -26 -11 -49 -6 -45 -58 -230 -75 -269 -6 -13 -14 -33 -18 -45 -47 -123
-171 -330 -269 -445 -60 -71 -199 -213 -209 -213 -3 0 -22 -16 -42 -35 -20
-19 -42 -35 -48 -35 -7 0 -14 -7 -18 -15 -3 -8 -12 -15 -21 -15 -8 0 -15 -4
-15 -8 0 -17 -343 -221 -362 -215 -4 2 -8 -2 -8 -7 0 -6 -6 -10 -12 -10 -7 0
-24 -6 -38 -13 -14 -7 -54 -23 -90 -36 -36 -13 -72 -26 -80 -29 -18 -6 -28 -9
-55 -16 -11 -3 -35 -9 -52 -15 -18 -5 -33 -8 -33 -6 0 3 -10 1 -23 -4 -28 -11
-76 -19 -172 -30 -65 -8 -307 -6 -365 2 -90 13 -129 20 -155 28 -133 39 -173
51 -190 59 -11 5 -49 21 -85 36 -36 16 -87 41 -115 58 -64 38 -218 137 -225
145 -3 3 -13 11 -22 16 -39 23 -371 267 -388 285 -3 3 -21 16 -40 30 -19 13
-39 28 -45 32 -74 63 -495 358 -510 358 -2 0 -32 17 -67 37 -35 20 -65 36 -68
36 -3 -1 -18 7 -35 16 -29 18 -155 67 -225 89 -116 36 -336 48 -465 25 -69
-12 -191 -45 -247 -68 -18 -7 -32 15 -42 68 -2 12 -7 29 -10 37 -20 57 -28
375 -13 515 13 120 18 159 22 175 2 8 7 31 10 50 13 82 48 253 72 350 14 58
27 112 28 120 2 8 4 15 5 15 1 0 3 7 5 15 16 85 179 613 212 690 3 8 7 17 8
20 4 11 19 49 62 160 25 63 46 120 47 125 2 6 9 24 16 40 20 46 35 83 65 160
15 39 58 144 95 235 38 91 71 180 73 198 16 100 -67 192 -173 192 -14 0 -44
-9 -67 -21z"/>
<path d="M3350 6354 c-35 -14 -67 -54 -122 -155 -44 -78 -53 -94 -58 -99 -6
-6 -31 -54 -136 -258 -40 -78 -74 -144 -74 -147 0 -3 -16 -39 -35 -80 -20 -42
-56 -137 -81 -213 -39 -118 -46 -149 -48 -230 -3 -96 13 -192 40 -246 8 -16
14 -34 14 -39 0 -24 88 -147 135 -188 67 -60 87 -73 150 -104 103 -49 174 -65
280 -61 49 2 101 6 115 10 59 14 180 67 180 78 0 5 7 8 16 8 20 0 164 146 184
185 8 17 19 37 25 45 12 16 47 104 52 130 26 146 22 242 -16 365 -62 198 -171
437 -332 722 -40 70 -77 138 -83 150 -6 13 -14 23 -18 23 -5 0 -8 5 -8 10 0 6
-10 26 -22 45 -37 55 -98 75 -158 49z"/>
</g>
</svg>
