<?xml version="1.0" standalone="no"?>
<!DOCTYPE svg PUBLIC "-//W3C//DTD SVG 20010904//EN"
 "http://www.w3.org/TR/2001/REC-SVG-20010904/DTD/svg10.dtd">
<svg version="1.0" xmlns="http://www.w3.org/2000/svg"
 width="431.000000pt" height="431.000000pt" viewBox="0 0 431.000000 431.000000"
 preserveAspectRatio="xMidYMid meet">
<metadata>
Created by potrace 1.11, written by Peter Selinger 2001-2013
</metadata>
<g transform="translate(0.000000,431.000000) scale(0.100000,-0.100000)"
fill="#000000" stroke="none">
<path d="M2638 4175 c-5 -5 -270 -116 -358 -150 -137 -54 -222 -91 -222 -100
-1 -9 804 -523 879 -561 18 -9 37 -22 44 -30 6 -8 15 -14 19 -14 5 0 54 -29
111 -65 l102 -65 69 120 70 120 -55 58 c-59 62 -69 72 -197 212 -47 52 -113
123 -146 159 -34 36 -74 80 -89 96 -99 110 -209 225 -215 225 -4 0 -9 -2 -12
-5z"/>
<path d="M1537 3752 c-42 -31 -121 -89 -174 -129 -54 -39 -208 -153 -343 -252
-135 -99 -256 -189 -269 -198 -45 -33 -94 -73 -89 -73 4 0 94 -16 138 -25 26
-5 44 -9 140 -25 53 -9 79 -14 145 -25 17 -3 53 -10 80 -15 28 -5 64 -12 80
-15 17 -3 109 -19 205 -36 96 -17 189 -33 205 -36 17 -2 62 -10 100 -18 39 -8
99 -19 135 -24 36 -6 75 -13 86 -15 12 -2 39 -7 60 -10 22 -4 46 -8 54 -11 8
-2 33 -6 55 -10 31 -4 538 -94 685 -121 14 -2 42 -7 62 -10 l36 -6 57 97 c48
81 55 99 44 109 -8 7 -77 53 -154 101 -77 49 -176 112 -220 140 -44 29 -181
116 -305 195 -124 78 -241 153 -260 165 -102 66 -214 137 -285 182 -44 27
-105 66 -136 86 l-56 36 -76 -57z"/>
<path d="M3545 3123 c-71 -130 -145 -264 -163 -297 -19 -34 -86 -155 -149
-271 -64 -115 -128 -232 -143 -260 -148 -268 -180 -329 -178 -331 2 -1 21 10
43 25 22 15 92 58 155 97 138 85 818 509 910 568 36 23 82 52 102 65 l38 22
-79 102 c-43 56 -149 194 -235 307 -87 113 -161 206 -164 207 -4 2 -65 -104
-137 -234z"/>
<path d="M216 2368 c-55 -183 -115 -385 -134 -448 -29 -98 -58 -194 -79 -261
-4 -15 0 -16 54 -3 32 8 67 16 78 18 11 2 94 21 185 41 91 20 176 39 190 42
14 2 61 12 105 23 68 16 106 24 160 36 149 32 676 149 720 159 33 8 195 44
360 80 165 36 327 72 360 80 70 16 378 85 415 91 13 3 25 6 26 7 9 13 133 242
131 243 -2 2 -64 9 -182 19 -27 3 -77 7 -110 10 -33 3 -85 8 -115 10 -30 3
-75 7 -100 10 -25 2 -79 7 -120 11 -89 7 -136 11 -210 19 -30 3 -82 8 -115 10
-33 2 -80 6 -105 9 -25 3 -79 8 -120 11 -41 3 -93 8 -115 10 -22 2 -71 7 -110
10 -38 4 -88 8 -110 10 -22 2 -71 7 -110 10 -38 3 -88 8 -110 10 -22 2 -71 7
-110 10 -38 3 -88 8 -110 10 -22 2 -71 7 -110 10 -70 5 -144 12 -220 20 -22 2
-74 7 -115 10 l-75 6 -99 -333z"/>
<path d="M3705 2109 c-471 -298 -595 -376 -723 -455 l-112 -69 5 -35 c3 -19 7
-48 11 -65 3 -16 21 -115 40 -220 19 -104 44 -237 55 -295 10 -58 21 -118 24
-135 13 -71 37 -202 41 -220 2 -11 11 -58 20 -105 9 -47 18 -94 20 -105 12
-60 24 -129 24 -134 0 -3 28 23 61 59 34 36 98 104 143 151 44 47 142 150 216
229 74 79 146 155 161 168 25 24 27 24 210 23 l184 -2 2 327 c1 180 4 329 7
331 3 3 52 5 110 4 l104 -2 -13 43 c-69 227 -239 718 -248 717 -7 0 -160 -95
-342 -210z"/>
<path d="M2480 1930 c-14 -5 -122 -36 -240 -70 -118 -34 -359 -104 -535 -155
-319 -93 -468 -137 -980 -285 -331 -96 -568 -165 -657 -191 l-68 -20 0 -525
c0 -475 2 -526 16 -520 8 3 39 21 67 40 29 18 99 63 157 98 116 72 175 108
620 385 168 104 325 202 350 217 25 15 93 57 153 94 59 37 302 188 540 335
l433 269 87 169 c49 93 87 169 85 168 -2 0 -14 -4 -28 -9z"/>
<path d="M2555 1322 c-11 -20 -59 -108 -107 -196 -49 -88 -88 -161 -88 -163 0
-2 -10 -20 -23 -41 -22 -34 -54 -92 -145 -262 -19 -36 -38 -69 -42 -75 -4 -5
-24 -41 -45 -80 -21 -38 -59 -108 -85 -155 -26 -47 -61 -110 -77 -141 l-29
-55 449 -2 c426 -2 448 -2 443 15 -3 10 -8 34 -11 53 -3 19 -14 80 -25 135
-11 55 -33 172 -49 260 -17 88 -35 183 -41 210 -11 54 -36 191 -45 240 -19
113 -53 287 -57 290 -2 2 -13 -12 -23 -33z"/>
<path d="M1902 977 c-116 -75 -394 -255 -637 -412 -77 -50 -178 -116 -225
-147 -47 -30 -150 -97 -230 -148 -80 -51 -151 -98 -158 -104 -9 -9 91 -12 425
-11 l437 0 42 70 c24 39 43 76 43 83 1 6 6 12 11 12 6 0 10 4 10 9 0 7 216
395 240 431 6 8 13 22 17 30 4 8 38 69 75 134 38 65 67 120 65 122 -2 2 -53
-29 -115 -69z"/>
</g>
</svg>
