<!-- Generated by IcoMoon.io -->
<svg version="1.1" xmlns="http://www.w3.org/2000/svg" width="32" height="32" viewBox="0 0 32 32">
<title>exclamation</title>
<path d="M12.002 28.003c0-2.208 1.79-3.997 3.998-3.997s3.997 1.79 3.997 3.997v0c0 2.208-1.79 3.997-3.998 3.997s-3.998-1.79-3.998-3.997v0zM12.394 3.998c-0.013-0.114-0.020-0.246-0.020-0.38 0-1.998 1.62-3.618 3.618-3.618s3.618 1.62 3.618 3.618c0 0.134-0.007 0.266-0.021 0.396l0.001-0.016-1.399 14.019c-0.1 1.135-1.046 2.019-2.199 2.019s-2.099-0.884-2.198-2.011l-0.001-0.008-1.399-14.019z"></path>
</svg>
