<!-- Generated by IcoMoon.io -->
<svg version="1.1" xmlns="http://www.w3.org/2000/svg" width="1024" height="1024" viewBox="0 0 1024 1024">
<title></title>
<g id="icomoon-ignore">
</g>
<path fill="#000" d="M512 960v0c-247.424 0-448-200.576-448-448s200.576-448 448-448v0c247.424 0 448 200.576 448 448s-200.576 448-448 448zM512 1024c282.77 0 512-229.23 512-512s-229.23-512-512-512v0c-282.77 0-512 229.23-512 512s229.23 512 512 512v0z"></path>
<path fill="#000" d="M336.32 370.304c-0.009 0.192-0.014 0.416-0.014 0.642 0 8.377 6.791 15.168 15.168 15.168 0.095 0 0.189-0.001 0.284-0.003h52.786c8.832 0 15.872-7.232 17.024-16 5.76-41.984 34.56-72.576 85.888-72.576 43.904 0 84.096 21.952 84.096 74.752 0 40.64-23.936 59.328-61.76 87.744-43.072 31.296-77.184 67.84-74.752 127.168l0.192 13.888c0.144 8.726 7.251 15.744 15.998 15.744 0.001 0 0.001 0 0.002 0h51.904c8.837 0 16-7.163 16-16v0-6.72c0-45.952 17.472-59.328 64.64-95.104 38.976-29.632 79.616-62.528 79.616-131.584 0-96.704-81.664-143.424-171.072-143.424-81.088 0-169.92 37.76-176 146.304zM435.968 739.136c0 34.112 27.2 59.328 64.64 59.328 38.976 0 65.792-25.216 65.792-59.328 0-35.328-26.88-60.16-65.856-60.16-37.376 0-64.576 24.832-64.576 60.16z"></path>
</svg>
