<!-- Generated by IcoMoon.io -->
<svg version="1.1" xmlns="http://www.w3.org/2000/svg" width="32" height="32" viewBox="0 0 32 32">
<title>trash</title>
<path d="M10.667 11.733c0.589 0 1.067 0.478 1.067 1.067v0 12.8c0 0.589-0.478 1.067-1.067 1.067s-1.067-0.478-1.067-1.067v0-12.8c0-0.589 0.478-1.067 1.067-1.067v0zM16 11.733c0.589 0 1.067 0.478 1.067 1.067v0 12.8c0 0.589-0.478 1.067-1.067 1.067s-1.067-0.478-1.067-1.067v0-12.8c0-0.589 0.478-1.067 1.067-1.067v0zM22.4 12.8c0-0.589-0.478-1.067-1.067-1.067s-1.067 0.478-1.067 1.067v0 12.8c0 0.589 0.478 1.067 1.067 1.067s1.067-0.478 1.067-1.067v0-12.8z"></path>
<path d="M29.867 6.4c0 1.178-0.955 2.133-2.133 2.133v0h-1.067v19.2c0 2.356-1.91 4.267-4.267 4.267v0h-12.8c-2.356 0-4.267-1.91-4.267-4.267v0-19.2h-1.067c-1.178 0-2.133-0.955-2.133-2.133v0-2.133c0-1.178 0.955-2.133 2.133-2.133v0h7.467c0-1.178 0.955-2.133 2.133-2.133v0h4.267c1.178 0 2.133 0.955 2.133 2.133v0h7.467c1.178 0 2.133 0.955 2.133 2.133v0 2.133zM7.718 8.533l-0.252 0.126v19.074c0 1.178 0.955 2.133 2.133 2.133v0h12.8c1.178 0 2.133-0.955 2.133-2.133v0-19.074l-0.252-0.126h-16.563zM4.267 6.4v-2.133h23.467v2.133h-23.467z"></path>
</svg>
